<?xml version="1.0" encoding="utf-8"?>
<!-- Generator: Adobe Illustrator 19.0.0, SVG Export Plug-In . SVG Version: 6.00 Build 0)  -->
<svg version="1.1" id="svg" xmlns="http://www.w3.org/2000/svg" xmlns:xlink="http://www.w3.org/1999/xlink" x="0px" y="0px"
	 viewBox="0 0 800 500"  style="enable-background:new 0 0 800 500;" xml:space="preserve">
<style type="text/css">
	.st0{fill:#1A131E;}
	.st1{fill:#1B1520;}
	.st2{fill:#1A1520;}
	.st3{fill:#427865;}
	.st4{fill:#1C1722;}
	.st5{fill:#1A141F;}
	.st6{fill:#417966;}
	.st7{fill:#18131E;}
	.st8{fill:#3A5C66;}
	.st9{fill:#FEFEFE;}
	.st10{fill:#476C73;}
	.st11{fill:#1D5848;}
	.st12{fill:#52805D;}
	.st13{fill:#156752;}
	.st14{fill:#477F67;}
	.st15{fill:#37877B;}
	.st16{fill:#1D1722;}
	.st17{fill:#44957D;}
	.st18{fill:#3E7E6A;}
	.st19{fill:#37876F;}
	.st20{fill:#598683;}
	.st21{fill:#2A7862;}
	.st22{fill:#466A72;}
	.st23{fill:#2C7C64;}
	.st24{fill:#246E59;}
	.st25{fill:#4D7876;}
	.st26{fill:#47AD90;}
	.st27{fill:#3AA388;}
	.st28{fill:#16584B;}
	.st29{fill:#16564A;}
	.st30{fill:#3BA68A;}
	.st31{fill:#547F76;}
	.st32{fill:#539650;}
	.st33{fill:#193A3B;}
	.st34{fill:#4C9981;}
	.st35{fill:#3F9F82;}
	.st36{fill:#339B7A;}
	.st37{fill:#51B18D;}
	.st38{fill:#8DA7A8;}
	.st39{fill:#829796;}
	.st40{fill:#93A49F;}
	.st41{fill:#1C4844;}
	.st42{fill:#8B9396;}
	.st43{fill:#A6C7B2;}
	.st44{fill:#8DACAC;}
	.st45{fill:#8A8D90;}
	.st46{fill:#8CA09A;}
	.st47{fill:#868389;}
	.st48{fill:#8B8B8F;}
	.st49{fill:#BFDBD7;}
	.st50{fill:#869192;}
	.st51{fill:#91AEA4;}
	.st52{fill:#8A888D;}
	.st53{fill:#8B888D;}
	.st54{fill:#8A8E91;}
	.st55{fill:#8CBDB5;}
	.st56{fill:#AAC89C;}
	.st57{fill:#9FCBBE;}
	.st58{fill:#8C898F;}
	.st59{fill:#8B898E;}
	.st60{fill:#65898B;}
	.st61{fill:#92B9AE;}
	.st62{fill:#8FBEB5;}
	.st63{fill:#9CC6B9;}
	.st64{fill:#A5BFB5;}
	.st65{fill:#8B8E91;}
	.st66{fill:#A7BCAD;}
	.st67{fill:#809F9A;}
	.st68{fill:#98BCB1;}
	.st69{fill:#A6BFBD;}
	.st70{fill:#9BD4C3;}
	.st71{fill:#A7BFBD;}
	.st72{fill:#A8C6AF;}
	.st73{fill:#84A79F;}
	.st74{fill:#85848A;}
	.st75{fill:#1B141F;}
	.st76{fill:#19141F;}
	.st77{fill:#517E5D;}
	.st78{fill:#569A73;}
	.st79{fill:#346656;}
	.st80{fill:#539552;}
	.st81{fill:#41AB99;}
	.st82{fill:#316455;}
	.st83{fill:#326253;}
	.st84{fill:#3F9788;}
	.st85{fill:#245E55;}
	.st86{fill:#1FAA65;}
	.st87{fill:#93BDAF;}
	.st88{fill:#33887C;}
	.st89{fill:#52A58B;}
	.st90{fill:#41806D;}
	.st91{fill:#48B29E;}
	.st92{fill:#C7DBDD;}
	.st93{fill:#35695B;}
	.st94{fill:#1D5A4C;}
	.st95{fill:#987557;}
	.st96{fill:#EBEDEE;}
	.st97{fill:#126752;}
	.st98{fill:#1F2335;}
	.st99{fill:#21745E;}
	.st100{fill:#2B9F87;}
	.st101{fill:#2E9778;}
	.st102{fill:#5F756E;}
	.st103{fill:#998763;}
	.st104{fill:#1F2436;}
	.st105{fill:#2E8A6F;}
	.st106{fill:#1E6A56;}
	.st107{fill:#238878;}
	.st108{fill:#30A68D;}
	.st109{fill:#4F9D83;}
	.st110{fill:#60756E;}
	.st111{fill:#998865;}
	.st112{fill:#1B131E;}
	.st113{fill:#366557;}
	.st114{fill:#306355;}
	.st115{fill:#178164;}
	.st116{fill:#2A5152;}
	.st117{fill:#2C9275;}
	.st118{fill:#608789;}
	.st119{fill:#43AC9B;}
	.st120{fill:#3E9687;}
	.st121{fill:#537D82;}
	.st122{fill:#648B91;}
	.st123{fill:#486F76;}
	.st124{fill:#6E9B98;}
	.st125{fill:#3A7267;}
	.st126{fill:#3A7166;}
	.st127{fill:#3CA18A;}
	.st128{fill:#3DA38D;}
	.st129{fill:#19131D;}
	.st130{fill:#1B2B41;}
	.st131{fill:#1B2C41;}
	.st132{fill:#1D4C42;}
	.st133{fill:#245F50;}
	.st134{fill:#2CAA6F;}
	.st135{fill:#468172;}
	.st136{fill:#2A5A56;}
	.st137{fill:#295855;}
	.st138{fill:#2A7F67;}
	.st139{fill:#1C2638;}
	.st140{fill:#1B293B;}
	.st141{fill:#5A7F84;}
	.st142{fill:#457F71;}
	.st143{fill:#075362;}
	.st144{fill:#085261;}
	.st145{fill:#309A79;}
	.st146{fill:#2F9B7A;}
	.st147{fill:#297F66;}
	.st148{fill:#287D65;}
	.st149{fill:#4BB198;}
	.st150{fill:#103D50;}
	.st151{fill:#22594D;}
	.st152{fill:#4BB49A;}
	.st153{fill:#134050;}
	.st154{fill:#103F50;}
	.st155{fill:#8BBEB1;}
	.st156{fill:#19131E;}
	.st157{fill:#51864B;}
	.st158{fill:#8BBFB1;}
	.st159{fill:#236352;}
	.st160{fill:#22736B;}
	.st161{fill:#154F56;}
	.st162{fill:#589886;}
	.st163{fill:#405F55;}
	.st164{fill:#416056;}
	.st165{fill:#5A7D84;}
	.st166{fill:#5B7E85;}
	.st167{fill:#3C8875;}
	.st168{fill:#599987;}
	.st169{fill:#2A8269;}
	.st170{fill:#18171F;}
	.st171{fill:#191720;}
	.st172{fill:#2A8C6E;}
	.st173{fill:#0A6A6C;}
	.st174{fill:#55826F;}
	.st175{fill:#B4CFCC;}
	.st176{fill:#B8D3D0;}
	.st177{fill:#58856C;}
	.st178{fill:#82A5A7;}
	.st179{fill:#14B760;}
	.st180{fill:#13BF5F;}
	.st181{fill:#1D1E24;}
	.st182{fill:#19181F;}
	.st183{fill:#31615B;}
	.st184{fill:#2A5051;}
	.st185{fill:#578181;}
	.st186{fill:#375B63;}
	.st187{fill:#2C6D5B;}
	.st188{fill:#0FC459;}
	.st189{fill:#266354;}
	.st190{fill:#589D73;}
	.st191{fill:#376858;}
	.st192{fill:#97C1B4;}
	.st193{fill:#245D54;}
	.st194{fill:#2A8175;}
	.st195{fill:#A0C8BE;}
	.st196{fill:#5C8987;}
	.st197{fill:#D4E1E2;}
	.st198{fill:#DFE8E6;}
	.st199{fill:#2A8176;}
	.st200{fill:#A0C8BD;}
	.st201{fill:#5FB79D;}
	.st202{fill:#3F9A82;}
	.st203{fill:#7FAEA7;}
	.st204{fill:#9EC3BD;}
	.st205{fill:#1F5C4C;}
	.st206{fill:#218C66;}
	.st207{fill:#319978;}
	.st208{fill:#385A64;}
	.st209{fill:#60888D;}
	.st210{fill:#219066;}
	.st211{fill:#3A6156;}
	.st212{fill:#2C7E68;}
	.st213{fill:#188164;}
	.st214{fill:#19393A;}
	.st215{fill:#3B6256;}
	.st216{fill:#2A7761;}
	.st217{fill:#194D3F;}
	.st218{fill:#88B5AF;}
	.st219{fill:#336460;}
	.st220{fill:#2B6958;}
	.st221{fill:#32877C;}
	.st222{fill:#205347;}
	.st223{fill:#3E826E;}
	.st224{fill:#4A9B82;}
	.st225{fill:#54A88E;}
	.st226{fill:#211D27;}
	.st227{fill:#407D6B;}
	.st228{fill:#257761;}
	.st229{fill:#33997A;}
	.st230{fill:#11C15C;}
	.st231{fill:#30886E;}
	.st232{fill:#26946A;}
	.st233{fill:#55905D;}
	.st234{fill:#155659;}
	.st235{fill:#1D6750;}
	.st236{fill:#C5DADB;}
	.st237{fill:#2D7E73;}
	.st238{fill:#3D9E82;}
	.st239{fill:#C7DCDB;}
	.st240{fill:#A08A64;}
	.st241{fill:#1C5A4B;}
	.st242{fill:#4DAE93;}
	.st243{fill:#917357;}
	.st244{fill:#3A8A74;}
	.st245{fill:#AF9465;}
	.st246{fill:#85876F;}
	.st247{fill:#255F54;}
	.st248{fill:#8AB7B2;}
	.st249{fill:#4DA597;}
	.st250{fill:#4CAE92;}
	.st251{fill:#BFD9D8;}
	.st252{fill:#15384D;}
	.st253{fill:#4AB28A;}
	.st254{fill:#0D6868;}
	.st255{fill:#1E6159;}
	.st256{fill:#0C1B1A;}
	.st257{fill:#15384C;}
	.st258{fill:#1B141E;}
	.st259{fill:#49B189;}
	.st260{fill:#0B6B69;}
	.st261{fill:#1A5B55;}
	.st262{fill:#269268;}
	.st263{fill:#1C624C;}
	.st264{fill:#31625C;}
	.st265{fill:#537E7D;}
	.st266{fill:#385B63;}
	.st267{fill:#689591;}
	.st268{fill:#136A59;}
	.st269{fill:#193C40;}
	.st270{fill:#9E8460;}
	.st271{fill:#4F6761;}
	.st272{fill:#4B7A77;}
	.st273{fill:#5D878B;}
	.st274{fill:#33685F;}
	.st275{fill:#518C7D;}
	.st276{fill:#88ACB0;}
	.st277{fill:#749B9E;}
	.st278{fill:#628C8D;}
	.st279{fill:#609675;}
	.st280{fill:#8CBDB3;}
	.st281{fill:#36B07A;}
	.st282{fill:#56B48E;}
	.st283{fill:#65A995;}
	.st284{fill:#8CB5B0;}
	.st285{fill:#509886;}
	.st286{fill:#32806B;}
	.st287{fill:#486552;}
	.st288{fill:#1F4D47;}
	.st289{fill:#568856;}
	.st290{fill:#27715E;}
	.st291{fill:#475D4A;}
	.st292{fill:#AD9876;}
	.st293{fill:#3E7A6B;}
	.st294{fill:#35A878;}
	.st295{fill:#486551;}
	.st296{fill:#729695;}
	.st297{fill:#4B9A84;}
	.st298{fill:#568E59;}
	.st299{fill:#5E8984;}
	.st300{fill:#519987;}
	.st301{fill:#317C68;}
	.st302{fill:#1E4D47;}
	.st303{fill:#568957;}
	.st304{fill:#445948;}
	.st305{fill:#297863;}
	.st306{fill:#AD9875;}
	.st307{fill:#3E7B6B;}
	.st308{fill:#50897B;}
	.st309{fill:#769A98;}
	.st310{fill:#4A9983;}
	.st311{fill:#5E8783;}
	.st312{fill:#057970;}
	.st313{fill:#498878;}
	.st314{fill:#32675E;}
	.st315{fill:#378077;}
	.st316{fill:#114452;}
	.st317{fill:#5CB19D;}
	.st318{fill:#356667;}
	.st319{fill:#90B5AF;}
	.st320{fill:#067B6F;}
	.st321{fill:#3B9984;}
	.st322{fill:#32665D;}
	.st323{fill:#51907F;}
	.st324{fill:#2D6E6A;}
	.st325{fill:#3A6C6C;}
	.st326{fill:#348478;}
	.st327{fill:#94BAB3;}
	.st328{fill:#478174;}
	.st329{fill:#339A7A;}
	.st330{fill:#A38B64;}
	.st331{fill:#205448;}
	.st332{fill:#256353;}
	.st333{fill:#55915C;}
	.st334{fill:#AD9364;}
	.st335{fill:#105659;}
	.st336{fill:#056A67;}
	.st337{fill:#1B4C49;}
	.st338{fill:#437D69;}
	.st339{fill:#113E4E;}
	.st340{fill:#227D60;}
	.st341{fill:#38695A;}
	.st342{fill:#2CA86F;}
	.st343{fill:#105558;}
	.st344{fill:#427D68;}
	.st345{fill:#113D4E;}
	.st346{fill:#12474F;}
	.st347{fill:#217B5E;}
	.st348{fill:#38695B;}
	.st349{fill:#1C1621;}
	.st350{fill:#074E5F;}
	.st351{fill:#195F54;}
	.st352{fill:#084C5E;}
	.st353{fill:#1A876D;}
	.st354{fill:#2C6462;}
	.st355{fill:#45887E;}
	.st356{fill:#0F4D59;}
	.st357{fill:#88B5AD;}
	.st358{fill:#2B6261;}
	.st359{fill:#45877D;}
	.st360{fill:#114E59;}
	.st361{fill:#3E7A73;}
	.st362{fill:#94BDB6;}
	.st363{fill:#336657;}
	.st364{fill:#164B3C;}
	.st365{fill:#185743;}
	.st366{fill:#165158;}
	.st367{fill:#43A783;}
	.st368{fill:#016A68;}
	.st369{fill:#336560;}
	.st370{fill:#016968;}
	.st371{fill:#66938E;}
	.st372{fill:#BED8D4;}
	.st373{fill:#376B62;}
	.st374{fill:#2E5D58;}
	.st375{fill:#191721;}
	.st376{fill:#4B7678;}
	.st377{fill:#6A9791;}
	.st378{fill:#1A2E41;}
	.st379{fill:#2D9275;}
	.st380{fill:#193C3F;}
	.st381{fill:#406B5E;}
	.st382{fill:#538167;}
	.st383{fill:#195E48;}
	.st384{fill:#176C56;}
	.st385{fill:#17574C;}
	.st386{fill:#A0845F;}
	.st387{fill:#506962;}
	.st388{fill:#A6724A;}
	.st389{fill:#65998F;}
	.st390{fill:#6D9995;}
	.st391{fill:#5A8788;}
	.st392{fill:#1E8B6B;}
	.st393{fill:#234C47;}
	.st394{fill:#5D928A;}
	.st395{fill:#4A7278;}
	.st396{fill:#70999B;}
	.st397{fill:#246864;}
	.st398{fill:#1B6B56;}
	.st399{fill:#255E54;}
	.st400{fill:#2C9D7C;}
	.st401{fill:#459C8F;}
	.st402{fill:#B1C7CB;}
	.st403{fill:#A6C2C4;}
	.st404{fill:#9CBFB7;}
	.st405{fill:#837F6C;}
	.st406{fill:#AF6F3F;}
	.st407{fill:#A1C7BE;}
	.st408{fill:#B57649;}
	.st409{fill:#236763;}
	.st410{fill:#1B6854;}
	.st411{fill:#85ABAE;}
	.st412{fill:#A4C0C2;}
	.st413{fill:#9DC0B7;}
	.st414{fill:#817F6C;}
	.st415{fill:#B9713D;}
	.st416{fill:#A3CAC0;}
	.st417{fill:#B2774C;}
	.st418{fill:#146B5A;}
	.st419{fill:#1A584B;}
	.st420{fill:#A3825D;}
	.st421{fill:#406A5E;}
	.st422{fill:#88B6B1;}
	.st423{fill:#49B4A0;}
	.st424{fill:#329477;}
	.st425{fill:#277560;}
	.st426{fill:#51854E;}
	.st427{fill:#327061;}
	.st428{fill:#191621;}
	.st429{fill:#1E4E44;}
	.st430{fill:#1D1822;}
	.st431{fill:#5FB69C;}
	.st432{fill:#CEDEDE;}
	.st433{fill:#1A6049;}
	.st434{fill:#557E55;}
	.st435{fill:#87B5AF;}
	.st436{fill:#35977C;}
	.st437{fill:#6C9793;}
	.st438{fill:#18574C;}
	.st439{fill:#AE764B;}
	.st440{fill:#0E505D;}
	.st441{fill:#202334;}
	.st442{fill:#1E5F4F;}
	.st443{fill:#1B2B3B;}
	.st444{fill:#0E4F5C;}
	.st445{fill:#436E60;}
	.st446{fill:#356961;}
	.st447{fill:#3F6F6D;}
	.st448{fill:#86B1AC;}
	.st449{fill:#4B7479;}
	.st450{fill:#5B8C85;}
	.st451{fill:#2F5E59;}
	.st452{fill:#79A59E;}
	.st453{fill:#4D787C;}
	.st454{fill:#89B9AF;}
	.st455{fill:#497378;}
	.st456{fill:#184340;}
	.st457{fill:#56827B;}
	.st458{fill:#17554A;}
	.st459{fill:#AC8D61;}
	.st460{fill:#87B2AA;}
	.st461{fill:#211C2A;}
	.st462{fill:#407263;}
	.st463{fill:#6A9B96;}
	.st464{fill:#94BBB7;}
	.st465{fill:#99C8BD;}
	.st466{fill:#1D1621;}
	.st467{fill:#1B5343;}
	.st468{fill:#238A63;}
	.st469{fill:#628D8D;}
	.st470{fill:#B4D2CE;}
	.st471{fill:#8DBDB2;}
	.st472{fill:#497277;}
	.st473{fill:#3C696C;}
	.st474{fill:#22202D;}
	.st475{fill:#4B7579;}
	.st476{fill:#1B876D;}
	.st477{fill:#94C2B8;}
	.st478{fill:#4C7779;}
	.st479{fill:#8EB1AE;}
	.st480{fill:#9EBEBA;}
	.st481{fill:#9BCBBF;}
	.st482{fill:#237B60;}
	.st483{fill:#55BD8F;}
	.st484{fill:#1A5142;}
	.st485{fill:#175157;}
	.st486{fill:#2A7E67;}
	.st487{fill:#426E71;}
	.st488{fill:#4F797C;}
	.st489{fill:#91B4B1;}
	.st490{fill:#99CABD;}
	.st491{fill:#9DBCB9;}
	.st492{fill:#346960;}
	.st493{fill:#537E77;}
	.st494{fill:#55BB8E;}
	.st495{fill:#52AF8A;}
	.st496{fill:#297C65;}
	.st497{fill:#48AA8E;}
	.st498{fill:#1A5649;}
	.st499{fill:#547F78;}
	.st500{fill:#A7855E;}
	.st501{fill:#26745F;}
	.st502{fill:#3C9E86;}
	.st503{fill:#219F89;}
	.st504{fill:#213F47;}
	.st505{fill:#90B8B0;}
	.st506{fill:#0B907C;}
	.st507{fill:#6A9C93;}
	.st508{fill:#61938A;}
	.st509{fill:#4BA68B;}
	.st510{fill:#234D47;}
	.st511{fill:#26735E;}
	.st512{fill:#3E9F85;}
	.st513{fill:#21A08A;}
	.st514{fill:#5CAE9B;}
	.st515{fill:#214149;}
	.st516{fill:#90B9B0;}
	.st517{fill:#0B907B;}
	.st518{fill:#3B9179;}
	.st519{fill:#4AA58A;}
	.st520{fill:#329478;}
	.st521{fill:#277660;}
	.st522{fill:#547D55;}
	.st523{fill:#17444D;}
	.st524{fill:#0B7568;}
	.st525{fill:#284B45;}
	.st526{fill:#2E5A4D;}
	.st527{fill:#185542;}
	.st528{fill:#17434C;}
	.st529{fill:#0B7669;}
	.st530{fill:#319378;}
	.st531{fill:#366A5B;}
	.st532{fill:#284C46;}
	.st533{fill:#05726C;}
	.st534{fill:#3B9E84;}
	.st535{fill:#1F6051;}
	.st536{fill:#A36A3C;}
	.st537{fill:#1E8C6C;}
	.st538{fill:#568880;}
	.st539{fill:#437370;}
	.st540{fill:#1C4640;}
	.st541{fill:#31575D;}
	.st542{fill:#257861;}
	.st543{fill:#2A5952;}
	.st544{fill:#429E84;}
	.st545{fill:#244244;}
	.st546{fill:#73AC9D;}
	.st547{fill:#34957A;}
	.st548{fill:#202233;}
	.st549{fill:#5A8D85;}
	.st550{fill:#557E83;}
	.st551{fill:#6B9693;}
	.st552{fill:#2B9C7B;}
	.st553{fill:#436D71;}
	.st554{fill:#154C53;}
	.st555{fill:#2C5B56;}
	.st556{fill:#48AC8F;}
	.st557{fill:#1CD568;}
	.st558{fill:#E1EAE8;}
	.st559{fill:#6C9894;}
	.st560{fill:#5A8687;}
	.st561{fill:#25A186;}
	.st562{fill:#427170;}
	.st563{fill:#578B4B;}
	.st564{fill:#287B64;}
	.st565{fill:#2D5057;}
	.st566{fill:#B2CECB;}
	.st567{fill:#175449;}
	.st568{fill:#608A8A;}
	.st569{fill:#66A192;}
	.st570{fill:#3B8981;}
	.st571{fill:#2F6E6C;}
	.st572{fill:#18323E;}
	.st573{fill:#10545A;}
	.st574{fill:#184A43;}
	.st575{fill:#179973;}
	.st576{fill:#1A5E4F;}
	.st577{fill:#339679;}
	.st578{fill:#166853;}
	.st579{fill:#248167;}
	.st580{fill:#236051;}
	.st581{fill:#BD8958;}
	.st582{fill:#7B7967;}
	.st583{fill:#177460;}
	.st584{fill:#3F9288;}
	.st585{fill:#256A58;}
	.st586{fill:#5E9978;}
	.st587{fill:#28474F;}
	.st588{fill:#239065;}
	.st589{fill:#609774;}
	.st590{fill:#5B8488;}
	.st591{fill:#04716B;}
	.st592{fill:#2D856E;}
	.st593{fill:#206552;}
	.st594{fill:#447058;}
	.st595{fill:#A2693B;}
	.st596{fill:#1A141E;}
	.st597{fill:#17423F;}
	.st598{fill:#10585B;}
	.st599{fill:#5A8985;}
	.st600{fill:#9BC0BA;}
	.st601{fill:#1B1622;}
	.st602{fill:#38BA7B;}
	.st603{fill:#77ADA2;}
	.st604{fill:#32A596;}
	.st605{fill:#3B6D68;}
	.st606{fill:#319276;}
	.st607{fill:#206353;}
	.st608{fill:#18303D;}
	.st609{fill:#33A596;}
	.st610{fill:#84AEA9;}
	.st611{fill:#8FBFB5;}
	.st612{fill:#38AE7A;}
	.st613{fill:#2E5E58;}
	.st614{fill:#A78E68;}
	.st615{fill:#88B2AA;}
	.st616{fill:#66AC97;}
	.st617{fill:#327973;}
	.st618{fill:#09756F;}
	.st619{fill:#5B8987;}
	.st620{fill:#3D968C;}
	.st621{fill:#C28955;}
	.st622{fill:#1D4943;}
	.st623{fill:#439E84;}
	.st624{fill:#157460;}
	.st625{fill:#3EA093;}
	.st626{fill:#3C6D68;}
	.st627{fill:#3D8873;}
	.st628{fill:#34574D;}
	.st629{fill:#3D9187;}
	.st630{fill:#377272;}
	.st631{fill:#5D9573;}
	.st632{fill:#2E5E62;}
	.st633{fill:#258369;}
	.st634{fill:#184B44;}
	.st635{fill:#15464E;}
	.st636{fill:#1A5F50;}
	.st637{fill:#166652;}
	.st638{fill:#34A785;}
	.st639{fill:#BE8A58;}
	.st640{fill:#787766;}
	.st641{fill:#A56839;}
	.st642{fill:#36594F;}
	.st643{fill:#A3693A;}
	.st644{fill:#1A5041;}
	.st645{fill:#228861;}
	.st646{fill:#3C8873;}
	.st647{fill:#238E64;}
	.st648{fill:#5B9550;}
	.st649{fill:#598F69;}
	.st650{fill:#588D4A;}
	.st651{fill:#5A9747;}
	.st652{fill:#D3995E;}
	.st653{fill:#5A856B;}
	.st654{fill:#557254;}
	.st655{fill:#BE9268;}
	.st656{fill:#A27F64;}
	.st657{fill:#57A34E;}
	.st658{fill:#4C7A51;}
	.st659{fill:#785B4B;}
	.st660{fill:#4F7549;}
	.st661{fill:#5F8752;}
	.st662{fill:#517A4C;}
	.st663{fill:#D78847;}
	.st664{fill:#A78268;}
	.st665{fill:#58925E;}
	.st666{fill:#BE965F;}
	.st667{fill:#68A34A;}
	.st668{fill:#B3946C;}
	.st669{fill:#D8A869;}
	.st670{fill:#568C66;}
	.st671{fill:#537B64;}
	.st672{fill:#5A9267;}
	.st673{fill:#50965A;}
	.st674{fill:#4F816D;}
	.st675{fill:#57765E;}
	.st676{fill:#BBB384;}
	.st677{fill:#6F746B;}
	.st678{fill:#557B50;}
	.st679{fill:#57874C;}
	.st680{fill:#5A9E4B;}
	.st681{fill:#5E8D51;}
	.st682{fill:#66944E;}
	.st683{fill:#5A9650;}
	.st684{fill:#538E54;}
	.st685{fill:#4A6558;}
	.st686{fill:#539154;}
	.st687{fill:#30AE71;}
	.st688{fill:#35AA76;}
	.st689{fill:#2D9F70;}
	.st690{fill:#35A879;}
	.st691{fill:#22765D;}
	.st692{fill:#339F78;}
	.st693{fill:#2E9170;}
	.st694{fill:#28A06E;}
	.st695{fill:#183431;}
	.st696{fill:#46BD84;}
	.st697{fill:#2C8569;}
	.st698{fill:#141C21;}
	.st699{fill:#1A4E40;}
	.st700{fill:#217257;}
	.st701{fill:#31A176;}
	.st702{fill:#2EB770;}
	.st703{fill:#2A9A6F;}
	.st704{fill:#3AB379;}
	.st705{fill:#27BB6C;}
	.st706{fill:#44BA7D;}
	.st707{fill:#2DAF74;}
	.st708{fill:#25B86E;}
	.st709{fill:#44BF80;}
	.st710{fill:#1B634D;}
	.st711{fill:#174B3D;}
	.st712{fill:#277F63;}
	.st713{fill:#1E5F4C;}
	.st714{fill:#52CD91;}
	.st715{fill:#40AD82;}
	.st716{fill:#0F7454;}
	.st717{fill:#142524;}
	.st718{fill:#309672;}
	.st719{fill:#2CBD71;}
	.st720{fill:#238666;}
	.st721{fill:#6CA356;}
	.st722{fill:#2EA770;}
	.st723{fill:#24B869;}
	.st724{fill:#11C75B;}
	.st725{fill:#568D4C;}
	.st726{fill:#C89058;}
</style>
<g id="bg">
	<image class="bg" x="0" y="0" width="100%" height="100%" xlink:href="tree-bg.png" />
</g>
<g id="sg2">
	<g id="图层_3">
		<g id="XMLID_2_">
			<path id="XMLID_84_" class="st648" d="M292.3,228.1c0.8-1.8,0.5-3.7,0.6-5.5c0.5-7.4,0.8-14.8,1.2-22.3c0-0.4,0.1-0.8,0.2-1.2
				c0.1,0,0.1,0.2,0.2,0.3c0.1,0.1,0.1,0.1,0.1-0.1c0.1-2.8,0.3-5.5,0.3-8.3c0-0.3,0-0.6,0.2-0.8c1.2,0.4,0.5,1.4,0.8,2
				c0.3-0.2,0.5-1,1.2-0.4c0.7,1.2,0.6,2.3,0.3,3.6c-0.5,2-0.8,4.1-1.3,6.1c-0.5,1.8,0.2,3.5,0.6,5.3c-0.1,2.3-0.5,4.5-0.9,6.7
				c-0.7,3.5-0.3,7.1-0.5,10.7c-0.1,1.1,0,2.1,0.4,3.3c1-0.9,2.1-1.6,2.7-2.7c0.3-1.3,0.9-2.4,2-3.2c0.6-0.5,0.9-1.2,1.2-1.9
				c0.2-0.5,0.3-1.2,1.1-1.1c0,2.3,0,4.5,0,6.8c-0.4,1.3-0.4,2.7-0.3,4c0.1,1.9-0.1,3.6-1.4,5.1c-1.2,1.2-2.6,2.1-4.3,2.6
				c-0.6,0.2-1.3,0.3-1.8-0.2c-1.5-1.4-1.8-3.3-2.5-5C292.3,230.5,292.3,229.3,292.3,228.1z"/>
			<path id="XMLID_83_" class="st649" d="M292.3,231.7c1.3,1.4,1.7,3.4,2.5,5c-1.5-0.2-1.8-1.6-2.5-2.5
				C292.3,233.4,292.3,232.6,292.3,231.7z"/>
			<path id="XMLID_82_" class="st650" d="M296.2,206.7c-0.9-2.5-0.8-4.8-0.1-7.4c0.7-2.4,1.7-4.9,0.8-7.6c-0.8-2.8-0.3-5.6,0-8.4
				c0.5-4.2,1-8.5,1.8-12.7c0.4-2.6,0.1-5.2,0.6-7.8c0-0.7,0-1.5,0.1-2.2c0.8-3.3,0.6-6.6,0.5-9.9c0-0.2,0-0.4,0.1-0.6
				c1.4-0.7,2.3-0.1,2.1,1.4c-0.6,4.7,0,9.4-0.2,14.1c-0.1,3.5,0,7.1-1,10.6c-0.5,1.7,0,3.4,0.2,5.1c0.1,1.3,0.3,2.6,0.2,3.9
				c-0.1,0.2,0.4,0.2,0.1,0.1c0,0,0-0.1,0-0.2c0.1-0.3,0.2-0.7,0.7-0.7c0.7,2.4,0,4.7-0.2,7.1c-0.6,2.3,0.1,4.6,0,7
				c0,1.2,0.1,2.5,0.1,3.7c0,0.2-0.1,0,0,0.2c0.2,0.2,0.1-0.2,0.2-0.2c0.5,2.9,0.2,5.9,0.3,8.9c0.1,2.4,0,4.9,0,7.3
				c-0.6,0.2-0.7,0.7-0.7,1.3c0,0.7-0.4,1.3-0.9,1.7c-1.3,0.9-2,2-2.3,3.5c-1-1.6-0.7-3.5-0.5-5.2c0.4-3.9,0.2-7.7,0.3-11.6
				c0.3-1.7,0.1-3.4-0.1-5.1c-0.2-1.8-0.2-3.5,0.2-5.3c0.4-1.8-0.2-3.6-0.3-5.5c-0.1,2.7-1.3,5.4-0.3,8.3c0.6,1.8,0.2,3.6-0.1,5.4
				C297.6,206.7,296.9,206.7,296.2,206.7z"/>
			<path id="XMLID_81_" class="st651" d="M302.2,184.6c-0.7,0.6,0.3,2.4-1,2.2c-1-0.1-0.2-1.6-0.3-2.4c-0.3-2.2-0.3-4.4-0.7-6.5
				c-0.2-1.2,0.6-2,0.7-3.1c0.5-4.2,0.6-8.3,0.6-12.5c0-2.6,0.1-5.3-0.2-7.9c-0.1-0.9,0.3-1.7,0.5-2.6c0.3-1.3-0.1-1.7-1.6-1.5
				c-0.3-0.4-0.2-0.7,0.2-0.9c1.3-0.5,2.2,0.8,3.4,0.9c0.2,8.6,0.3,17.2-0.7,25.8C302.7,178.9,301.8,181.7,302.2,184.6z"/>
			<path id="XMLID_80_" class="st652" d="M303.7,150.3c-0.6,0.3-1.2,0.5-1.7-0.1c-0.4-0.5-0.9-0.7-1.5-0.6c-0.8-0.2-1.5-0.6-1.7-1.5
				c0-0.4-0.1-0.9,0.1-1.3c0.1-0.1,0.2-0.2,0.3-0.2c0.7,0,1.3,0.3,1.7-0.7c0.5-1.1-0.8-1-0.9-1.6c0.3-0.8,0.9-0.9,1.5-0.5
				c1.1,0.3,1.9,0.9,2.5,1.8c0.7,0.9,1.3,1.8,1.8,2.9C305.1,149,304.2,149.4,303.7,150.3z"/>
			<path id="XMLID_79_" class="st653" d="M300.9,234.4c1.6-2.8,0.4-6.2,1.7-9.1c0,2.3,0,4.6,0,6.9
				C302.7,233.3,301.7,233.8,300.9,234.4z"/>
			<path id="XMLID_78_" class="st654" d="M302.4,202.3c-0.2,0.5,0.1,1.1-0.4,1.6c0-3.8-0.6-7.5-0.4-11.2c0-0.4,0-0.8,0.4-1.1
				C302.1,195.2,302.2,198.8,302.4,202.3z"/>
			<path id="XMLID_77_" class="st655" d="M301.6,143.8c-0.6,0-1.2,0.1-1.4,0.7c-0.2,0.5-0.5,1-1.2,0.6c-0.3-0.5-0.3-1.1-0.2-1.6
				c0.1-0.2,0.2-0.3,0.3-0.5c-0.1-0.1-0.1-0.1,0-0.2C300,143.1,300.9,143.1,301.6,143.8z"/>
			<path id="XMLID_76_" class="st656" d="M305.9,148.5c-0.8-0.8-1.4-1.8-1.8-2.9C304.9,146.4,306,147.1,305.9,148.5z"/>
			<path id="XMLID_75_" class="st657" d="M299.1,148c0.2,0.7,1,1,1.4,1.5c-0.3,0.2-0.3,0.4-0.3,0.7c0,0.1,0,0.2,0,0.4
				c-0.1,3.3,0.6,6.7-0.4,10c0,0.7,0,1.4,0,2.1c-0.7,1.9-0.5,3.9-0.5,5.9c0,0.6,0.2,1.3-0.2,1.9c-0.4,3.2-0.8,6.4-1.2,9.6
				c-0.4,3.3-0.9,6.6-0.7,9.9c0,0.6-0.2,1-0.2,1.5c-1.1,0.4-0.4,1.6-1.2,2.6c-0.4-1.5-0.2-2.8-0.3-4c-0.4-0.5-0.4-1.1-0.3-1.7
				c0.6-4.6,0.3-9.3,1.6-13.7c0.3-1,0.1-2.1,0.1-3.2c0.1-3.8-0.2-7.6,0.5-11.4c0.1-0.5,0.1-0.9-0.1-1.4c0.3-3.6,0.7-7.2,1-10.8
				c0.1-0.1,0.2-0.2,0.3-0.2C298.9,147.9,299,148,299.1,148z"/>
			<path id="XMLID_74_" class="st658" d="M297.4,158.8c0.5,0.5,0.4,1.2,0.3,1.7c-0.7,3.8-0.4,7.6-0.3,11.4c0.1,2.9-0.9,5.6-1.2,8.4
				c-0.3,3.3-0.4,6.6-0.7,9.9c-0.6,0.5-0.3,1.2-0.3,1.9c0.1,2.8-0.1,5.7-0.5,8.5c-0.4-0.4-0.1-1-0.3-1.5c0.3-7.1,0.4-14.3,1.6-21.3
				c0.6-3.7,0.7-7.4,0.6-11.2C296.5,164,297.1,161.4,297.4,158.8z"/>
			<path id="XMLID_73_" class="st659" d="M298.8,148c-0.1,0-0.2,0.1-0.4,0.1c-0.1-1.2-0.3-2.4-0.4-3.7c0-0.7-0.1-1.5,1.1-1.3
				c0,0.1,0,0.2,0,0.3C298.6,145,299.4,146.5,298.8,148z"/>
			<path id="XMLID_72_" class="st660" d="M299.1,207.8c0.3,5.7-0.5,11.4-0.4,17.1c-0.5,1.5-2.2,1.9-2.9,3.3
				c-0.2,0.4-0.6,0.1-0.7-0.3c-0.1-1.1-0.3-2.2-0.4-3.3c0.4-0.7,0.1-1.4,0.2-2.1c0-0.5,0-1.1,0.6-1.1c1.4,0,1.2-1,1.2-1.9
				c0-3,0-5.9,0.1-8.9c0-0.9,0.1-1.8,0.6-2.6C297.9,207.5,298.5,207.3,299.1,207.8z"/>
			<path id="XMLID_71_" class="st661" d="M297.7,208.1c-0.5,4-0.3,8-0.4,12c0,1.6,0,1.6-1.6,1.5c-0.5,0-0.5,0.4-0.6,0.7
				c-0.2,0.7,0.3,1.6-0.4,2.2c0.1-3.7-0.4-7.3,0.4-11c0.5-2.3,0.9-4.6,1.1-6.9c0.4-0.4,0.8-0.9,1.4-0.4
				C298.8,206.9,297.9,207.5,297.7,208.1z"/>
			<path id="XMLID_70_" class="st662" d="M297.7,208.1c-0.3-0.6,0.6-1.2,0-1.8c0.2-2.8,0-5.4-0.5-8.2c-0.4-2.2,0.7-4.5,0.6-6.8
				c0-0.3,0.2-0.5,0.6-0.5c0.3,0,0.3,0.3,0.4,0.5c0.2,0.6,0.4,1.1,0.3,1.7c-0.3,2.1,0.6,4.2-0.3,6.4c-0.7,1.7,0.1,3.6,0.3,5.4
				c0.1,1,0.1,2-0.1,2.9C298.6,207.7,298.1,207.9,297.7,208.1z"/>
			<path id="XMLID_69_" class="st651" d="M299.8,160.6c0.8-3.3-0.4-6.7,0.4-10c0.7,2.5,0.4,5.1,0.2,7.7
				C300.3,159,300.5,160,299.8,160.6z"/>
			<path id="XMLID_68_" class="st651" d="M299.1,170.6c0-2,0-4,0-5.9c0-0.7,0.2-1.4,0.7-1.9C299.2,165.4,299.8,168.1,299.1,170.6z"
				/>
			<path id="XMLID_67_" class="st663" d="M299.1,145.2c0.4-0.2,0.7-0.5,1.1-0.7c0.5,0.1,1.5-0.2,1.5,0.5c-0.1,0.7-0.2,1.6-0.8,2.2
				c-0.7,0.6-1.1-0.3-1.7-0.5C298.8,146.2,298.8,145.7,299.1,145.2z"/>
			<path id="XMLID_66_" class="st664" d="M299.1,145.2c0,0.5,0,1,0,1.5c0,0.4,0,0.9,0,1.3h-0.2h-0.2c0.1-1.5-0.4-3.1,0.3-4.6
				C299.1,144.1,299.1,144.6,299.1,145.2z"/>
		</g>
	</g>
</g>
<g id="sg1">
	<g id="图层_3_1_">
		<g id="XMLID_151_">
			<path id="XMLID_183_" class="st648" d="M501.5,224.4c2.1-2.2,2.8-5.1,4-7.8c4.9-10.6,9.6-21.3,14.3-32c0.3-0.6,0.7-1.1,1-1.7
				c0.2,0.1,0.1,0.4,0.1,0.5c0.1,0.3,0.1,0.2,0.2,0c1.7-4,3.5-7.9,5.2-12c0.2-0.4,0.3-0.9,0.8-1.1c1.6,1.2-0.1,2.2,0,3.4
				c0.5-0.1,1.3-1.2,1.9,0.1c0.4,2.1-0.4,3.8-1.6,5.5c-1.9,2.6-3.5,5.5-5.4,8.1c-1.7,2.3-1.7,5.3-2.1,8c-1.4,3.3-3.2,6.3-5.1,9.3
				c-3.1,4.8-4.5,10.3-6.7,15.4c-0.7,1.5-1.2,3.1-1.2,5.1c2-0.7,3.9-1.1,5.5-2.5c1.2-1.7,2.6-3,4.7-3.6c1.2-0.3,2-1.2,2.8-2.2
				c0.5-0.7,1.1-1.6,2.2-0.9c-1.3,3.3-2.5,6.6-3.8,10c-1.3,1.7-2.1,3.7-2.7,5.7c-0.9,2.8-2.2,5.2-4.9,6.7c-2.5,1.2-5.1,1.6-7.8,1.3
				c-1-0.1-2-0.3-2.6-1.3c-1.4-2.8-0.7-5.8-0.8-8.8C500.2,227.9,500.9,226.2,501.5,224.4z"/>
			<path id="XMLID_182_" class="st649" d="M499.5,229.7c1.1,2.9,0.5,5.9,0.8,8.8c-2.1-1.1-1.7-3.3-2.2-5.1
				C498.6,232.1,499,230.9,499.5,229.7z"/>
			<path id="XMLID_181_" class="st650" d="M519.4,195.2c0.1-4.1,1.5-7.6,4-11c2.3-3.2,5.2-6.3,5.5-10.7c0.4-4.6,2.7-8.5,4.8-12.4
				c3.1-6,6.2-11.9,9.7-17.6c2.1-3.5,3.1-7.6,5.2-11.1c0.4-1.1,0.9-2.2,1.5-3.2c3.1-4.3,4.6-9.3,6.3-14.2c0.1-0.3,0.3-0.6,0.5-0.8
				c2.4-0.2,3.5,1.2,2.4,3.3c-3.5,6.6-5.4,13.8-8.2,20.7c-2.1,5.1-4,10.4-7.5,15c-1.7,2.2-1.9,5-2.6,7.6c-0.6,2-1.1,4-1.9,5.9
				c-0.3,0.2,0.4,0.5,0.1,0.2c0,0,0-0.1,0.2-0.2c0.4-0.4,0.7-0.9,1.4-0.7c-0.3,3.9-2.6,7-4.3,10.3c-2.2,3.1-2.5,6.9-3.9,10.3
				c-0.7,1.8-1.3,3.7-1.9,5.5c-0.1,0.4-0.2-0.1-0.1,0.2c0.1,0.4,0.2-0.3,0.4-0.1c-0.9,4.6-3,8.8-4.5,13.2c-1.3,3.6-2.8,7.1-4.1,10.7
				c-1,0-1.5,0.6-1.8,1.5c-0.3,1.1-1.3,1.7-2.2,1.9c-2.3,0.6-4.1,1.8-5.4,3.8c-0.6-3,1-5.5,2.2-7.9c2.7-5.5,4.6-11.2,7-16.8
				c1.4-2.4,2.1-5,2.8-7.6c0.7-2.7,1.6-5.2,3.2-7.7c1.6-2.4,1.8-5.4,2.7-8.2c-1.7,4-4.9,7.3-5.1,12c-0.1,3-1.7,5.5-3.2,8
				C521.4,195.9,520.4,195.6,519.4,195.2z"/>
			<path id="XMLID_180_" class="st651" d="M540.6,166c-1.4,0.5-0.8,3.7-2.8,2.7c-1.4-0.8,0.6-2.4,0.9-3.7c0.8-3.3,1.9-6.6,2.6-10
				c0.4-1.9,2-2.7,2.7-4.1c3-5.9,5.6-11.9,7.9-18.1c1.4-3.9,3.1-7.7,4.2-11.8c0.4-1.4,1.4-2.4,2.2-3.5c1.2-1.7,0.8-2.6-1.5-3.1
				c-0.2-0.7,0.1-1.1,0.8-1.2c2.2,0.1,2.7,2.5,4.4,3.2c-4.6,12.7-9.2,25.5-15.5,37.5C544.5,157.9,541.6,161.5,540.6,166z"/>
			<path id="XMLID_179_" class="st652" d="M562.1,116.4c-1,0.1-2,0.1-2.4-1.1c-0.3-0.9-1-1.5-1.9-1.7c-1.1-0.8-1.9-1.7-1.7-3.2
				c0.2-0.7,0.4-1.3,0.9-1.8c0.2-0.1,0.4-0.2,0.5-0.1c1,0.4,1.8,1.1,2.9,0c1.4-1.3-0.6-1.9-0.4-2.8c0.9-1.1,1.7-0.8,2.6,0.1
				c1.4,1,2.2,2.4,2.6,4c0.5,1.7,0.9,3.5,1,5.3C564.8,115.4,563.3,115.4,562.1,116.4z"/>
			<path id="XMLID_178_" class="st653" d="M510.7,238.4c4-3.3,4.1-8.9,7.7-12.4c-1.3,3.4-2.6,6.7-3.8,10.1
				C513.8,237.9,512.1,238,510.7,238.4z"/>
			<path id="XMLID_177_" class="st654" d="M530.8,192.2c-0.5,0.6-0.4,1.6-1.4,2.2c2.1-5.6,3.3-11.3,5.7-16.6
				c0.3-0.6,0.5-1.2,1.2-1.4C534.5,181.6,532.6,186.9,530.8,192.2z"/>
			<path id="XMLID_176_" class="st655" d="M562.6,105.8c-0.9-0.4-1.8-0.6-2.5,0.2c-0.6,0.7-1.3,1.3-2.2,0.3
				c-0.2-0.9,0.1-1.7,0.7-2.5c0.2-0.2,0.5-0.4,0.7-0.5c-0.1-0.1,0-0.2,0.1-0.3C560.6,103.9,562,104.3,562.6,105.8z"/>
			<path id="XMLID_175_" class="st656" d="M566.2,115.1c-0.8-1.7-1-3.5-1-5.3C566,111.5,567.3,113.1,566.2,115.1z"/>
			<path id="XMLID_174_" class="st657" d="M556.6,110.6c-0.1,1.2,0.9,2,1.2,3c-0.5,0.1-0.7,0.4-0.9,0.8c-0.1,0.2-0.1,0.4-0.2,0.5
				c-2,4.9-2.9,10.2-6.2,14.5c-0.4,1-0.8,2.1-1.2,3.1c-2.2,2.4-3,5.5-4.2,8.4c-0.4,0.9-0.5,2-1.3,2.7c-2.4,4.5-4.8,9-7.2,13.4
				c-2.5,4.6-5.1,9.2-6.6,14.2c-0.3,0.9-0.9,1.4-1.1,2.2c-1.8,0-1.5,2.1-3.2,3.2c0.2-2.5,1.3-4.2,1.9-6.1c-0.4-1,0-1.9,0.5-2.7
				c3.4-6.4,5.7-13.4,10.2-19.3c1-1.3,1.3-3.1,2-4.6c2.2-5.5,3.9-11.3,7.2-16.4c0.4-0.6,0.7-1.3,0.7-2.1c2.5-5.1,5-10.2,7.6-15.2
				c0.2-0.1,0.4-0.1,0.6-0.1C556.3,110.3,556.5,110.4,556.6,110.6z"/>
			<path id="XMLID_173_" class="st658" d="M548,125.5c0.4,1-0.1,1.9-0.6,2.7c-3.1,5.2-4.8,11-6.8,16.6c-1.5,4.3-4.5,7.7-6.5,11.7
				c-2.3,4.7-4.3,9.5-6.5,14.2c-1.1,0.5-1.2,1.6-1.5,2.5c-1.5,4.2-3.3,8.3-5.6,12.2c-0.3-0.9,0.4-1.6,0.4-2.4
				c4.5-10.3,8.6-20.8,14.3-30.5c3-5.1,5.2-10.5,7.2-16C543.8,132.6,546.1,129.1,548,125.5z"/>
			<path id="XMLID_172_" class="st659" d="M556.1,110.4c-0.2,0-0.4-0.1-0.5-0.1c0.5-1.9,0.9-3.8,1.5-5.6c0.3-1,0.8-2.3,2.3-1.3
				c-0.1,0.2-0.1,0.3-0.2,0.5C557.6,105.8,557.8,108.5,556.1,110.4z"/>
			<path id="XMLID_158_" class="st660" d="M523,198.3c-2.8,8.6-7.1,16.5-10.2,25c-1.6,1.9-4.3,1.6-6,3.2c-0.5,0.5-1-0.2-0.8-0.9
				c0.4-1.7,0.9-3.4,1.3-5.1c0.9-0.8,1-2,1.4-3c0.3-0.7,0.7-1.6,1.5-1.3c2.1,0.7,2.3-0.9,2.8-2.1c1.7-4.3,3.4-8.7,5.1-13
				c0.5-1.3,1.1-2.6,2.3-3.4C521.4,197.3,522.3,197.3,523,198.3z"/>
			<path id="XMLID_157_" class="st661" d="M520.7,198.1c-3,5.6-4.9,11.6-7.3,17.4c-0.9,2.3-0.9,2.3-3.2,1.3
				c-0.8-0.4-0.9,0.3-1.2,0.7c-0.6,1-0.5,2.4-1.8,3c2.2-5.3,3.6-11,6.7-15.9c2-3.1,3.9-6.2,5.4-9.6c0.8-0.4,1.7-0.8,2.3,0.3
				C523,197,521.3,197.3,520.7,198.1z"/>
			<path id="XMLID_156_" class="st662" d="M520.7,198.1c0-1,1.6-1.4,1-2.6c1.9-3.9,3-8,3.9-12.3c0.7-3.4,3.5-6.2,4.7-9.7
				c0.1-0.4,0.6-0.7,1.2-0.5c0.5,0.2,0.3,0.6,0.4,0.9c0,0.9,0,1.9-0.5,2.7c-1.6,3-1.5,6.5-4,9.3c-1.9,2.1-1.8,5.4-2.6,8.2
				c-0.4,1.5-1,2.9-1.7,4.3C522.2,198,521.4,198,520.7,198.1z"/>
			<path id="XMLID_155_" class="st651" d="M550.5,129.5c3-4.4,3.2-10,6.2-14.5c-0.4,4.1-2.3,7.7-4.1,11.4
				C552.1,127.4,551.9,128.9,550.5,129.5z"/>
			<path id="XMLID_154_" class="st651" d="M543.9,143.7c1.1-2.9,2.2-5.8,3.4-8.7c0.4-1,1.1-1.9,2.1-2.4
				C546.9,136,546.4,140.4,543.9,143.7z"/>
			<path id="XMLID_153_" class="st663" d="M558.2,106.4c0.7-0.1,1.3-0.3,2-0.4c0.8,0.4,2.3,0.6,1.9,1.5c-0.5,1-1.2,2.3-2.5,2.7
				s-1.5-1.1-2.2-1.7C557.2,107.7,557.5,107,558.2,106.4z"/>
			<path id="XMLID_152_" class="st664" d="M558.2,106.4c-0.3,0.7-0.6,1.5-0.8,2.2s-0.5,1.3-0.7,2l-0.3-0.1l-0.2-0.2
				c1.1-2.2,1.2-4.7,3-6.5C558.8,104.7,558.5,105.6,558.2,106.4z"/>
		</g>
	</g>
</g>
<g id="sg3">
	<g id="图层_2_1_">
		<g id="XMLID_4_">
			<path id="XMLID_171_" class="st665" d="M234.8,190.3c-0.7,0.1-1.4,0.3-2.1,0.4c-2,0-4,0.6-6,0.9c-0.6,0.1-1.3,0.1-1.9,0.3
				c-0.9-0.1-1.7-0.1-2.6-0.2c-0.5,0-1.1-0.1-1.4,0.5c-0.2,0-0.3,0-0.5,0c-0.4-0.4-1.6,0-1.1-1.2c1.3-0.9,2.8-0.8,4.2-0.8
				c3,0,5.9-0.9,8.9-1c0.8,0,1.6-0.1,2.3-0.1c0.4,0,0.8,0.1,0.9,0.5C235.7,190.2,234.9,189.9,234.8,190.3z"/>
			<path id="XMLID_170_" class="st666" d="M272.1,174.7c0.4,0,0.8,0,1.2,0c0.2,0.2,0.6,0.1,0.6,0.5c-0.2,1.2,0,2.3,1.2,3
				c0.1,0.3,0,0.5-0.2,0.6c-0.3,0.2-0.6,0.4-1,0.4c-0.6-0.4-1.2-0.9-1.4,0.3c0,0.2-0.2,0.4-0.5,0.4c-0.4,0-0.6-0.3-0.7-0.6
				c-0.2-0.8-0.1-1.6-0.1-2.4c0-0.3,0-0.5,0-0.8C271.3,175.5,271.3,174.8,272.1,174.7z"/>
			<path id="XMLID_169_" class="st667" d="M272.1,174.7c-0.6,0.4-0.5,0.9-0.5,1.5c-0.7-0.1-1.4,0-2,0.2c-1.1,0.4-2.2,0.2-3.3,0
				c-0.6-0.1-1.4,0.1-1.6-0.8c1.4-0.4,2.9-0.5,4.3-0.7c0.3,0,0.7,0.1,0.9-0.2C270.6,174.7,271.3,174.7,272.1,174.7z"/>
			<path id="XMLID_168_" class="st668" d="M275.1,178.1c-0.7,0.1-1.4-0.8-1.5-1.9c0-0.4,0.1-0.8,0.3-1.2c1.1-0.3,1.5,0.5,1.9,1.3
				c0.2,0.3,0.1,0.7,0.3,1c0,0.1,0,0.2,0,0.2C275.8,177.9,275.5,178.2,275.1,178.1z"/>
			<path id="XMLID_165_" class="st669" d="M275.1,178.1c0.3-0.3,0.5-0.6,1-0.5c0,0.2,0,0.5,0,0.7c-0.4,0.2-0.4,0.7-0.6,1
				c-0.7,0.2-0.9-0.1-0.7-0.7C275,178.5,275.1,178.3,275.1,178.1z"/>
			<path id="XMLID_164_" class="st670" d="M259.3,185.6c-2.7,0.7-5.5,1.2-8.2,1.7c-0.1-0.6,0.3-1,0.5-1.4c0.4-0.7,0.7-1.5,0.7-2.3
				c0.1-0.5,0.4-0.9,1-0.9c0.4,0,0.8-0.2,1.1-0.5c0.4-0.3,0.9-0.4,1.4-0.2c0.7,0.4,1.4,0.3,2.1,0.2s1.2-0.2,1.4-0.9
				c0.1-0.4,0.4-0.6,0.8-0.7c1.3-0.2,2.6-0.6,4-0.3c0.5,0.1,0.9,0,1.3-0.3c0.8-0.6,1.7-1,2.7-0.9c0.8,0.1,1-0.8,1.4-1.2
				c1.4-0.5,1.6-0.2,1.9,1.6c0.2,1.4,1.4,1.4,2.5,1.6c-1.3,1.3-3.1,1.8-4.8,2.3c-0.9,0.3-1.8,0.4-2.7,0.6
				C264,184.2,261.6,184.9,259.3,185.6z"/>
			<path id="XMLID_163_" class="st671" d="M219.1,191.3c-0.4-0.2-0.8-0.6-0.9-1c1.3-1.3,2.8-1.9,4.6-1.5c0.5,0.1,0.6-0.3,0.8-0.6
				c0.7-1.2,1.3-1.3,2.3-0.4c0.6,0.6,1.4,0.4,1.8,0c0.8-1.1,1.3-0.4,1.8,0.1c1.4,0.5,2.7,0.1,3.9-0.7c0.1-0.1,0.3-0.2,0.5-0.3
				c0.9-0.2,1.8-0.2,2.7-0.3c2.1-0.2,4-0.7,6-1.3c0.5-0.2,0.9,0,1.3,0.1c1.1,0.2,2.2,0.3,3.1-0.6c0.2-0.2,0.4-0.4,0.7-0.3
				c1.2,0.4,1.7-0.4,2.1-1.3c0-0.1,0.2-0.2,0.3-0.2c0.2,0,0.4,0,0.6,0.1c0.5,1.1,0,2-0.6,2.8c-0.3,0.4-0.6,0.7-0.8,1
				c-1.1,0.6-2.3,0.8-3.5,1c-2.6,0.5-5.2,1.1-7.9,1.5c-0.4,0.1-0.9,0.1-1.1,0.6c-0.6,0.1-1.3,0.2-1.9,0.3c-0.3-0.6,0.7-0.1,0.5-0.7
				c-1.8-0.4-3.7-0.1-5.5,0.3c-2.7,0.6-5.4,0.5-8.1,0.8C220.8,190.8,219.9,190.9,219.1,191.3z"/>
			<path id="XMLID_162_" class="st672" d="M236.7,190c-0.3-0.3-0.8-0.8,0.1-0.9c2.7-0.2,5.3-1,8-1.4c1.4-0.2,2.9-0.6,4.3-0.9
				c0.7-0.4,1.1,0,1.5,0.5c-3.7,0.9-7.4,1.5-11.1,2.2C238.6,189.7,237.6,189.8,236.7,190z"/>
			<path id="XMLID_161_" class="st673" d="M250.6,187.3c-0.6,0-0.9-0.7-1.5-0.5c0-0.3,0-0.6,0.2-0.8c1.2-0.7,1.1-1.8,1.3-2.9
				c-0.2-0.3,0-0.6,0.2-0.8c0.1-0.1,0.2-0.1,0.3-0.1c0.2,0,0.4,0.2,0.6,0.4c0.2,0.4,0.5,0.7,0.9,1c0.2,1.5-0.8,2.5-1.5,3.7
				C250.9,187.3,250.8,187.3,250.6,187.3z"/>
			<path id="XMLID_160_" class="st668" d="M273.9,181.1c-1.8,0.4-2.4,0.1-2.6-1.5c-0.2-0.6-0.1-1.3-0.2-1.9c-0.1-0.3,0-0.8,0.5-0.8
				c0,0.8,0,1.5,0,2.3c0,0.3,0.1,0.5,0.4,0.5c0.4,0,0.3-0.3,0.3-0.5s0.1-0.4,0.1-0.6c0.1-0.3,0.2-0.7,0.6-0.6c0.3,0,0.4,0.3,0.5,0.6
				s0.2,0.4,0.5,0.5c0.2,0.4-0.1,0.7-0.3,1c-0.6,0.6,0.1,0.6,0.3,0.8C274,180.9,274,181,273.9,181.1z"/>
			<path id="XMLID_159_" class="st674" d="M259.3,185.6c-0.1-0.1-0.4-0.2-0.3-0.2c2.5-0.5,4.8-1.8,7.4-1.4
				C264.1,184.7,261.7,185.2,259.3,185.6z"/>
			<path id="XMLID_113_" class="st675" d="M224.9,191.9c1.6-0.9,3.5-0.8,5.2-1.1c0.8-0.2,1.8-0.7,2.7-0.1
				C230.1,191.2,227.6,191.9,224.9,191.9z"/>
			<path id="XMLID_112_" class="st676" d="M274.1,180.9c-0.8,0.1-1-0.2-0.6-0.9c0.2-0.3,0.3-0.5,0.5-0.8c0.1-0.3,0.4-0.5,0.7-0.5
				c0,0.4,0.2,0.7,0.7,0.7c-0.1,0.2-0.2,0.4-0.3,0.5C274.6,180,274.4,180.5,274.1,180.9L274.1,180.9z"/>
			<path id="XMLID_111_" class="st677" d="M274.1,180.9c0.2-0.5,0.1-1.3,1.1-1C275,180.4,274.5,180.6,274.1,180.9z"/>
			<path id="XMLID_110_" class="st678" d="M250.8,182.3c-0.1,0.2-0.2,0.5-0.2,0.7c-0.2,0-0.3,0-0.5,0c-0.3-0.3-0.8-0.3-1.2-0.2
				c-1.6,0.3-3.3,0.4-4.8,1.2c-0.9,0.5-2.1,0.4-3.1,0.5c-2.6,0.2-4.9,1.1-7.3,2c-0.5,0.2,0.2,0.3,0.1,0.4c-0.1,0.1-0.2,0.2-0.3,0.2
				c-1.4,0.5-2.8,0.5-4.2,0.7c-0.5,0-0.7-0.4-0.8-0.8c-0.8,1.4-2.1,1.5-3.1,0.3c-0.1-0.2-0.3-0.6-0.5-0.3c-0.4,0.4-1.1,0.4-1.1,1.2
				c0,0.6-0.2,1-0.9,0.6c-0.4-0.3-0.8-0.6-1.3-0.6c-0.3,0-0.7,0.1-0.8-0.3c-0.2-0.4,0-0.8,0.3-1.1c0.3-0.3,0.6-0.4,0.9-0.7
				c-0.3-0.1-0.8,0.1-0.9-0.4c2-1.1,4.2-1.9,6.4-2.6c0.2,0.3,0.2,0.3-0.2,0.8c1-0.1,1.7-0.7,2.6-0.8c2.6,0.2,5-0.9,7.4-1.6
				c1.5-0.5,3.1-0.8,4.7-0.8c0.4,0,0.8,0,1.2-0.2c1.4-0.7,2.9-0.8,4.4-1.3s2.2,0,2.7,1.5C250.4,181.4,250.9,181.7,250.8,182.3z"/>
			<path id="XMLID_109_" class="st679" d="M250.8,182.3c-0.5-0.6-1-1.1-1-2c0-0.7-1.3-1.1-2.4-0.6c-1.5,0.7-3.1,0.8-4.6,1.3
				c-1,0.4-2.3,0.3-3.4,0.4c-1.6,0.2-2.9,0.9-4.4,1.3c-0.6,0.2-1.1,0.8-1.8,0.2l-0.2-0.1c-0.8,1.6-2.1,0.3-3.2,0.6
				c0.5-0.9,1.6-0.8,2.3-1.2c0.5-0.2,0.8-0.4,0.9-1c4.1-1.6,8.4-2.5,12.8-3c1.8-0.2,3.7-0.4,5.5-0.5c0.6,1.5,0.1,3-0.2,4.5
				C251,182.3,250.9,182.3,250.8,182.3z"/>
			<path id="XMLID_108_" class="st680" d="M251.1,182.3c-0.1-0.6-0.4-1.2,0.1-1.8c0.3-0.4,0.2-1,0-1.5c-0.2-0.4-0.1-0.8,0.1-1.2
				c4.5-0.5,8.9-1.4,13.3-2.2c0.4,0.5,1,0.3,1.5,0.5c-0.9,1.3-2.3,2-3.7,2.4c-1.6,0.5-3.2,0.9-4.8,0.8c-0.2,0-0.5-0.1-0.6,0.1
				c-1.1,1.5-2.4,0.9-3.8,0.5c-0.3,0.4-0.2,0.9-0.4,1.4c-0.3,0.5-0.4,1.3-1.3,1.2C251.4,182.5,251.2,182.4,251.1,182.3z"/>
			<path id="XMLID_107_" class="st681" d="M221.2,185.9c0.4,0.4,0.9,0,1.4,0.2c-0.2,0.6-0.7,0.7-1.2,1c-0.3,0.2-0.6,0.6-0.4,0.9
				c0.2,0.4,0.5,0.1,0.7,0c0.7,0,1.1,0.3,1.2,1c-1.3-0.1-2.7-0.3-3.7,0.9c-0.3,0.4-0.7-0.1-1,0.3c-0.5-0.4-0.2-1-0.3-1.5
				C218.6,187.3,219.8,186.5,221.2,185.9z"/>
			<path id="XMLID_106_" class="st682" d="M233,181.4c0.8,0.6,0.3,1-0.3,1.2c-1,0.2-1.9,0.8-2.9,1c-0.7,0.3-1.4,0.5-2,0.8
				c-0.4,0.2-0.8,0.4-1-0.1c-0.2-0.6,0.5-0.4,0.7-0.6c0.1-0.1,0.3-0.2,0.1-0.3C229.3,182.5,231.2,181.9,233,181.4z"/>
			<path id="XMLID_105_" class="st683" d="M252.6,181.3c0.1-0.6,0-1.4,0.3-1.8c0.7-0.8,0.8,0.8,1.4,0.6c0.8-0.2,2.1,0.8,2.3-0.9
				c0-0.4,0.4-0.2,0.7-0.2c2.4,0.1,4.8-0.2,6.8-1.6c0.6-0.4,1.4-0.6,2-1.2c1.5,0,3,0.3,4.4-0.4c0.5-0.2,0.7,0.2,1,0.4
				c0,0.2,0,0.5,0,0.7c-0.5,0.9-0.1,1.8-0.3,2.7c-0.1-0.2-0.2-0.4-0.2-0.5c0-1.1-0.5-1.4-1.5-0.9c-1.8,1-3.9,0.7-5.9,1.1
				c-2.2,0.5-4.6,0.6-6.7,1.5C255.6,181.3,254.1,181.3,252.6,181.3z"/>
			<path id="XMLID_104_" class="st684" d="M252.6,181.3c0.5-0.2,1-0.4,1.6-0.4c1.1,0,2.1-0.4,3.2-0.7c2.7-0.9,5.5-1.4,8.4-1.5
				c1.3,0,2.5-0.7,3.9-0.6c-0.3,1-0.8,1.6-2,1.3c-0.9-0.2-1.6,0.6-2.3,1c-0.4,0.3-0.8,0.3-1.3,0.2c-1.4-0.4-2.8,0.1-4.2,0.4
				c0,0-0.1,0-0.1,0.1c0,1.6-1.2,1.4-2.3,1.6c-0.6,0.1-1,0.1-1.4-0.2c-0.7-0.5-1.2-0.4-1.7,0.2c-0.2,0.2-0.4,0.5-0.8,0.3
				c-0.6-0.3-0.8,0.2-1,0.6c-0.7,0.1-1-0.3-1-1C252.1,182.3,252.3,181.8,252.6,181.3z"/>
			<path id="XMLID_103_" class="st673" d="M253.9,185.5c0,0.3-0.2,0.4-0.4,0.5c-0.5,0-0.7-0.2-0.7-0.7c0-0.2,0-0.5,0.3-0.4
				C253.5,184.9,253.7,185.3,253.9,185.5z"/>
			<path id="XMLID_102_" class="st685" d="M233.8,187c-0.2,0-0.5,0-0.7,0s-0.4-0.1-0.4-0.3c0-0.3,0.2-0.3,0.4-0.4
				c2.2-0.3,4.1-1.8,6.4-1.9c1.3-0.1,2.5-0.6,3.9-0.4c0.2,0,0.4,0,0.5,0c1.6-1.3,3.6-1.1,5.4-1.6c0.6-0.2,1-0.1,0.9,0.6
				c-0.3,0.2-0.3,0.5-0.4,0.8c-0.2,1-0.6,1.5-1.7,0.9c-0.2-0.1-0.5-0.2-0.7,0c-1.2,1.5-2.6,1.2-4.1,0.6c-0.1,0-0.3-0.1-0.4,0
				c-1.1,1-2.7,0.8-4,1.2C237.3,187,235.5,187.1,233.8,187z"/>
			<path id="XMLID_101_" class="st686" d="M229.3,188c1.3-0.8,2.8-0.8,4.2-0.7c0,0.3-0.1,0.6-0.3,0.6c-1.1,0.2-2.1,0.4-3.2,0.6
				C229.7,188.5,229.4,188.3,229.3,188z"/>
		</g>
	</g>
</g>
<g id="sg4">
	<g id="图层_2_2_">
		<g id="XMLID_124_">
			<path id="XMLID_150_" class="st665" d="M207.5,346.7c-1.1,0.7-2.1,1.4-3.2,2.2c-3.4,1.5-6.4,3.8-9.5,5.8c-1,0.6-2.2,1-3,1.9
				c-1.5,0.5-3,1-4.5,1.5c-0.9,0.3-1.8,0.7-2.1,1.8c-0.3,0.1-0.6,0.2-0.8,0.4c-1-0.3-2.7,1.1-2.8-1.3c1.5-2.4,4.2-3.3,6.5-4.3
				c5.2-2.1,9.4-5.7,14.4-8c1.3-0.6,2.5-1.3,3.9-1.7c0.6-0.2,1.4-0.5,1.9,0.2C208.9,346,207.4,346,207.5,346.7z"/>
			<path id="XMLID_149_" class="st666" d="M259.5,293.8c0.7-0.3,1.4-0.6,2.1-0.9c0.5,0.2,1.1-0.2,1.4,0.4c0.6,2.2,1.7,3.8,4.1,4.3
				c0.4,0.4,0.3,0.8,0.1,1.2c-0.4,0.5-0.7,1.1-1.4,1.4c-1.2-0.2-2.6-0.8-2.1,1.5c0.1,0.4-0.1,0.9-0.6,1.1c-0.7,0.2-1.2-0.1-1.6-0.6
				c-0.9-1.2-1.3-2.7-1.9-4.1c-0.2-0.4-0.4-0.9-0.6-1.3C258.7,295.7,258.3,294.6,259.5,293.8z"/>
			<path id="XMLID_148_" class="st667" d="M259.5,293.8c-0.7,1-0.2,1.9,0.2,2.9c-1.2,0.4-2.4,0.9-3.3,1.8c-1.6,1.4-3.6,1.9-5.6,2.4
				c-1.1,0.2-2.2,1.2-3.3-0.1c2.1-1.7,4.5-2.9,6.8-4.3c0.5-0.3,1.2-0.3,1.4-1C257,294.8,258.2,294.3,259.5,293.8z"/>
			<path id="XMLID_147_" class="st668" d="M267,297.5c-1.2,0.7-3-0.4-3.9-2.1c-0.3-0.7-0.4-1.4-0.4-2.2c1.7-1.3,2.9-0.2,4.2,0.8
				c0.5,0.4,0.6,1.2,1.2,1.6c0.1,0.1,0.1,0.3,0.2,0.4C268,296.6,267.9,297.4,267,297.5z"/>
			<path id="XMLID_144_" class="st669" d="M267,297.5c0.3-0.7,0.5-1.4,1.3-1.5c0.2,0.4,0.4,0.8,0.5,1.3c-0.5,0.6-0.1,1.4-0.3,2.1
				c-1.1,0.8-1.5,0.4-1.6-0.8C267.2,298.2,267.1,297.9,267,297.5z"/>
			<path id="XMLID_143_" class="st670" d="M245.6,321.4c-4.1,3.1-8.4,5.9-12.8,8.7c-0.6-0.9-0.2-1.9-0.1-2.8c0.2-1.5,0.1-3-0.4-4.4
				c-0.1-1,0.1-1.8,1.1-2.3c0.7-0.3,1.2-0.9,1.6-1.6c0.5-0.9,1.3-1.4,2.2-1.2c1.5,0.2,2.6-0.5,3.8-1.1c1.1-0.6,1.9-1.1,1.6-2.6
				c-0.2-0.7,0.2-1.3,0.8-1.7c2.1-1.4,4-3,6.6-3.4c0.9-0.2,1.5-0.7,1.9-1.4c1-1.5,2.1-2.9,4-3.4c1.5-0.4,1.1-2,1.6-3
				c2-1.7,2.6-1.6,4.3,1.4c1.4,2.3,3.4,1.4,5.3,0.9c-1.3,3.2-3.9,5.2-6.5,7.3c-1.3,1.1-2.8,2-4.2,3
				C252.5,315.7,249,318.5,245.6,321.4z"/>
			<path id="XMLID_142_" class="st671" d="M181.5,359.5c-0.9-0.1-1.7-0.4-2.3-1.1c1.3-3.1,3.3-5.2,6.7-5.8c0.9-0.2,0.8-0.9,0.9-1.6
				c0.3-2.5,1.3-3.2,3.6-2.3c1.5,0.5,2.7-0.3,3-1.3c0.6-2.4,1.9-1.6,3.2-1.1c2.8-0.2,4.7-1.7,6.2-4c0.1-0.3,0.3-0.6,0.6-0.9
				c1.3-1,2.9-1.6,4.4-2.4c3.4-1.8,6.4-4,9.2-6.5c0.7-0.6,1.5-0.6,2.3-0.8c2-0.5,4-1,4.9-3.2c0.2-0.4,0.5-0.9,0.9-1
				c2.4-0.2,2.6-1.8,2.6-3.7c0-0.2,0.2-0.4,0.4-0.6c0.3-0.2,0.6-0.3,1-0.3c1.6,1.5,1.4,3.3,1,5.1c-0.2,0.8-0.5,1.5-0.7,2.3
				c-1.4,1.8-3.4,3-5.2,4.2c-4.1,2.7-8.1,5.5-12.2,8.2c-0.7,0.4-1.5,0.8-1.5,1.8c-1,0.6-2,1.3-3,1.9c-1-0.8,1.2-0.7,0.3-1.5
				c-3.3,0.7-6.4,2.5-9.1,4.4c-4.2,2.9-8.9,4.7-13.2,7.2C184,357.6,182.6,358.3,181.5,359.5z"/>
			<path id="XMLID_141_" class="st672" d="M210.4,344.8c-0.8-0.3-2-0.7-0.5-1.5c4.5-2.3,8.3-5.5,12.5-8.1c2.3-1.4,4.4-3,6.6-4.5
				c0.9-1.2,1.9-0.8,3-0.2c-5.5,4.2-11.5,7.7-17.3,11.6C213.4,343,211.9,343.9,210.4,344.8z"/>
			<path id="XMLID_140_" class="st673" d="M232.1,330.4c-1,0.4-2-0.5-3,0.2c-0.2-0.5-0.5-1-0.2-1.5c1.5-2,0.6-3.9,0.1-5.9
				c-0.5-0.4-0.4-0.9-0.2-1.5c0.1-0.2,0.3-0.3,0.5-0.4c0.4-0.1,0.8,0,1.2,0.2c0.6,0.6,1.4,0.8,2.2,1.1c1.4,2.4,0.4,4.8,0.1,7.3
				C232.6,330.1,232.3,330.3,232.1,330.4z"/>
			<path id="XMLID_139_" class="st668" d="M267.1,303.4c-2.8,2-4,1.8-5.4-0.7c-0.8-0.9-1-2.1-1.8-3.1c-0.4-0.5-0.6-1.3,0.3-1.7
				c0.6,1.3,1.1,2.6,1.7,3.9c0.2,0.4,0.6,0.8,1,0.6c0.6-0.2,0.3-0.7,0.2-1.1c-0.1-0.4-0.2-0.7-0.2-1.1c0-0.6-0.1-1.3,0.6-1.5
				c0.6-0.2,0.9,0.3,1.3,0.7c0.3,0.4,0.7,0.5,1.2,0.6c0.6,0.6,0.4,1.3,0.2,1.8c-0.5,1.4,0.5,0.9,1.1,1.1
				C267.2,303,267.2,303.2,267.1,303.4z"/>
			<path id="XMLID_138_" class="st674" d="M245.6,321.4c-0.3,0-0.8-0.1-0.7-0.1c3.8-2.6,6.9-6.4,11.6-7.5
				C253,316.4,249.4,319,245.6,321.4z"/>
			<path id="XMLID_137_" class="st675" d="M191.7,356.6c2.1-2.6,5.3-3.8,8-5.6c1.3-0.9,2.6-2.4,4.5-2.1
				C200.2,351.6,196.3,354.6,191.7,356.6z"/>
			<path id="XMLID_136_" class="st676" d="M267.3,302.9c-1.4,0.7-1.9,0.4-1.6-1.2c0.1-0.6,0.2-1.2,0.3-1.8c0-0.6,0.3-1.1,0.9-1.4
				c0.3,0.7,0.9,1,1.6,0.8c-0.1,0.4-0.1,0.8-0.2,1.2C267.6,301.1,267.5,302,267.3,302.9L267.3,302.9z"/>
			<path id="XMLID_135_" class="st677" d="M267.3,302.9c0-1-0.7-2.3,1.1-2.4C268.5,301.5,267.8,302.1,267.3,302.9z"/>
			<path id="XMLID_134_" class="st678" d="M228.9,321.9c0,0.5,0.1,1,0.1,1.4c-0.3,0.1-0.6,0.2-0.8,0.3c-0.8-0.3-1.5,0-2.1,0.4
				c-2.6,1.7-5.3,3-7.3,5.5c-1.2,1.5-3.3,2.1-5,3c-4.2,2.2-7.6,5.4-10.9,8.6c-0.7,0.7,0.5,0.3,0.5,0.7c-0.1,0.2-0.2,0.4-0.3,0.6
				c-1.9,1.8-4.4,2.8-6.6,4.2c-0.9,0.4-1.4-0.2-2-0.7c-0.4,3-2.5,4.1-5,2.7c-0.4-0.2-0.9-0.7-1.1-0.2c-0.3,0.9-1.6,1.4-1,2.8
				c0.4,1,0.4,1.8-1.1,1.7c-0.9-0.3-1.7-0.5-2.6-0.1c-0.5,0.2-1.1,0.6-1.6,0c-0.6-0.6-0.5-1.4-0.2-2.1c0.2-0.6,0.7-1.2,1.1-1.8
				c-0.6,0-1.3,0.7-1.8-0.1c2.6-3.4,5.8-6.2,9-8.9c0.5,0.4,0.5,0.4,0.2,1.5c1.5-0.9,2.4-2.5,3.9-3.2c4.5-1.6,7.8-5,11.4-7.9
				c2.3-1.9,4.6-3.6,7.3-4.7c0.7-0.3,1.4-0.5,1.9-1.2c1.8-2.2,4.4-3.4,6.5-5.2c2.1-1.9,3.7-1.5,5.6,0.6
				C227.5,320.5,228.6,320.8,228.9,321.9z"/>
			<path id="XMLID_133_" class="st679" d="M228.9,321.9c-1.2-0.7-2.5-1.1-3.2-2.7c-0.5-1.2-3-0.9-4.5,0.8c-2,2.2-4.6,3.5-6.8,5.5
				c-1.4,1.3-3.6,2.1-5.5,3.1c-2.5,1.4-4.4,3.5-6.5,5.3c-0.9,0.7-1.3,2.2-2.9,1.6c-0.1,0-0.4,0-0.4,0.1c-0.3,3.2-3.4,2.1-5,3.3
				c0.2-1.9,2.1-2.5,3.1-3.7c0.6-0.8,1.1-1.3,0.8-2.3c5.8-5.7,12.4-10.2,19.5-14.1c3-1.6,6-3.2,9-4.8c2.2,2.2,2.3,5,2.8,7.8
				C229.2,321.7,229,321.8,228.9,321.9z"/>
			<path id="XMLID_132_" class="st680" d="M229.3,321.7c-0.7-0.9-1.5-1.7-1.1-3.2c0.3-0.9-0.3-1.9-1-2.6c-0.6-0.6-0.7-1.3-0.7-2
				c7.3-4,14-8.8,21-13.2c1,0.6,2-0.3,3-0.2c-0.6,2.9-2.5,5-4.6,6.7c-2.3,1.9-4.7,3.8-7.6,4.8c-0.4,0.1-0.8,0.2-0.9,0.6
				c-0.7,3.3-3.4,3.3-6,3.5c-0.2,0.9,0.3,1.7,0.3,2.6c-0.1,1.1,0.2,2.4-1.3,3C230,321.7,229.7,321.7,229.3,321.7z"/>
			<path id="XMLID_131_" class="st681" d="M181.2,348.9c1,0.4,1.6-0.6,2.5-0.7c0.2,1.2-0.8,1.8-1.2,2.6c-0.4,0.6-0.6,1.3,0,1.9
				s0.9-0.2,1.3-0.4c1.2-0.6,2-0.2,2.7,0.8c-2.3,0.8-4.8,1.4-5.6,4.2c-0.2,0.8-1.3,0.4-1.4,1.2c-1.1-0.4-1.1-1.5-1.5-2.3
				C177.8,353.2,179.3,351,181.2,348.9z"/>
			<path id="XMLID_130_" class="st682" d="M198.1,332.9c1.8,0.5,1.2,1.6,0.3,2.2c-1.6,1.1-2.6,2.8-4.2,3.8c-1,0.9-1.9,1.8-2.9,2.7
				c-0.5,0.5-1.1,1.3-1.8,0.6c-0.8-0.8,0.6-0.9,0.8-1.5c0.1-0.3,0.4-0.5-0.1-0.7C192.6,337.4,195.3,335.1,198.1,332.9z"/>
			<path id="XMLID_129_" class="st683" d="M231.1,318.9c-0.3-1.1-1.1-2.4-0.7-3.3c0.6-1.8,1.9,0.7,2.8,0c1.2-1,4.1-0.2,3.3-3.2
				c-0.2-0.6,0.6-0.7,1.1-0.9c4.2-1.6,8-3.7,10.4-7.6c0.8-1.2,2-2,2.6-3.4c2.5-1,5.2-1.7,7.2-3.9c0.6-0.7,1.4-0.2,2.1,0
				c0.2,0.4,0.3,0.8,0.5,1.3c-0.2,1.8,1.1,3.2,1.5,4.8c-0.3-0.3-0.6-0.5-0.8-0.8c-0.8-1.9-1.9-2-3.2-0.5c-2.4,3-6.2,4-9.2,6
				c-3.5,2.4-7.3,4.3-10.3,7.3C236.2,316.7,233.7,317.9,231.1,318.9z"/>
			<path id="XMLID_128_" class="st684" d="M231.1,318.9c0.7-0.7,1.5-1.4,2.5-1.9c1.8-0.8,3.4-2.2,4.9-3.5c4-3.4,8.3-6.4,13.1-8.5
				c2.2-1,3.8-3,6.1-3.7c0.3,2-0.2,3.2-2.5,3.6c-1.6,0.3-2.3,2.1-3.2,3.4c-0.5,0.8-1,1.1-2.1,1.2c-2.6,0.3-4.6,2.2-6.8,3.6
				c-0.1,0-0.1,0.1-0.1,0.2c1.2,2.8-1.1,3.2-2.7,4.3c-0.8,0.6-1.6,0.9-2.5,0.6c-1.5-0.4-2.3,0.1-2.8,1.5c-0.2,0.6-0.4,1.2-1.2,1.1
				c-1.3,0-1.1,1-1.2,1.8c-1.2,0.6-2,0.3-2.4-1C231.1,321,231.1,319.9,231.1,318.9z"/>
			<path id="XMLID_127_" class="st673" d="M236.4,325.1c0.3,0.5,0,0.9-0.3,1c-0.7,0.4-1.3,0.1-1.6-0.6c-0.2-0.3-0.3-0.8,0.2-0.9
				C235.3,324.4,235.8,324.9,236.4,325.1z"/>
			<path id="XMLID_126_" class="st685" d="M203.3,341.9c-0.4,0.2-0.8,0.3-1.3,0.5c-0.4,0.1-0.8,0.2-1-0.3c-0.2-0.4,0-0.7,0.4-0.9
				c3.5-2.1,5.7-6,9.5-7.7c2.2-1,3.9-2.8,6.3-3.4c0.3-0.1,0.7-0.2,0.8-0.4c1.7-3.4,5.4-4.4,8.1-6.5c0.9-0.7,1.6-0.8,2.1,0.4
				c-0.4,0.5-0.2,1-0.1,1.5c0.3,1.8,0,3-2.2,2.8c-0.4,0-1-0.1-1.2,0.5c-0.9,3.4-3.6,3.8-6.5,4c-0.2,0-0.5,0.1-0.6,0.2
				c-1.2,2.5-4,3.3-6,4.9C209.3,339.5,206.3,340.8,203.3,341.9z"/>
			<path id="XMLID_125_" class="st686" d="M196.5,346.8c1.6-2.3,4.1-3.3,6.6-4.2c0.2,0.4,0.3,1-0.1,1.3c-1.6,1.2-3.3,2.3-5,3.3
				C197.4,347.4,196.9,347.1,196.5,346.8z"/>
		</g>
	</g>
</g>
<g id="yz1">
	<g id="图层_1_2_">
		<g id="XMLID_5_">
			<path id="XMLID_48_" class="st687" d="M709.6,27.3c0.3-0.2,0.7-0.2,1-0.2c0.7,0.7,1.1,0.3,1.5-0.3c0.3,0,0.5,0,0.8,0
				c0.4,0.5,1.1,0.1,1.5,0.5c0.1,0.2,0,0.3-0.2,0.4c-0.6,0.2-1.2,0.2-1.3,1c-0.2,0.7-0.5,1.4-1.2,1.7c-0.3,0-0.5-0.1-0.8-0.3
				c-1.2-0.7-1.8-0.4-1.9,0.9c0,0.2,0,0.5,0,0.7c-0.2,0.3-0.7,0.4-0.9,0.8c-0.7,1-3.6,2.8-4.7,2.8c-0.3-1.2-0.7-1.3-2.3-1.1
				c-0.8,0.6-1.7,1.1-2.7,0.2c-0.4-0.4-0.8,0-1.2,0.2c-1.8,1.2-3.6,2.6-5.3,3.9c-0.1,0-0.2,0.1-0.2,0.1c-0.9,1.5-2.4,2.4-3.4,3.8
				c-0.8,1.1-1.9,1.5-3,2c-0.2,0-0.4-0.1-0.5-0.2c-0.3-0.5,0-1,0.4-1.3c0.3-0.4,0.7-0.8,0.9-1.3c4.4-4.3,8.9-8.3,14.3-11.3
				c1.2,0.5,2.2-0.3,3.4-0.4c1-0.1,1.9-0.5,2.7-1.1c0.6-0.5,1.2-0.5,1.9-0.4C709.4,28.7,709.8,28.3,709.6,27.3z"/>
			<path id="XMLID_47_" class="st688" d="M686,41.8c0.1,1.1-1.2,1.5-1.2,2.6c-1.1,2.3-2.2,4.6-3.5,6.8c-0.2,0.4-0.2,0.9-0.6,1.3
				c-1.4,1.3-2.8,2.4-3.9,4c-0.6,0.9-0.5,1.1,0.6,1.5c0.2,1.7-1,2.7-1.9,3.9c-0.3-0.2-0.5-0.5-0.8-0.7c0-0.8,0-1.5,0-2.3
				c0.7-1,1.1-2.2,1.5-3.4C677.9,49.8,681.4,45.4,686,41.8z"/>
			<path id="XMLID_46_" class="st689" d="M712.1,26.8c0,0.5-0.1,1-0.6,1.1s-0.9-0.2-0.9-0.8c0.2-0.1,0.4,0,0.5-0.3
				C711.4,26.8,711.8,26.8,712.1,26.8z"/>
			<path id="XMLID_45_" class="st690" d="M699.3,53.4c-6.4,2.2-12.3,5.5-18.4,8.1c-0.8,0.4-1.7,0.7-2.6,0.7c-0.8-0.3-0.9-1-0.6-1.6
				c0.3-0.7,0.9-0.5,1.5-0.3c1.5,0.5,3.1-0.4,3.4-1.9c0.2-0.7,0.2-0.7,1.2-0.1c0.1,0,0.2-0.2,0.2-0.3c-0.5-1.6,0.2-2.4,1.6-3.3
				c1.3-0.9,2.5-1.8,4.2-2.1c0.4-0.1,0.8-0.3,0.8-0.9c-0.8,0.5-1.8,0.4-2.5,0.9c-0.4,0.3-0.9,0-1.2-0.4c-0.2-0.4,0-0.7,0.3-1
				c0.2-0.2,0.4-0.4,0.6-0.5c1.5-0.3,2.3-1.7,3.7-2c0.9-0.2,1.5-1.1,2.5-1.3c-0.4-0.5-0.6-0.3-0.9-0.1c-1.1,0.7-2.4,1.1-3.3,2
				c-1.2,1.1-2.4,1-3.8,0.4c0.1-0.7,0.6-0.7,1.1-0.8c1.3-0.3,2.4-0.8,3.5-1.6c1.8-1.4,3.8-2.6,5.6-3.9c1.3-0.9,2.9-1.3,4.5-1.7
				c0.4-0.1,0.9-0.1,1.1-0.4c0.9-1.4,1.9-0.9,3-0.4c0.3,1.4-0.8,2.3-1.3,3.4c-0.2,0.5-0.7,0.9-1.1,1.3c-0.3,0.3-0.5,0.5-0.3,1
				c0.2,0.4,0.1,0.9-0.2,1.2c-1.2,0.9-1.6,2.1-1.9,3.5c-0.4,0.5-0.7,1-0.4,1.7C699.7,53,699.6,53.2,699.3,53.4z"/>
			<path id="XMLID_44_" class="st691" d="M721.4,34.3c0.6,2.7-0.2,5-1.6,7.3c-1.3,0.4-2.2,1.1-2.8,2.3c-0.2,0.4-0.4,0.7-0.7,1
				c-0.1,0.1-0.2,0.1-0.3,0.2c-1.5,1-2,0.9-2.6-0.6c0.7,1.3,0,2.1-1,2.7c-0.8,1.2-2.1,1.7-3.4,2.2c-1,0.4-2,0.6-2.9,1.1
				c-0.5,0.2-1,0.3-1.4-0.2s0.1-0.9,0.4-1.3c1.2-1.9,3.2-3,5-4.2c-1,0.7-2.2,0.8-3.2,1.6c-0.3,0.3-0.8,0.4-1.2,0s-0.1-0.7,0.2-1
				c0.5-0.4,0.2-1,0.4-1.5c0.3-0.7,0.9-1.1,1.6-1.2c0.6,0.1,1-0.5,1.4-0.6c1.3-0.2,1.7-1,2.1-2.1c0.2-0.7,1-1.1,1.6-1.5
				c0.2,0,0.4,0.1,0.6,0c1-0.8,1-0.8,1.5,0.3c0.6-0.3,0.7-0.9,0.8-1.5s0.2-1.1,0.9-1.2c0.7-0.1,0.7,0.6,0.8,1s0.4,0.8,0.4,1.3
				c-0.4,0.9-0.1,1.9-0.1,2.7c0.8-0.6,1.5-1.4,1.6-2.6c0.2-0.9,0.5-1.8,0.5-2.8c0-0.5,0.1-1,0.7-1.2C721,34.5,721.2,34.4,721.4,34.3
				z"/>
			<path id="XMLID_43_" class="st692" d="M686,49.6c2.4,0.8,3.8-1.1,5.6-2c0.6-0.3,1.2-0.7,1.9-1c0.4-0.2,0.8-0.1,0.9,0.4
				c0.1,0.4-0.3,0.7-0.5,0.7c-1.3,0.1-2,1.7-3.5,1.4c-0.5,1.4-2.2,1.2-3.1,2.1c-0.2,0.2-0.7,0.4-0.3,0.8c0.3,0.3,0.8,0.6,1.1,0.1
				c0.6-1,1.9-0.1,2.4-1.2c0.1-0.3,0.5,0.1,0.5,0.5c-0.2,0.9-0.9,1.2-1.7,1.4c-1.2,0.2-2.3,0.6-3.1,1.6c-0.3,0.4-0.7,0.5-1.1,0.6
				c-1,0.4-1.3,1.1-1.1,2.1c0.1,0.5,0.6,1-0.1,1.4c-0.8,0.5-0.6-0.7-1.1-0.8c0.1,1.6-0.5,2.3-2.2,2.5c-0.7,0.1-1.4,0.6-2.1-0.2
				c-0.3-0.3-0.7,0.1-0.8,0.5c-0.1,0.6,0.2,0.9,0.5,1.4c-1,0.3-1.9,0.3-2.8-0.3c0.3-1.5,1.8-2.4,1.8-4c0.1-1.1,1-1.8,1.6-2.5
				c0.3-0.3,0.7-0.6,1-0.9c1.5-2,3.9-3,5.6-4.7C685.6,49.6,685.8,49.5,686,49.6z"/>
			<path id="XMLID_42_" class="st693" d="M706.6,43.9c-0.1,0.6,0.4,1.2-0.3,1.7c-0.2,0.1-0.6,0.4-0.2,0.7c0.2,0.2,0.6,0.2,0.8-0.1
				c0.9-1,2.4-1,3.4-1.8c0.2-0.2,0.5-0.4,0.7-0.1c0.2,0.3-0.1,0.5-0.4,0.7c-1.2,0.7-2.2,1.6-3.4,2.3c-1,0.6-1.2,1.9-2.2,2.4
				c-0.2,0.1-0.2,0.4,0,0.6c0.2,0.2,0.5,0.2,0.7,0.1c2.2-1.2,5-1.3,6.7-3.5c1.4-0.3,2.7-1,3.8-2l0,0c0.4-0.2,0.6-0.5,0.9-0.8
				c0.4-0.4,0.7-0.3,1.1,0.1c-1.7,2-3.4,3.9-6.1,4.7c-2.8,0.8-5.5,1.9-8.2,2.9c-0.7,0-0.7-0.4-0.8-0.9c0-0.4,0.3-0.7,0.6-1
				c0.7-0.4,0.6-1.2,0.8-1.9c0.6-1.3,1-2.7,1.7-3.9c0.1-0.1,0.2-0.2,0.3-0.2C706.5,43.8,706.6,43.8,706.6,43.9z"/>
			<path id="XMLID_41_" class="st694" d="M714.1,27.5c0.1-0.1,0.2-0.2,0.3-0.3c0.6,0,1.2,0.1,1.8,0.5c0.1,0.7-0.2,1.3-0.7,1.8
				c-0.3,0.4-0.3,0.8-0.2,1.2c0.4,1.8-0.4,2.8-1.9,3.5c-0.1,0.1-0.3,0.2-0.4,0.3c-0.1,0.1-0.2,0.2-0.3,0.2c-0.9,0.7-1.5,1.6-2.1,2.6
				c-0.5,0.9-1,1.8-2,2.3c-0.1,0-0.2,0-0.3-0.1c0.4-1.6,1.2-3,2.1-4.3c0.3-0.3,0.5-0.8,0.9-1c1-0.6,1.1-1.3,0.4-2.2
				c0-0.6,0.3-1,0.9-1.3c0.3,0.1,0.7,0.4,0.9-0.2s-0.4-0.3-0.6-0.5c-0.2-0.5,0.2-0.9,0.4-1.3C713.4,28.3,713.7,27.8,714.1,27.5z"/>
			<path id="XMLID_40_" class="st695" d="M718.4,29c0.7,0.5,1.4,1.1,1.7,2c-0.3,0.6-0.4,1.2,0.1,1.8c0.3,0.4,0.7,1,0.4,1.6
				c-0.4,0.2-0.4,0.6-0.5,0.9c-0.1,0.4-0.4,0.6-0.8,0.6c-0.4,0-0.7-0.3-0.8-0.7c-0.1-0.8-0.3-1.3-1.4-1.2c-0.7,0.1-1.3-0.8-1.3-1.6
				c-0.1-0.7,0.5-1,1.2-0.9c0.5,0.1,0.9,0.5,1.5,0.3c-0.6-0.7-1.7,0.1-2.1-0.8c0.4-0.6,1.2-0.1,1.7-0.6c0-0.6-0.8-0.6-0.9-1.1
				C717.4,28.9,717.9,28.8,718.4,29z"/>
			<path id="XMLID_39_" class="st696" d="M703.3,50.6c0,0.4,0.1,0.8,0.5,1c-1.5,0.7-3,1.2-4.5,1.7c0.2-0.7-0.7-1.7,0.5-2.2
				c0.2-0.3,0.4-0.5,0.7-0.3c0.2,0.5,0.4,0.8,1,0.6C702.2,51.2,702.6,50.6,703.3,50.6z"/>
			<path id="XMLID_38_" class="st697" d="M718.1,44.1c-1-0.5-1.2,0.8-2,0.8c0.7-1.1,1.3-2.3,2.4-3.1c0.5-0.3,0.8-0.5,1.3-0.2
				C719.5,42.5,718.9,43.4,718.1,44.1z"/>
			<path id="XMLID_37_" class="st698" d="M720.7,34.3c-0.6-0.6-0.5-1.5-1.3-2c-0.3-0.2,0.3-0.9,0.7-1.2c0.8,0.9,1.2,2.1,1.3,3.3
				c-0.1,0.2-0.2,0.3-0.3,0.5C721,34.6,720.7,34.6,720.7,34.3z"/>
			<path id="XMLID_36_" class="st699" d="M718.4,29c-0.4,0.1-0.9,0.2-1.3,0.5c0.1,0.7-0.2,0.9-0.8,0.9c-0.4-0.1-0.6,0-0.8,0.3
				c-0.1,0.1-0.2,0.1-0.3,0.1c-0.4-0.4-0.1-0.8-0.2-1.2c0.3-0.3,0.8-0.4,1-0.9c0.4-0.8,1.1,0.1,1.6-0.3
				C718,28.6,718.2,28.7,718.4,29z"/>
			<path id="XMLID_35_" class="st700" d="M717.6,28.5c-0.1,0.1-0.1,0.3-0.2,0.4c-1-0.6-1.5,0.6-2.3,0.6c-0.1-0.1-0.1-0.1-0.1-0.2
				s0-0.1,0.1-0.1c0.8-0.2,0.6-1.1,1-1.6C716.7,27.8,717.2,28.1,717.6,28.5z"/>
			<path id="XMLID_34_" class="st689" d="M709.6,27.3c0.7,0.3,0.5,1,0.4,1.4c-0.1,0.5-0.7,0.2-1.1,0.1c-0.9-0.1-1.8-0.1-2.7,0.6
				c-0.8,0.6-1.9,0.8-2.9,1c-0.6,0.1-1.3,0.1-1.9,0.6c-0.6,0.5-0.8-0.2-1.1-0.6C703.2,28.9,706.2,27.7,709.6,27.3z"/>
			<path id="XMLID_33_" class="st701" d="M685.3,44.3c0.8-0.9,2.1-0.8,2.8-2.1c0.4-0.7,1.2-1.8,2.3-2.1c0.1,0,0.3-0.1,0.3-0.2
				c1.2-2.2,3.4-3.3,5.4-4.6c0.3-0.2,0.7-0.5,0.9-0.8c0.6-0.6,1.2-0.8,1.8-0.1c1,1.1,1.5-0.3,2.3-0.4c0.3-0.2,0.5-0.1,0.5,0.3
				c0,0.3,0.1,0.5,0.3,0.8c-0.5,1-1.3,0.7-2.1,0.5c-0.5-0.2-1.3-0.9-1.5,0.3c0,0.1-0.1,0.2-0.1,0.3c-0.6,0.7,0.1,1.3,0.3,2
				c0.2,1,1.2,0.1,1.7,0.6c-0.3,1.2-1.5,1.6-2.4,2.1c-0.4,0.2-0.8,0.3-1.1,0.5c-0.4,0.3-0.8,0.6-1.2,0.3c-0.6-0.4-0.2-0.9-0.2-1.5
				c-0.5,0.4-0.9,0.7-1.5,0.4c-0.7-0.4-1,0.1-1.1,0.7c-0.1,0.8-0.3,1.5-0.7,2.1c-1.3,1.6-3,2.7-4.6,3.7c-1.1,0.7-2.2,1.5-3.4,2.2
				c-0.5-0.8,0-1.4,0.4-1.9c0.7-0.8,1.4-1.4,0.7-2.6C684.9,44.7,685.1,44.5,685.3,44.3z"/>
			<path id="XMLID_32_" class="st690" d="M691.8,43.3c0.2-0.8,0.5-1.5,0.5-2.3c0-0.9,0.7-1.2,1.4-0.7c0.6,0.4,0.8,0.1,1.1-0.4
				c0.2-0.3,0.4-0.6,0.8-0.3c0.3,0.2,0.1,0.5-0.1,0.8c-0.2,0.3-0.6,0.6-0.2,1c0.4,0.3,0.7,0,1-0.3c0.8-0.8,2.1-0.7,2.9-1.6
				c0.2-0.3,0.6-0.4,0.8-0.8c0.3-0.7,0.9-1.2,0.9-2.1c0-0.6,0.6-1,1.3-0.8c0.5,0.1,0.8-0.1,1-0.5l0.1-0.1c1.5-1,3.5-1.3,4.5-3
				c0.9-0.4,1,0.2,0.9,0.8c-0.4,2-2.1,3.5-4.2,3.5c-0.6,0-0.7,0.5-1.1,0.7c-1.2,0.4-1.7,1.6-2.6,2.4c-0.4,0.3-0.6,0.7-0.9,1.1
				c-0.5,0.8-1.2,1.2-2.2,1.1c-0.6-0.1-1.2,0-1.6,0.5c-0.1,0.2-0.3,0.4-0.5,0.3C694.3,42.5,693.1,43.3,691.8,43.3z"/>
			<path id="XMLID_31_" class="st702" d="M711.9,32c1.1,1.1,1.1,1.1-0.2,2.1c-0.4,0.4-0.5,1-1.1,1.2c-0.4-0.4-0.1-1.3-0.9-1.5
				c-0.6-0.6-0.8-1.3-0.9-2.1c-0.5-0.9-0.2-1.8,0.5-2.3c1-0.7,1.5,0.4,2.2,0.8c0.3,0.7-0.3,1.2-0.4,1.8
				C711.4,32.2,711.6,31.9,711.9,32z"/>
			<path id="XMLID_30_" class="st703" d="M685.3,44.3c0,0.2-0.1,0.5,0,0.6c1.3,1.1,0.1,1.7-0.5,2.4c-0.5,0.6-0.9,1.2-0.8,2
				c-0.3,1.3-1.4,1.6-2.4,2.1c-0.2,0.1-0.7,0.2-0.7-0.4c0.5-1.3,1.4-2.4,1.9-3.7c0.3-0.7,0.6-1.3,0.9-2c0.2-0.4,0.3-1,0.9-1.1
				C684.9,44.3,685.1,44.3,685.3,44.3z"/>
			<path id="XMLID_29_" class="st704" d="M708.8,31.8c0.6,0.5,0.6,1.4,1,2c0,1.3-1.6,3.5-2.9,3.9c-0.8-0.3-1.6-0.3-2.4-0.2
				c-0.4,0-0.8,0.2-1.2-0.1c0.4-0.8,0.8-1.2,1.9-0.8c0.9,0.3,1.6-0.7,2.2-1.4c0.4-0.5,0.8-1.2,1.1-1.8s0.1-1-0.6-0.9
				C708,31.8,708.4,31.8,708.8,31.8z"/>
			<path id="XMLID_28_" class="st705" d="M707.3,31.6c0,0.6-1.7,2-2.5,1.9c-0.9-0.1-0.8-1.1-1.1-1.6c-0.1-0.2,0-0.4,0.2-0.4
				c0.9-0.2,1.8-0.6,2.8-0.5C707,30.9,707.3,31.2,707.3,31.6z"/>
			<path id="XMLID_27_" class="st706" d="M711.9,32c-0.1,0.1-0.3,0.3-0.4,0.4c-0.2,0.1-0.4,0.4-0.7,0.2c-0.2-0.2-0.1-0.5,0.1-0.7
				c0.4-0.5,0.5-1.1,0.8-1.7c0.5-0.5,0.9-1,1-1.8c0.4-0.3,0.6-0.1,0.7,0.2c-0.2,0.4-0.3,0.8-0.5,1.2c0,0.3,0,0.6-0.2,0.8
				C712.3,31.2,711.9,31.5,711.9,32z"/>
			<path id="XMLID_26_" class="st690" d="M701.8,35.1c-0.4,0-0.9,0-0.5-0.7c0.2-0.3,0-0.3-0.3-0.4c0.8-0.5,1.7-0.1,2.4,0
				c0.8,0.1-0.3,0.8-0.2,1.3l0,0C702.8,35.3,702.3,35,701.8,35.1z"/>
			<path id="XMLID_25_" class="st702" d="M713.4,28.8c-0.2-0.1-0.5-0.2-0.7-0.2c0-1.1,0.8-1,1.5-1C714.1,28.1,713.7,28.4,713.4,28.8
				z"/>
			<path id="XMLID_24_" class="st707" d="M681,51.1c1.2,0.3,1.7-0.8,2.5-1.3c0.2-0.1,0.3-0.3,0.5-0.5c0.7-1.2,1.9-1.7,3-2.4
				c1.5-0.8,2.9-2,4.2-3.3c0.1-0.1,0.3-0.2,0.5-0.4c1.1-0.4,2.1-1.3,3.4-0.8c0.1,0.1,0.4,0,0.5-0.1c0.7-1.1,1.7-0.9,2.8-0.8
				c0.7,0.1,1.1-0.6,1.4-1.1c0.3-0.4,0.3-1,1-1c0.9,0.4,1.8,0,2.6-0.3c1.2-0.4,1.6-0.2,1.8,1c-0.1,0.3-0.2,0.5-0.4,0.6
				c-0.4-0.1-0.8-0.2-1.2-0.2c-0.6,0-1.2-0.4-1.4,0.7c-0.1,0.5-0.8,0.5-1.3,0.6c-1.6,0.1-3.3,0.8-4.4,1.5c-1.4,0.9-2.9,1.8-4.2,2.9
				c-1.7,1.4-3.4,2.6-5.7,2.9c-0.2,0-0.4,0.3-0.6,0.4c-1.9,1.9-4.2,3.1-6,5c-0.4-0.5-0.1-0.9,0.2-1.3c0.2-0.3,0.5-0.5,0.3-1
				C680.8,52,680.6,51.5,681,51.1z"/>
			<path id="XMLID_23_" class="st708" d="M680.5,52.4c0.6,0,1,0.2,0.4,0.7c-0.5,0.4-0.9,0.8-0.9,1.5c-0.9,1.1-2.1,2-2.8,3.3
				c-0.3,0-0.6,0.7-0.9,0.3c-0.2-0.3-0.6-0.9-0.2-1.3c0.7-0.7,0.7-1.9,1.9-2.3c0.5-0.2,0.8-1,1.3-1.4
				C679.6,52.9,679.9,52.4,680.5,52.4z"/>
			<path id="XMLID_22_" class="st709" d="M704.8,40.8c0-0.2,0.1-0.4,0.3-0.5c0.7-0.9,1.4-1.8,2-2.8c1.2-1.1,2.1-2.3,2.8-3.8
				c1.6-0.2,0.6,1,0.8,1.5c-0.9,1.3-1.5,2.9-2.3,4.3c0.1,0.3-0.1,0.3-0.3,0.3c-0.5-0.6-0.7-0.3-1.1,0.2c-2.2,2.7-3.4,6-4.9,9.1
				c-0.3,0.7-0.5,1.6-1.5,1.8c-0.3,0.1-0.5,0.2-0.8,0.2c0.2-1.4,0.4-2.8,1.9-3.6c0.2-0.1,0.4-0.7,0.3-0.8c-0.8-0.8-0.1-1.2,0.4-1.7
				C703.5,43.9,704.2,42.4,704.8,40.8z"/>
			<path id="XMLID_21_" class="st710" d="M717.9,38.6c-0.2-0.5-0.4-1-0.5-1.5c-0.1-0.3,0-0.7-0.5-0.7c-0.4,0.1-0.5,0.4-0.5,0.8
				c0.1,0.7-0.2,1.3-0.7,1.8c-0.2,0.2-0.3,0.7-0.7,0.5c-0.4-0.1-0.4-0.5-0.3-0.8c0.1-0.3,0.1-0.5-0.2-0.6s-0.4,0.2-0.4,0.5
				s-0.1,0.6-0.4,0.7c-0.5,0.1-0.3-0.5-0.6-0.6c-0.4-0.1-0.7-0.3-1.1-0.5c-0.7-0.4-0.9-1-0.4-1.6s0.6-1.2,1-1.8l0,0
				c1-0.3,1.9-0.8,2.3-1.9c0.1-0.2,0.3-0.5,0.7-0.5c0.3,0.3,0.1,0.6,0,0.9c-0.4,1.4,0.1,2.1,1.6,2.2c0.5,0,1,0.3,0.9,0.8
				C718,36.9,718.9,37.9,717.9,38.6z"/>
			<path id="XMLID_20_" class="st711" d="M716.9,35.6c-0.9,0.2-2.1-1-1.8-1.9c0.1-0.5,0.4-0.9,0.5-1.4c-0.3-0.5-0.3-1-0.2-1.5
				c0-0.1,0-0.2,0-0.3c0.6-0.3,0.8,0.1,1,0.5c0.6,0.5,1.3,0.1,1.9,0.2c0.2,0,0.5,0,0.6,0.3s0,0.5-0.2,0.7c-0.2,0.3-0.5,0.4-0.8,0.2
				c-0.1-0.1-0.3-0.3-0.4-0.3c-0.5,0-0.9-0.7-1.5-0.1c-0.2,0.3-0.3,0.7,0.1,0.9c0.5,0.3,0.4,1.4,1.5,0.8c0.7-0.4,0.9,0.4,1,1
				c0,0.5,0,1,0.6,1c0.5,0,0.6-0.4,0.6-0.9s0.4-0.6,0.8-0.6c0.2,0.2,0.3,0.3,0.5,0.5c-0.6,0-0.8,0.3-0.8,0.8
				c0.1,1.1-0.2,2.1-0.5,3.2c-0.7,0.9-1.1,0.2-1.3-0.4c-0.3-0.8-0.5-1.6-0.5-2.4C717.9,34.9,717.8,34.9,716.9,35.6z"/>
			<path id="XMLID_19_" class="st712" d="M712.6,34.6c0,0.7,0.1,1.4-0.7,1.9c-0.6,0.4-0.5,1.1,0.3,1.3c0.5,0.1,0.9,0.2,0.9,0.8
				c0,0.4-0.3,0.6-0.6,0.8c-0.7,0.5-1.4,1.1-1.1,2.2c0.1,0.5-0.2,1-0.8,0.6c-0.7-0.5-1.1-0.1-1.3,0.3c-0.3,0.6-0.8,0.4-1.3,0.3
				c0.5-1,1.6-1.4,2.3-2.2c-0.5,0-0.7,0.2-1,0.4c-0.4,0.3-0.8,0.7-1.3,0.1c-0.4-0.4-0.1-0.9,0.2-1.2c0.1-0.1,0.2-0.3,0.3-0.4
				C710.2,38.1,710.7,35.8,712.6,34.6z"/>
			<path id="XMLID_18_" class="st713" d="M716.9,35.6c0.1-0.2,0.2-0.5,0.3-0.7c0.1-0.3,0.3-0.5,0.6-0.5c0.4,0.1,0.4,0.4,0.4,0.7
				c-0.2,1.1,0.4,2,0.6,3c0.1,0.5,0.3,1.2,1.2,0.7c0,1.5-1.2,2.2-2.2,3c0.5-1.1-0.6-2.2,0.2-3.2c0.4-0.9-0.1-1.8-0.1-2.7
				C717.8,35.4,717.2,35.6,716.9,35.6z"/>
			<path id="XMLID_17_" class="st693" d="M708.6,39.6c-0.1,0.2-0.1,0.4-0.2,0.6c-0.1,0.3-0.5,0.7-0.1,1s0.6-0.2,0.9-0.4
				c0.2-0.1,0.4-0.4,0.6-0.4c0.4-0.1,0.8-0.6,1.1-0.1s-0.4,0.7-0.6,0.9c-0.8,0.5-1.4,1.3-2.3,1.7c-0.6,0.2-1,0.7-1.5,1l0,0
				c-0.2-1,0.6-1.6,0.7-2.5c0-0.3,0.2-0.7,0.3-1.1c0.1-0.2,0.2-0.5,0.5-0.5c0.1-0.1,0.2-0.2,0.3-0.2S708.5,39.6,708.6,39.6z"/>
			<path id="XMLID_16_" class="st697" d="M716.1,44.8c-0.9,1.3-2,2.2-3.8,2c0.7-0.5,1.7-0.9,0.8-2.1c-0.2-0.3,0.1-1,0.5-1
				c0.5,0,0.4,0.5,0.3,0.8c-0.1,0.4,0.2,0.6,0.4,0.8c0.3,0.2,0.6,0.1,0.9-0.1C715.5,45.1,715.8,44.8,716.1,44.8z"/>
			<path id="XMLID_15_" class="st690" d="M686.3,51.9c0.1,0.2,0.1,0.2,0.1,0.2c-0.1,0.9-0.8,1.2-1.5,1.5c-0.1,0.1-0.4-0.1-0.3-0.3
				C685.1,52.8,685.6,52.2,686.3,51.9z"/>
			<path id="XMLID_14_" class="st714" d="M708.1,39.8c-0.2,0.1-0.2,0.3-0.3,0.5c-0.5,1.2-0.9,2.4-1.5,3.5c-0.5,1.4-0.9,2.8-1.8,4
				c-0.3,0.6-0.3,1.4-0.8,2c-0.2,0.3-0.5,0.4-0.5,0.8c-0.5,1-1.5,1.1-2.4,1.3s-0.6-0.5-0.4-1c1.2-1.6,2-3.4,2.7-5.2
				c0.7-1.7,1.4-3.4,2.7-4.7c0.4-0.4,0.6-1,0.9-1.5c0.2-0.3,0.4-0.7,0.9-0.6C708.3,39,708,39.5,708.1,39.8z"/>
			<path id="XMLID_13_" class="st709" d="M706.3,43.9c0.3-1.3,0.8-2.4,1.5-3.5c-0.2,1.3-0.7,2.4-1.3,3.5
				C706.5,43.8,706.4,43.8,706.3,43.9z"/>
			<path id="XMLID_12_" class="st715" d="M703.8,49.9c0-0.8,0.2-1.4,0.8-2C704.6,48.6,704.8,49.5,703.8,49.9z"/>
			<path id="XMLID_11_" class="st712" d="M715.4,30.8c0.5,0.4,0.3,1,0.2,1.5c-0.4,0.2-0.7,0.6-0.9,1c-0.4,0.9-1.1,1.4-2.1,1.3
				c0.2-0.7,1-0.6,1.4-1c0.6-0.7,1.4-1.3,1-2.5c-0.2-0.5-0.3-1.2,0.2-1.8c0,0.1,0,0.2,0,0.3C715.2,30,715,30.4,715.4,30.8z"/>
			<path id="XMLID_10_" class="st716" d="M712.6,30.8c0-0.3-0.1-0.6,0.2-0.8c0.3,0,0.7-0.8,0.9-0.1c0.2,0.5,0,1.2-0.5,1.5
				C712.8,31.7,712.7,31.2,712.6,30.8z"/>
			<path id="XMLID_9_" class="st717" d="M716.4,31c-0.3-0.1-0.6-0.5-1-0.5c0-0.5,0.1-0.9,0.7-0.5c0.6,0.4,0.9,0,1.1-0.5
				c0.4,0,0.8,0.1,1.1,0.5c0.2,0.2,0.4,0.3,0.3,0.6c-0.1,0.3-0.4,0.4-0.7,0.4C717.4,31,716.9,31,716.4,31z"/>
			<path id="XMLID_8_" class="st718" d="M701.8,35.1c0.6-0.6,1.1-0.3,1.5,0.3c0,0.7,0.2,1.6-1.1,0.9c-0.6-0.3-1.2,0.3-1.1,0.8
				c0.4,1.2-0.5,1.4-1.1,1.9c-0.4,0.1-0.7,0.2-1.1,0.2c-0.2,0-0.5,0.1-0.6-0.1c-0.5-0.6-0.2-1.5-0.9-2.1c-0.2-0.1,0.2-0.7,0.6-0.8
				c0.5,0.3,0.5,0.3,1-0.1c-0.4-0.2-0.7,0.3-1,0.1c-0.1-1.3,0.4-1.5,1.8-0.8C700.6,35.7,701.2,35.7,701.8,35.1z"/>
			<path id="XMLID_7_" class="st719" d="M707.1,37.6c-0.1,1.3-0.9,2.1-2,2.8c0-0.9-0.5-1.2-1.3-0.9c-0.5,0.2-0.9,0.4-1.4,0.6
				c-0.6,0.2-1.2,0.3-1.6-0.4c0.8-0.8,1.1-2.2,2.5-2.3C704.6,37.2,705.9,36.5,707.1,37.6z"/>
			<path id="XMLID_6_" class="st720" d="M698.1,36.1c0.1-0.1,0.2-0.1,0.3-0.2c0.3-0.2,0.5-0.7,1-0.4c0.3,0.1,0.1,0.4,0,0.7
				c-0.2,0.4-0.4,0.9-0.9,0.9C698,36.9,698.1,36.4,698.1,36.1L698.1,36.1z"/>
		</g>
	</g>
</g>
<g id="yz2">
	<g id="图层_1_1_">
		<g id="XMLID_1_">
			<path id="XMLID_123_" class="st687" d="M340.3,117.5c-0.4-0.3-0.4-0.8-0.5-1.3c0.6-1,0.1-1.5-0.8-1.8c-0.1-0.3-0.1-0.6-0.2-0.9
				c0.5-0.6-0.1-1.4,0.2-2c0.2-0.2,0.4,0,0.5,0.1c0.4,0.7,0.6,1.5,1.6,1.4c0.9,0.1,1.9,0.2,2.5,1c0.1,0.4,0,0.7-0.2,1
				c-0.6,1.6-0.1,2.3,1.7,2.2c0.3,0,0.6-0.2,0.9-0.1c0.5,0.2,0.7,0.8,1.2,0.9c1.5,0.7,4.4,3.8,4.7,5.1c-1.4,0.7-1.5,1.2-0.7,3.1
				c1,0.9,1.8,1.8,1,3.3c-0.3,0.6,0.2,1,0.6,1.5c2,2,4.1,3.8,6.2,5.7c0.1,0.1,0.1,0.2,0.2,0.2c2.1,0.8,3.7,2.4,5.6,3.3
				c1.6,0.8,2.3,2,3.3,3.2c0,0.2,0,0.5-0.1,0.7c-0.6,0.5-1.2,0.2-1.8-0.1c-0.6-0.3-1.2-0.7-1.9-0.8c-6.5-4.3-12.6-9-17.7-15
				c0.3-1.6-1-2.7-1.4-4.1c-0.4-1.2-1.1-2.3-2.1-3.1c-0.7-0.6-1-1.4-1-2.3C342.1,117.3,341.5,116.9,340.3,117.5z"/>
			<path id="XMLID_122_" class="st688" d="M364.4,143.2c1.3-0.4,2.2,1.1,3.5,0.9c3.2,0.7,6.4,1.5,9.4,2.6c0.6,0.1,1.2,0,1.8,0.4
				c1.9,1.4,3.7,2.9,6,3.8c1.3,0.5,1.6,0.4,1.8-1.1c2-0.7,3.6,0.5,5.3,1.3c-0.2,0.4-0.5,0.7-0.7,1.1c-0.9,0.2-1.9,0.4-2.8,0.6
				c-1.5-0.6-3.1-0.8-4.6-1C376.6,151.1,370.1,148,364.4,143.2z"/>
			<path id="XMLID_121_" class="st689" d="M339,114.4c0.6-0.2,1.3-0.1,1.5,0.5s-0.1,1.1-0.7,1.3c-0.1-0.2-0.1-0.5-0.5-0.6
				C339.2,115.3,339.1,114.8,339,114.4z"/>
			<path id="XMLID_120_" class="st690" d="M375.5,123.6c4.4,7.4,10,13.9,14.9,20.9c0.7,1,1.3,1.9,1.5,3.1c-0.2,1.1-0.9,1.4-1.9,1.2
				c-1-0.2-0.9-1-0.8-1.8c0.2-2-1.3-3.7-3.3-3.8c-1,0-1,0-0.4-1.5c-0.1-0.2-0.3-0.2-0.4-0.1c-1.9,1-3.1,0.4-4.6-1.1
				c-1.4-1.4-2.9-2.7-3.7-4.6c-0.2-0.5-0.6-0.9-1.3-0.8c0.8,0.9,0.9,2.1,1.8,2.9c0.5,0.4,0.3,1.1-0.2,1.6c-0.4,0.4-0.9,0.1-1.3-0.1
				c-0.3-0.2-0.6-0.4-0.7-0.6c-0.7-1.7-2.7-2.4-3.5-4.1c-0.5-1-1.7-1.7-2.3-2.8c-0.5,0.6-0.2,0.9,0,1.1c1.1,1.2,2,2.6,3.3,3.6
				c1.7,1.2,1.9,2.8,1.5,4.6c-0.8,0.1-1.1-0.6-1.3-1.2c-0.7-1.5-1.6-2.8-2.9-3.9c-2.2-1.9-4.2-4-6.3-6c-1.4-1.3-2.4-3.3-3.3-5.2
				c-0.2-0.5-0.3-1.1-0.8-1.3c-2-0.7-1.6-2.2-1.3-3.7c1.7-0.7,3.1,0.4,4.6,0.8c0.7,0.2,1.4,0.6,2,1c0.4,0.3,0.8,0.5,1.3,0.1
				s1.1-0.4,1.5-0.1c1.4,1.3,3.1,1.4,4.8,1.5c0.7,0.3,1.4,0.5,2.2,0.1C375,123.1,375.3,123.3,375.5,123.6z"/>
			<path id="XMLID_119_" class="st691" d="M346,100.9c3.2-1.4,6.3-1.1,9.5,0.1c0.8,1.5,1.9,2.5,3.6,2.9c0.5,0.1,1,0.3,1.4,0.7
				c0.1,0.1,0.2,0.2,0.3,0.3c1.7,1.7,1.7,2.3-0.1,3.4c1.5-1.2,2.6-0.5,3.6,0.6c1.7,0.7,2.7,2.2,3.7,3.6c0.7,1.1,1.3,2.3,2.1,3.4
				c0.4,0.5,0.7,1.2,0.2,1.7c-0.6,0.6-1.1,0.1-1.7-0.1c-2.7-1-4.5-3.2-6.6-5.1c1.1,1.1,1.6,2.5,2.8,3.5c0.4,0.4,0.7,0.9,0.3,1.4
				c-0.3,0.5-0.9,0.3-1.3,0.1c-0.7-0.5-1.3,0-2-0.1c-0.9-0.3-1.5-0.8-1.9-1.7c-0.1-0.7-0.9-1.1-1.1-1.6c-0.5-1.6-1.7-1.8-3.1-2
				c-0.9-0.1-1.6-1-2.3-1.7c-0.1-0.2,0.1-0.5-0.2-0.7c-1.3-1.1-1.3-1.1,0-2c-0.6-0.6-1.3-0.7-2-0.6c-0.7,0.1-1.5,0.1-1.7-0.8
				c-0.2-0.9,0.5-1,1.1-1.3c0.5-0.3,0.9-0.7,1.5-0.8c1.2,0.2,2.3-0.3,3.4-0.6c-0.9-0.9-2.2-1.5-3.7-1.3c-1.2,0-2.4-0.1-3.6,0.2
				c-0.6,0.1-1.3,0.1-1.7-0.5C346.3,101.4,346.1,101.1,346,100.9z"/>
			<path id="XMLID_118_" class="st692" d="M374.2,141.1c0.4-3.2-2.4-4.5-3.9-6.5c-0.6-0.7-1.2-1.4-1.7-2.1c-0.3-0.4-0.3-1,0.2-1.2
				c0.4-0.2,1,0.1,1,0.5c0.4,1.7,2.6,2.1,2.7,4c1.9,0.3,2,2.4,3.4,3.4c0.3,0.2,0.7,0.7,1.1,0.2c0.3-0.4,0.5-1.2-0.1-1.4
				c-1.3-0.5-0.6-2.4-2.1-2.7c-0.4-0.1,0-0.7,0.5-0.7c1.2,0,1.8,0.8,2.2,1.8c0.6,1.5,1.3,2.7,2.8,3.4c0.5,0.2,0.8,0.7,1.1,1.2
				c0.7,1.1,1.7,1.4,2.9,0.8c0.6-0.3,1.1-1,1.8-0.2c0.8,0.9-0.7,1-0.7,1.6c2-0.5,3,0.1,3.8,2.1c0.3,0.9,1.1,1.6,0.3,2.7
				c-0.3,0.4,0.3,0.8,0.9,0.8c0.7,0,1.1-0.5,1.6-1c0.7,1.1,0.9,2.3,0.3,3.5c-1.9,0-3.4-1.7-5.4-1.2c-1.4,0.2-2.4-0.8-3.5-1.4
				c-0.5-0.3-0.9-0.7-1.4-1c-2.9-1.4-4.8-4-7.4-5.8C374.3,141.7,374.2,141.4,374.2,141.1z"/>
			<path id="XMLID_117_" class="st693" d="M361.7,116.9c0.7-0.1,1.4-0.9,2.2,0c0.2,0.2,0.6,0.6,0.9,0.1c0.2-0.3,0-0.8-0.3-1
				c-1.5-0.9-1.8-2.7-3.1-3.7c-0.3-0.2-0.7-0.6-0.3-0.9c0.3-0.3,0.7,0,0.9,0.3c1.2,1.3,2.6,2.4,3.7,3.6c1,1.1,2.7,0.9,3.6,2.1
				c0.1,0.2,0.5,0.1,0.7-0.1c0.2-0.3,0.2-0.7,0-0.9c-2-2.5-2.9-5.9-6.1-7.5c-0.8-1.7-1.9-3.1-3.5-4.2l0,0c-0.4-0.4-0.8-0.7-1.3-1
				c-0.6-0.4-0.6-0.8-0.2-1.3c3,1.6,5.7,3.2,7.4,6.4c1.7,3.3,3.8,6.3,5.7,9.5c0.2,0.8-0.4,1-1,1.2c-0.5,0.1-1-0.1-1.4-0.4
				c-0.7-0.8-1.7-0.4-2.5-0.5c-1.8-0.5-3.6-0.6-5.3-1.2c-0.1-0.1-0.2-0.2-0.3-0.3C361.7,117,361.7,117,361.7,116.9z"/>
			<path id="XMLID_116_" class="st694" d="M339.4,111.7c-0.1-0.1-0.3-0.2-0.4-0.3c-0.2-0.8-0.1-1.6,0.1-2.3c0.9-0.3,1.7-0.1,2.4,0.5
				c0.5,0.3,1.1,0.2,1.5-0.1c2.1-1,3.6-0.2,4.9,1.4c0.1,0.2,0.3,0.3,0.5,0.4c0.1,0.1,0.2,0.2,0.4,0.3c1.1,0.9,2.4,1.5,3.8,2
				c1.2,0.4,2.5,0.8,3.4,1.9c0,0.2,0,0.3-0.1,0.4c-2.1-0.1-4-0.7-5.9-1.6c-0.5-0.3-1.1-0.5-1.5-0.9c-1.1-1.1-2-1-2.9,0.1
				c-0.7,0.1-1.4-0.1-1.8-0.7c0-0.4,0.3-1-0.4-1c-0.7-0.1-0.3,0.6-0.5,0.9c-0.6,0.4-1.1,0-1.7-0.1
				C340.6,112.4,339.9,112.2,339.4,111.7z"/>
			<path id="XMLID_115_" class="st695" d="M340.2,106c0.5-1,1-2,2.1-2.6c0.8,0.2,1.6,0.2,2.2-0.6c0.4-0.5,1-1.1,1.9-0.9
				c0.3,0.5,0.8,0.4,1.3,0.4s0.9,0.3,1,0.9c0.1,0.5-0.1,1-0.6,1.2c-0.9,0.4-1.5,0.7-1.2,2c0.3,0.9-0.7,1.8-1.6,2.1s-1.4-0.3-1.4-1.2
				c0-0.6,0.4-1.2,0-1.9c-0.7,0.9,0.6,2.1-0.5,2.8c-0.9-0.3-0.5-1.5-1.2-1.9c-0.8,0.2-0.5,1.2-1.1,1.4
				C340.3,107.3,340,106.7,340.2,106z"/>
			<path id="XMLID_114_" class="st696" d="M371,119.2c0.5-0.1,1-0.3,1.1-0.9c1.3,1.6,2.3,3.4,3.3,5.2c-1-0.1-2,1.3-2.9-0.1
				c-0.4-0.2-0.7-0.3-0.6-0.8c0.6-0.3,0.8-0.7,0.5-1.5C372.1,120.4,371.2,120.1,371,119.2z"/>
			<path id="XMLID_100_" class="st697" d="M359.1,102.5c-0.4,1.3,1.3,1.3,1.5,2.3c-1.6-0.6-3.2-1-4.5-2.2c-0.5-0.5-0.8-0.9-0.5-1.6
				C356.8,101.2,358,101.7,359.1,102.5z"/>
			<path id="XMLID_99_" class="st698" d="M346.2,101.8c-0.5,0.9-1.8,1-2.2,2.1c-0.1,0.4-1.2-0.2-1.7-0.6c0.9-1.3,2.3-2,3.7-2.5
				c0.2,0.1,0.5,0.1,0.7,0.2C346.5,101.3,346.6,101.7,346.2,101.8z"/>
			<path id="XMLID_98_" class="st699" d="M340.2,106c0.3,0.5,0.5,1.1,1,1.5c0.8-0.3,1.2,0,1.3,0.8c0,0.5,0.1,0.8,0.6,0.9
				c0.1,0.1,0.2,0.2,0.2,0.4c-0.3,0.5-1,0.4-1.4,0.5c-0.5-0.3-0.7-0.9-1.3-1c-1.1-0.3-0.2-1.4-0.8-2
				C339.7,106.7,339.9,106.3,340.2,106z"/>
			<path id="XMLID_97_" class="st700" d="M339.7,107.1c0.2,0,0.4,0.1,0.6,0.1c-0.5,1.4,1.2,1.7,1.4,2.8c0,0.1-0.1,0.2-0.2,0.1
				c-0.1,0-0.1,0-0.1-0.1c-0.5-0.9-1.5-0.5-2.2-0.9C339.1,108.4,339.3,107.7,339.7,107.1z"/>
			<path id="XMLID_96_" class="st689" d="M340.3,117.5c0.3-0.9,1.1-0.8,1.7-0.8c0.7,0,0.4,0.8,0.4,1.3c0.1,1.2,0.4,2.3,1.5,3.2
				c1,0.8,1.5,2.1,2,3.3c0.3,0.8,0.5,1.6,1.2,2.2c0.8,0.7,0,1.1-0.4,1.5C344,125,341.6,121.5,340.3,117.5z"/>
			<path id="XMLID_95_" class="st701" d="M367.9,143.4c-1.3-0.7-1.6-2.4-3.4-2.9c-0.9-0.3-2.6-1-3.2-2.3c-0.1-0.1-0.2-0.3-0.3-0.4
				c-3.1-0.9-5-3.3-7.1-5.5c-0.4-0.4-0.8-0.7-1.3-1c-0.9-0.6-1.3-1.3-0.6-2.2c1.1-1.5-0.8-1.8-1-2.8c-0.3-0.3-0.3-0.6,0.2-0.7
				c0.4-0.1,0.6-0.3,0.9-0.5c1.4,0.3,1.3,1.4,1.2,2.5c-0.1,0.7-0.7,1.8,0.8,1.8c0.1,0,0.3,0,0.4,0.1c1.1,0.6,1.6-0.5,2.4-0.9
				c1.2-0.5-0.1-1.5,0.3-2.3c1.6,0.1,2.3,1.4,3.2,2.5c0.3,0.4,0.5,0.9,0.9,1.3c0.5,0.4,0.9,0.8,0.7,1.5c-0.3,0.9-1,0.5-1.8,0.6
				c0.6,0.5,1.2,0.9,0.9,1.7c-0.3,1,0.3,1.2,1.1,1.2c1-0.1,1.9,0,2.8,0.3c2.3,1.2,4.2,3,5.9,4.8c1.2,1.3,2.5,2.4,3.6,3.6
				c-0.8,0.8-1.7,0.4-2.5,0c-1.1-0.6-2.2-1.4-3.4-0.2C368.4,143.7,368.1,143.6,367.9,143.4z"/>
			<path id="XMLID_94_" class="st690" d="M364.9,135.5c-1,0-1.9-0.3-3-0.1c-1.1,0.2-1.6-0.6-1.2-1.6c0.3-0.8-0.1-1.1-0.7-1.3
				c-0.4-0.1-0.8-0.4-0.6-0.9c0.2-0.4,0.6-0.2,1-0.1s0.9,0.6,1.2,0c0.3-0.6-0.2-0.9-0.6-1.1c-1.2-0.9-1.5-2.4-2.7-3.3
				c-0.4-0.2-0.7-0.7-1.1-0.8c-0.9-0.2-1.7-0.8-2.8-0.6c-0.8,0.2-1.4-0.5-1.4-1.4c0-0.7-0.3-1-0.9-1.1c-0.1,0-0.1-0.1-0.2-0.1
				c-1.7-1.6-2.5-4-4.9-4.9c-0.7-1-0.1-1.4,0.8-1.4c2.5,0,4.9,1.8,5.5,4.3c0.2,0.7,0.8,0.8,1.2,1.2c0.8,1.4,2.5,1.7,3.6,2.6
				c0.5,0.4,1,0.6,1.5,0.8c1.1,0.5,1.8,1.2,1.9,2.5c0,0.8,0.3,1.4,1,1.9c0.2,0.1,0.5,0.3,0.5,0.6
				C363.2,132.6,364.6,133.9,364.9,135.5z"/>
			<path id="XMLID_93_" class="st702" d="M345.6,113.4c1-1.6,1-1.6,2.7-0.3c0.5,0.4,1.3,0.4,1.7,1.1c-0.4,0.6-1.6,0.4-1.6,1.5
				c-0.6,0.9-1.4,1.4-2.3,1.6c-1,0.8-2.2,0.7-3-0.1c-1.1-1.1,0.1-2,0.4-3c0.8-0.5,1.6,0,2.4,0.1C346,113.9,345.5,113.7,345.6,113.4z
				"/>
			<path id="XMLID_92_" class="st703" d="M367.9,143.4c0.3-0.1,0.7-0.1,0.7-0.2c1-2,2.1-0.6,3.1-0.1c0.9,0.5,1.7,0.8,2.7,0.5
				c1.7,0,2.3,1.4,3.3,2.4c0.2,0.3,0.4,0.8-0.3,0.9c-1.8-0.2-3.4-1.1-5.1-1.5c-0.9-0.2-1.8-0.5-2.7-0.7c-0.6-0.1-1.3-0.1-1.6-0.8
				C367.9,143.8,367.9,143.6,367.9,143.4z"/>
			<path id="XMLID_91_" class="st704" d="M346.1,117.2c0.5-0.9,1.6-1.1,2.2-1.8c1.7-0.3,4.8,1.1,5.5,2.6c-0.1,1.1,0.1,2.1,0.4,3.1
				c0.1,0.5,0.5,1,0.2,1.5c-1.1-0.3-1.7-0.7-1.5-2.1c0.1-1.2-1.3-1.8-2.3-2.4c-0.8-0.4-1.7-0.6-2.6-0.9c-0.8-0.2-1.2,0.1-1,1
				C346.4,118.2,346.2,117.7,346.1,117.2z"/>
			<path id="XMLID_90_" class="st705" d="M346.2,119.2c0.8-0.2,2.9,1.6,3,2.6c0.1,1.2-1.1,1.3-1.8,1.8c-0.2,0.2-0.5,0.1-0.6-0.1
				c-0.5-1.1-1.2-2.1-1.3-3.3C345.5,119.7,345.7,119.2,346.2,119.2z"/>
			<path id="XMLID_89_" class="st706" d="M345.6,113.4c0.2,0.1,0.5,0.3,0.7,0.4c0.2,0.2,0.6,0.4,0.4,0.8c-0.2,0.4-0.6,0.3-0.8,0.1
				c-0.7-0.4-1.6-0.3-2.3-0.6c-0.8-0.4-1.5-0.9-2.4-0.8c-0.4-0.4-0.3-0.7,0.1-1c0.6,0.1,1.1,0.2,1.7,0.3c0.4-0.1,0.7-0.2,1,0.1
				C344.4,113.1,345,113.4,345.6,113.4z"/>
			<path id="XMLID_88_" class="st690" d="M352,125.1c0.1,0.5,0.3,1.2-0.7,0.8c-0.4-0.2-0.4,0.1-0.4,0.4c-0.9-0.8-0.6-2.1-0.7-3
				c-0.1-1,1.1,0.2,1.6-0.1l0,0C352,123.8,351.8,124.5,352,125.1z"/>
			<path id="XMLID_87_" class="st702" d="M341.2,112.4c0,0.3-0.1,0.7-0.1,1c-1.3,0.3-1.5-0.7-1.6-1.6
				C340.1,111.7,340.6,112,341.2,112.4z"/>
			<path id="XMLID_86_" class="st707" d="M377.4,147c0.1-1.6-1.4-1.9-2.2-2.8c-0.2-0.2-0.5-0.3-0.8-0.5c-1.7-0.6-2.6-1.9-3.7-3.2
				c-1.4-1.7-3.3-3.1-5.2-4.4c-0.2-0.1-0.4-0.3-0.6-0.5c-0.8-1.3-2.2-2.2-1.8-4c0-0.2-0.1-0.5-0.2-0.6c-1.5-0.6-1.6-1.9-1.7-3.2
				c-0.1-0.8-1-1.2-1.7-1.5c-0.6-0.2-1.3-0.2-1.5-1c0.3-1.3-0.5-2.2-1.1-3.2c-0.8-1.4-0.6-2,0.7-2.5c0.3,0,0.6,0.1,0.9,0.4
				c0,0.5,0,1.1,0,1.6c0.1,0.7-0.2,1.6,1.2,1.5c0.7,0,0.9,0.8,1,1.4c0.6,2,1.8,3.9,3.1,5.1c1.5,1.5,3,3.1,4.8,4.5
				c2.1,1.7,4.2,3.6,5.1,6.3c0.1,0.3,0.4,0.4,0.7,0.7c2.8,1.8,4.9,4.5,7.8,6.2c-0.5,0.6-1.1,0.4-1.7,0.1c-0.4-0.2-0.8-0.5-1.3-0.1
				C378.6,147,377.9,147.4,377.4,147z"/>
			<path id="XMLID_85_" class="st708" d="M379.1,147.3c-0.2-0.8,0-1.3,0.8-0.6c0.7,0.5,1.3,0.9,2.1,0.7c1.6,0.9,3,2.1,4.8,2.6
				c0.1,0.4,1,0.5,0.5,1.1c-0.3,0.4-0.9,0.9-1.5,0.6c-1.1-0.6-2.5-0.3-3.3-1.8c-0.3-0.6-1.4-0.8-2.1-1.3
				C379.9,148.2,379.3,148,379.1,147.3z"/>
			<path id="XMLID_65_" class="st709" d="M358.4,119.9c-0.3,0-0.5,0-0.7-0.2c-1.3-0.7-2.6-1.3-4-1.8c-1.6-1.2-3.4-2.1-5.4-2.5
				c-0.7-2,1.1-1,1.7-1.3c1.9,0.8,4,1.1,5.9,1.7c0.3-0.1,0.4,0,0.4,0.3c-0.7,0.8-0.1,1,0.5,1.3c3.9,2.1,8.3,2.6,12.6,3.8
				c0.9,0.3,2.2,0.1,2.6,1.4c0.2,0.3,0.3,0.6,0.5,0.9c-1.8,0.1-3.6,0.3-4.9-1.4c-0.2-0.2-0.9-0.3-1-0.2c-0.8,1.2-1.4,0.4-2.2-0.1
				C362.6,120.8,360.5,120.2,358.4,119.9z"/>
			<path id="XMLID_64_" class="st710" d="M352.2,104.2c-0.6,0.3-1.2,0.7-1.8,1c-0.4,0.2-0.9,0.2-0.7,0.8c0.2,0.5,0.6,0.6,1.1,0.4
				c0.9-0.3,1.7-0.1,2.4,0.4c0.3,0.2,0.9,0.2,0.8,0.8c-0.1,0.5-0.5,0.6-1,0.6c-0.3-0.1-0.7,0-0.7,0.4s0.4,0.4,0.7,0.4
				c0.4,0,0.8-0.1,1,0.3c0.3,0.6-0.6,0.5-0.6,0.9c0,0.5-0.2,1-0.4,1.5c-0.3,1-1,1.4-1.9,0.9c-0.8-0.4-1.7-0.5-2.5-0.7l0,0
				c-0.7-1.2-1.5-2.1-2.9-2.4c-0.3-0.1-0.7-0.3-0.7-0.7c0.3-0.5,0.7-0.3,1.1-0.2c1.9,0.2,2.6-0.7,2.3-2.6c-0.1-0.7,0.2-1.3,0.8-1.3
				C350.2,104.4,351.1,103.1,352.2,104.2z"/>
			<path id="XMLID_63_" class="st711" d="M348.7,106.2c0.5,1.1-0.7,2.8-1.9,2.7c-0.6,0-1.2-0.2-1.8-0.3c-0.5,0.5-1.2,0.6-1.8,0.7
				c-0.1,0-0.2,0-0.3,0.1c-0.5-0.6-0.1-1,0.4-1.4c0.5-0.9-0.1-1.6-0.2-2.5c0-0.3-0.1-0.7,0.2-0.9c0.3-0.2,0.6-0.1,0.9,0.1
				c0.4,0.2,0.6,0.5,0.4,0.9c-0.1,0.2-0.2,0.4-0.2,0.6c0.1,0.6-0.6,1.4,0.3,1.8c0.4,0.2,0.9,0.2,1.1-0.3c0.2-0.7,1.7-0.8,0.6-2
				c-0.7-0.8,0.2-1.3,1-1.5c0.6-0.2,1.3-0.2,1.1-1c-0.1-0.7-0.7-0.7-1.3-0.6c-0.7,0.1-0.8-0.3-0.9-0.8c0.2-0.3,0.3-0.5,0.5-0.8
				c0.1,0.8,0.6,1,1.2,0.7c1.3-0.4,2.7-0.2,4.1-0.2c1.3,0.7,0.5,1.3-0.1,1.8c-0.9,0.6-1.9,1-2.9,1.3
				C347.7,105.1,347.7,105.2,348.7,106.2z"/>
			<path id="XMLID_62_" class="st712" d="M348.6,111.8c0.9-0.2,1.7-0.5,2.6,0.4c0.6,0.6,1.4,0.3,1.5-0.7c0.1-0.6,0-1.2,0.8-1.3
				c0.5-0.1,0.8,0.2,1.2,0.6c0.8,0.7,1.7,1.4,3,0.8c0.6-0.3,1.3,0,1,0.8c-0.4,1,0.1,1.3,0.8,1.5c0.9,0.3,0.7,0.9,0.7,1.5
				c-1.4-0.4-2.1-1.6-3.4-2.3c0.1,0.6,0.5,0.8,0.8,1.1c0.5,0.4,1.1,0.9,0.5,1.6c-0.4,0.6-1,0.4-1.6,0.1c-0.2-0.1-0.4-0.2-0.6-0.3
				C353.6,114,350.6,113.8,348.6,111.8z"/>
			<path id="XMLID_61_" class="st713" d="M348.7,106.2c-0.3-0.1-0.6-0.1-0.9-0.2c-0.4-0.1-0.7-0.2-0.8-0.6c0-0.5,0.4-0.6,0.8-0.6
				c1.4-0.1,2.5-1,3.6-1.5c0.6-0.3,1.5-0.7,0.6-1.7c1.9-0.4,3,1,4.3,2c-1.5-0.3-2.6,1.3-4.1,0.5c-1.2-0.2-2.2,0.6-3.3,0.8
				C348.3,105.1,348.7,105.8,348.7,106.2z"/>
			<path id="XMLID_60_" class="st693" d="M355.9,115.5c0.3,0,0.5,0,0.8,0.1c0.4,0,1,0.4,1.3-0.2c0.3-0.6-0.4-0.8-0.7-1
				c-0.2-0.2-0.6-0.4-0.7-0.6c-0.2-0.4-0.9-0.9-0.4-1.4c0.6-0.5,0.9,0.3,1.3,0.6c0.8,0.9,2,1.3,2.7,2.4c0.4,0.7,1.1,1.1,1.7,1.6l0,0
				c-1.1,0.5-2.2-0.3-3.3-0.2c-0.4,0-0.9-0.1-1.4-0.1c-0.3-0.1-0.7-0.1-0.7-0.5c-0.1-0.1-0.2-0.2-0.4-0.3
				C355.9,115.7,355.9,115.6,355.9,115.5z"/>
			<path id="XMLID_59_" class="st697" d="M360.5,104.8c1.9,0.8,3.3,2,3.5,4.2c-0.8-0.7-1.6-1.8-2.8-0.5c-0.3,0.3-1.2,0.1-1.3-0.4
				c-0.2-0.7,0.5-0.6,1-0.6c0.6,0.1,0.7-0.3,0.9-0.7c0.2-0.5,0-0.8-0.4-1.1C361,105.5,360.6,105.2,360.5,104.8z"/>
			<path id="XMLID_58_" class="st690" d="M377,140.2c0.2-0.2,0.2-0.2,0.2-0.2c1.1-0.1,1.7,0.7,2.2,1.5c0.1,0.2-0.1,0.5-0.2,0.4
				C378.4,141.4,377.5,141,377,140.2z"/>
			<path id="XMLID_57_" class="st714" d="M356.3,116.1c0.2,0.2,0.4,0.2,0.7,0.2c1.6,0.4,3.2,0.5,4.8,1c1.8,0.3,3.7,0.4,5.5,1.2
				c0.9,0.2,1.8,0,2.7,0.4c0.4,0.1,0.6,0.6,1.1,0.4c1.3,0.4,1.8,1.6,2.2,2.7c0.4,1.1-0.5,0.8-1.2,0.7c-2.3-1.1-4.7-1.6-7.2-2.1
				c-2.3-0.4-4.6-0.9-6.6-2.2c-0.6-0.4-1.4-0.5-2.1-0.7c-0.4-0.2-1-0.4-1-0.9C355.2,116.1,355.9,116.2,356.3,116.1z"/>
			<path id="XMLID_56_" class="st709" d="M361.8,117.2c-1.7,0-3.2-0.3-4.8-1c1.6-0.1,3.2,0.2,4.7,0.7
				C361.7,117,361.8,117.1,361.8,117.2z"/>
			<path id="XMLID_55_" class="st715" d="M369.9,118.8c-1,0.3-1.9,0.1-2.7-0.4C368.2,118.2,369.2,117.8,369.9,118.8z"/>
			<path id="XMLID_54_" class="st712" d="M343.2,109.3c0.4-0.7,1.2-0.6,1.8-0.7c0.4,0.5,0.9,0.7,1.5,0.8c1.3,0.3,2.1,1,2.1,2.3
				c-0.9-0.1-1-1-1.6-1.4c-1-0.6-2-1.4-3.3-0.6c-0.6,0.4-1.5,0.7-2.3,0.2c0.1,0,0.2-0.1,0.3-0.1
				C342.2,109.8,342.9,109.9,343.2,109.3z"/>
			<path id="XMLID_53_" class="st716" d="M343.9,112.8c-0.3,0.1-0.7,0.2-1-0.1c-0.1-0.4-1.2-0.6-0.4-1.1c0.6-0.4,1.5-0.3,2,0.3
				C344.9,112.3,344.3,112.6,343.9,112.8z"/>
			<path id="XMLID_52_" class="st717" d="M343.2,108c-0.1,0.5-0.5,0.8-0.4,1.4c-0.6,0.2-1.1,0.1-0.8-0.7c0.3-0.9-0.2-1.1-0.9-1.2
				c-0.2-0.5-0.1-1,0.3-1.5c0.2-0.2,0.3-0.6,0.7-0.6c0.4,0,0.6,0.4,0.7,0.7C343,106.8,343.1,107.4,343.2,108z"/>
			<path id="XMLID_51_" class="st718" d="M352,125.1c-0.9-0.6-0.6-1.3-0.1-1.9c0.9-0.1,2-0.6,1.4,1.2c-0.3,0.8,0.7,1.5,1.2,1.1
				c1.4-0.8,1.9,0.2,2.6,0.9c0.2,0.4,0.4,0.9,0.6,1.3c0.1,0.2,0.2,0.6,0.1,0.8c-0.6,0.8-1.8,0.7-2.4,1.7c-0.1,0.2-0.9-0.1-1.2-0.5
				c0.3-0.8,0.3-0.8-0.3-1.2c-0.2,0.5,0.5,0.8,0.3,1.2c-1.5,0.5-2-0.1-1.5-2C353.1,126.5,352.9,125.8,352,125.1z"/>
			<path id="XMLID_50_" class="st719" d="M353.8,117.9c1.7-0.2,2.9,0.6,4,1.8c-1.2,0.2-1.3,0.9-0.7,1.8c0.3,0.5,0.7,1,1,1.6
				c0.5,0.7,0.7,1.5-0.1,2.1c-1.2-0.8-3-0.8-3.5-2.6C353.9,121.1,352.8,119.7,353.8,117.9z"/>
			<path id="XMLID_49_" class="st720" d="M354.2,129.6c-0.1-0.1-0.2-0.2-0.3-0.3c-0.4-0.3-1-0.5-0.8-1.2c0.1-0.4,0.5-0.3,0.8-0.2
				c0.5,0.2,1.2,0.2,1.3,0.9C355.3,129.4,354.7,129.5,354.2,129.6L354.2,129.6z"/>
		</g>
	</g>
</g>
<g id="yz3">
	<g id="XMLID_187_">
		<path id="XMLID_188_" class="st721" d="M184.3,254.7c0,0,15-33.3,37.1-33.3s25.1,27.6-13.6,40.8S174.3,270.9,184.3,254.7z"/>
	</g>
</g>
<g id="yz4">
	<g id="XMLID_184_">
		<path id="XMLID_186_" class="st557" d="M445.9,350c-4.3,0.9-2-6.3-2-6.3c4.4-9.3-1.5-17.5-1.5-17.5c-3.9-16.1,6.6-24.4,14.9-24.6
			c0,0,15.5,0.9,11.8,25.3"/>
		<path id="XMLID_185_" class="st602" d="M468.8,327.2c0,0-3.7,1.5-3.8-11.3c0,0-2.2-8.6-3.9,1.9s-4.8,13.5-7.3,11.9
			s-5.1-1.5-4,11.5l-4.1,9.2C445.6,350.4,457.2,356.3,468.8,327.2z"/>
	</g>
</g>
<g id="yz5">
	<g id="XMLID_146_">
		<path id="XMLID_167_" class="st557" d="M126.7,278.9c4.3,0.3,0.1,6.6,0.1,6.6c-6.8,7.7-3.6,17.2-3.6,17.2
			c-0.9,16.5-13.3,21.4-21.3,19.3c0,0-14.6-5.3-4-27.6"/>
		<path id="XMLID_166_" class="st602" d="M98.2,294.2c0,0,4-0.3,0.4,11.9c0,0-0.4,8.9,4.3-0.7s8.4-11.6,10.4-9.3
			c1.9,2.3,4.5,2.9,7.1-9.9l6.6-7.6C127,278.6,117.7,269.6,98.2,294.2z"/>
	</g>
</g>
<g id="yz6">
	<g id="yz3_2_">
		<g id="XMLID_190_">
			<path id="XMLID_191_" class="st721" d="M536.1,46.1c0,0,15-33.3,37.1-33.3s25.1,27.6-13.6,40.8S526.1,62.3,536.1,46.1z"/>
		</g>
	</g>
</g>
<g id="yz7">
	<g id="yz3_1_">
		<g id="XMLID_145_">
			<path id="XMLID_189_" class="st721" d="M133.8,44.3c0,0,15-33.3,37.1-33.3s25.1,27.6-13.6,40.8S123.8,60.5,133.8,44.3z"/>
		</g>
	</g>
</g>
<g id="yz8">
	<g id="yz5_1_">
		<g id="XMLID_192_">
			<path id="XMLID_194_" class="st557" d="M55.8,202.6c-1.2,4.9-7.7-1.2-7.7-1.2c-7.6-9.4-19.2-7.6-19.2-7.6
				c-18.9-4.3-22.1-19.6-18.1-28.4c0,0,9-15.8,32.7,0.8"/>
			<path id="XMLID_193_" class="st602" d="M43.7,166.6c0,0-0.4,4.7-13.8-1.9c0,0-10.2-2.2,0,5.1c10.2,7.3,11.8,12,8.7,13.9
				c-3,1.7-4.2,4.6,10,10.2L56,203C56,203,68.3,194,43.7,166.6z"/>
		</g>
	</g>
</g>
<g id="yz9">
	<g id="XMLID_199_">
		<path id="XMLID_202_" class="st722" d="M490.1,417.2c0,0-2-14.6,17.8-13c14.8,1.2,18.6,2.8,25.6,12.1c2.3,3.1,5.1,7.1,8.7,12.2
			c0,0,3.1,5.1,2.3,15.7c0,0,0.9,2.3,2,5.6c1.2,3.3,3.9,9.1,0.6,12.5c0,0,0.5,8.3-8.9-2.2c0,0-7.2-8.1-18.2-13.6
			c0,0-1.7-1.2-8.2-6.4C505.3,434.9,491.3,433.1,490.1,417.2z"/>
		<path id="XMLID_201_" class="st723" d="M496.6,429.4c0,0,2.9,3.7,6.5,1.7c3.7-2,4.6,6.4,4.6,6.4l10.8,7.9c0,0,3.6-3.6-3.1-8.4
			c0,0-4.1-10.1,2.4-5.5l10.2,8.2c0,0,7,5.5,9.9,11.2c0,0,3.6,1.4,0.2-4.4c-3.4-5.8-3.7-9.6-8.5-10.8s-9.2-7-11-11.4
			s-18.5-7.6-20.4-11.1s-5.7,10.1-4,12.6C495.8,428.3,493.8,429.7,496.6,429.4z"/>
		<path id="XMLID_200_" class="st724" d="M515.6,407.6c-12.6-1.4-15.1-1.7-18.4,0.1c-3.2,1.8-7.1,6.1-6,9.4c1.1,3.3,0.7,6.5,2.8,8.8
			c2.1,2.3,6-9.5,4-12.6c0,0,9.4-12.5,38.3,7C536.4,420.3,524.7,408.6,515.6,407.6z"/>
	</g>
</g>
<g id="yz10">
	<path id="XMLID_195_" class="st722" d="M85.8,419.6c0,0-2.2-14.6,17.6-13.2c14.9,1,18.6,2.5,25.8,11.8c2.4,3.1,5.1,7,8.8,12.1
		c0,0,3.1,5.1,2.5,15.6c0,0,0.9,2.3,2.1,5.6s4,9,0.7,12.5c0,0,0.6,8.3-9-2.1c0,0-7.4-8-18.4-13.4c0,0-1.8-1.2-8.2-6.3
		S87.3,435.4,85.8,419.6z"/>
	<path id="XMLID_197_" class="st723" d="M92.5,431.7c0,0,2.9,3.7,6.6,1.7c3.7-2,4.6,6.3,4.6,6.3l10.9,7.8c0,0,3.5-3.6-3.2-8.3
		c0,0-4.2-10,2.4-5.5l10.3,8.1c0,0,7.1,5.4,10,11.1c0,0,3.6,1.3,0.2-4.4s-3.9-9.5-8.6-10.7c-4.7-1.1-9.3-6.9-11.1-11.2
		s-18.6-7.4-20.6-10.8c-2-3.5-5.6,10.2-3.8,12.6C91.7,430.7,89.7,432,92.5,431.7z"/>
	<path id="XMLID_196_" class="st724" d="M111.2,409.6c-12.6-1.3-15.2-1.5-18.4,0.3c-3.2,1.8-7,6.2-5.8,9.5c1.2,3.2,0.8,6.5,3,8.8
		c2.1,2.3,5.9-9.6,3.8-12.6c0,0,9.3-12.6,38.4,6.5C132.2,422.1,120.4,410.5,111.2,409.6z"/>
</g>
<g id="sg5">
	<g id="XMLID_204_">
		<path id="XMLID_203_" class="st725" d="M663.1,286.9c-0.4,5.8-0.9,9.4-1,14.1c-0.8,2.1-0.9,5.2-3.7,5.4c-1.9,0.1-4.2-0.8-4.4-3.5
			c-0.2-17.9,0.9-35.7,3.8-53.4c0.7-4.3,0.2-8.9,0.3-13.3c0-2.2-0.1-4.3,1.1-6.3c1.8-0.5,3,0.3,3.7,1.9c1.5,5.7,1.3,11.4,0.4,17.2
			C661.3,261.5,662.7,271.1,663.1,286.9z"/>
		<path id="XMLID_198_" class="st726" d="M663,231.7c-1.2-0.6-2.5-1.3-3.7-1.9c0.2-1.8-1.4-4.3,1.2-5.1c1.5-0.5,3,0.9,4,2.3
			C666,229.3,664.9,230.6,663,231.7z"/>
	</g>
</g>
<g id="logo">
	<image x="200" y="125" width="50%" height="50%" xlink:href="tree-logo.png" />
</g>
</svg>
