<?xml version="1.0" encoding="utf-8"?>
<!-- Generator: Adobe Illustrator 19.0.0, SVG Export Plug-In . SVG Version: 6.00 Build 0)  -->
<svg version="1.1" id="svg" xmlns="http://www.w3.org/2000/svg" xmlns:xlink="http://www.w3.org/1999/xlink" x="0px" y="0px"
	 viewBox="400 -93 1600 786" style="enable-background:new 400 -93 1600 786;" xml:space="preserve">
<style type="text/css">
	.st0{fill:#5B9550;}
	.st1{fill:#598F69;}
	.st2{fill:#588D4A;}
	.st3{fill:#5A9747;}
	.st4{fill:#D3995E;}
	.st5{fill:#5A856B;}
	.st6{fill:#557254;}
	.st7{fill:#BE9268;}
	.st8{fill:#A27F64;}
	.st9{fill:#57A34E;}
	.st10{fill:#4C7A51;}
	.st11{fill:#785B4B;}
	.st12{fill:#4F7549;}
	.st13{fill:#5F8752;}
	.st14{fill:#517A4C;}
	.st15{fill:#D78847;}
	.st16{fill:#A78268;}
	.st17{fill:#58925E;}
	.st18{fill:#BE965F;}
	.st19{fill:#68A34A;}
	.st20{fill:#B3946C;}
	.st21{fill:#D8A869;}
	.st22{fill:#568C66;}
	.st23{fill:#537B64;}
	.st24{fill:#5A9267;}
	.st25{fill:#50965A;}
	.st26{fill:#4F816D;}
	.st27{fill:#57765E;}
	.st28{fill:#BBB384;}
	.st29{fill:#6F746B;}
	.st30{fill:#557B50;}
	.st31{fill:#57874C;}
	.st32{fill:#5A9E4B;}
	.st33{fill:#5E8D51;}
	.st34{fill:#66944E;}
	.st35{fill:#5A9650;}
	.st36{fill:#538E54;}
	.st37{fill:#4A6558;}
	.st38{fill:#539154;}
	.st39{fill:#30AE71;}
	.st40{fill:#35AA76;}
	.st41{fill:#2D9F70;}
	.st42{fill:#35A879;}
	.st43{fill:#22765D;}
	.st44{fill:#339F78;}
	.st45{fill:#2E9170;}
	.st46{fill:#28A06E;}
	.st47{fill:#183431;}
	.st48{fill:#46BD84;}
	.st49{fill:#2C8569;}
	.st50{fill:#141C21;}
	.st51{fill:#1A4E40;}
	.st52{fill:#217257;}
	.st53{fill:#31A176;}
	.st54{fill:#2EB770;}
	.st55{fill:#2A9A6F;}
	.st56{fill:#3AB379;}
	.st57{fill:#27BB6C;}
	.st58{fill:#44BA7D;}
	.st59{fill:#2DAF74;}
	.st60{fill:#25B86E;}
	.st61{fill:#44BF80;}
	.st62{fill:#1B634D;}
	.st63{fill:#174B3D;}
	.st64{fill:#277F63;}
	.st65{fill:#1E5F4C;}
	.st66{fill:#52CD91;}
	.st67{fill:#40AD82;}
	.st68{fill:#0F7454;}
	.st69{fill:#142524;}
	.st70{fill:#309672;}
	.st71{fill:#2CBD71;}
	.st72{fill:#238666;}
	.st73{fill:#6CA356;}
	.st74{fill:#1CD568;}
	.st75{fill:#38BA7B;}
	.st76{fill:#2EA770;}
	.st77{fill:#24B869;}
	.st78{fill:#11C75B;}
	.st79{fill:#568D4C;}
	.st80{fill:#C89058;}
</style>
<g id="bg">
	
		<image style="overflow:visible;enable-background:new    ;" width="1600" height="786" xlink:href="tree-1600x786.png"  transform="matrix(1 0 0 1 400 -93)">
	</image>
</g>
<g id="sg2">
	<g id="图层_3">
		<g id="XMLID_2_">
			<path id="XMLID_84_" class="st0" d="M898.4,310.5c1.3-3,0.8-6.2,1-9.2c0.8-12.4,1.3-24.9,2-37.5c0-0.7,0.2-1.3,0.3-2
				c0.2,0,0.2,0.3,0.3,0.5c0.2,0.2,0.2,0.2,0.2-0.2c0.2-4.7,0.5-9.2,0.5-13.9c0-0.5,0-1,0.3-1.3c2,0.7,0.8,2.4,1.3,3.4
				c0.5-0.3,0.8-1.7,2-0.7c1.2,2,1,3.9,0.5,6c-0.8,3.4-1.3,6.9-2.2,10.2c-0.8,3,0.3,5.9,1,8.9c-0.2,3.9-0.8,7.6-1.5,11.3
				c-1.2,5.9-0.5,11.9-0.8,18c-0.2,1.8,0,3.5,0.7,5.5c1.7-1.5,3.5-2.7,4.5-4.5c0.5-2.2,1.5-4,3.4-5.4c1-0.8,1.5-2,2-3.2
				c0.3-0.8,0.5-2,1.8-1.8c0,3.9,0,7.6,0,11.4c-0.7,2.2-0.7,4.5-0.5,6.7c0.2,3.2-0.2,6-2.4,8.6c-2,2-4.4,3.5-7.2,4.4
				c-1,0.3-2.2,0.5-3-0.3c-2.5-2.4-3-5.5-4.2-8.4C898.4,314.5,898.4,312.5,898.4,310.5z"/>
			<path id="XMLID_83_" class="st1" d="M898.4,316.5c2.2,2.4,2.9,5.7,4.2,8.4c-2.5-0.3-3-2.7-4.2-4.2
				C898.4,319.4,898.4,318,898.4,316.5z"/>
			<path id="XMLID_82_" class="st2" d="M905,274.5c-1.5-4.2-1.3-8.1-0.2-12.4c1.2-4,2.9-8.2,1.3-12.8c-1.3-4.7-0.5-9.4,0-14.1
				c0.8-7.1,1.7-14.3,3-21.3c0.7-4.4,0.2-8.7,1-13.1c0-1.2,0-2.5,0.2-3.7c1.3-5.5,1-11.1,0.8-16.6c0-0.3,0-0.7,0.2-1
				c2.4-1.2,3.9-0.2,3.5,2.4c-1,7.9,0,15.8-0.3,23.7c-0.2,5.9,0,11.9-1.7,17.8c-0.8,2.9,0,5.7,0.3,8.6c0.2,2.2,0.5,4.4,0.3,6.6
				c-0.2,0.3,0.7,0.3,0.2,0.2c0,0,0-0.2,0-0.3c0.2-0.5,0.3-1.2,1.2-1.2c1.2,4,0,7.9-0.3,11.9c-1,3.9,0.2,7.7,0,11.8
				c0,2,0.2,4.2,0.2,6.2c0,0.3-0.2,0,0,0.3c0.3,0.3,0.2-0.3,0.3-0.3c0.8,4.9,0.3,9.9,0.5,14.9c0.2,4,0,8.2,0,12.3
				c-1,0.3-1.2,1.2-1.2,2.2c0,1.2-0.7,2.2-1.5,2.9c-2.2,1.5-3.4,3.4-3.9,5.9c-1.7-2.7-1.2-5.9-0.8-8.7c0.7-6.6,0.3-12.9,0.5-19.5
				c0.5-2.9,0.2-5.7-0.2-8.6c-0.3-3-0.3-5.9,0.3-8.9c0.7-3-0.3-6-0.5-9.2c-0.2,4.5-2.2,9.1-0.5,13.9c1,3,0.3,6-0.2,9.1
				C907.3,274.5,906.1,274.5,905,274.5z"/>
			<path id="XMLID_81_" class="st3" d="M915.1,237.4c-1.2,1,0.5,4-1.7,3.7c-1.7-0.2-0.3-2.7-0.5-4c-0.5-3.7-0.5-7.4-1.2-10.9
				c-0.3-2,1-3.4,1.2-5.2c0.8-7.1,1-13.9,1-21c0-4.4,0.2-8.9-0.3-13.3c-0.2-1.5,0.5-2.9,0.8-4.4c0.5-2.2-0.2-2.9-2.7-2.5
				c-0.5-0.7-0.3-1.2,0.3-1.5c2.2-0.8,3.7,1.3,5.7,1.5c0.3,14.4,0.5,28.9-1.2,43.3C915.9,227.8,914.4,232.5,915.1,237.4z"/>
			<path id="XMLID_80_" class="st4" d="M917.6,179.8c-1,0.5-2,0.8-2.9-0.2c-0.7-0.8-1.5-1.2-2.5-1c-1.3-0.3-2.5-1-2.9-2.5
				c0-0.7-0.2-1.5,0.2-2.2c0.2-0.2,0.3-0.3,0.5-0.3c1.2,0,2.2,0.5,2.9-1.2c0.8-1.8-1.3-1.7-1.5-2.7c0.5-1.3,1.5-1.5,2.5-0.8
				c1.8,0.5,3.2,1.5,4.2,3c1.2,1.5,2.2,3,3,4.9C919.9,177.6,918.4,178.3,917.6,179.8z"/>
			<path id="XMLID_79_" class="st5" d="M912.9,321.1c2.7-4.7,0.7-10.4,2.9-15.3c0,3.9,0,7.7,0,11.6
				C915.9,319.2,914.2,320,912.9,321.1z"/>
			<path id="XMLID_78_" class="st6" d="M915.4,267.1c-0.3,0.8,0.2,1.8-0.7,2.7c0-6.4-1-12.6-0.7-18.8c0-0.7,0-1.3,0.7-1.8
				C914.9,255.2,915.1,261.3,915.4,267.1z"/>
			<path id="XMLID_77_" class="st7" d="M914,168.9c-1,0-2,0.2-2.4,1.2c-0.3,0.8-0.8,1.7-2,1c-0.5-0.8-0.5-1.8-0.3-2.7
				c0.2-0.3,0.3-0.5,0.5-0.8c-0.2-0.2-0.2-0.2,0-0.3C911.4,167.7,912.9,167.7,914,168.9z"/>
			<path id="XMLID_76_" class="st8" d="M921.3,176.8c-1.3-1.3-2.4-3-3-4.9C919.6,173.2,921.4,174.4,921.3,176.8z"/>
			<path id="XMLID_75_" class="st9" d="M909.8,175.9c0.3,1.2,1.7,1.7,2.4,2.5c-0.5,0.3-0.5,0.7-0.5,1.2c0,0.2,0,0.3,0,0.7
				c-0.2,5.5,1,11.3-0.7,16.8c0,1.2,0,2.4,0,3.5c-1.2,3.2-0.8,6.6-0.8,9.9c0,1,0.3,2.2-0.3,3.2c-0.7,5.4-1.3,10.8-2,16.1
				c-0.7,5.5-1.5,11.1-1.2,16.6c0,1-0.3,1.7-0.3,2.5c-1.8,0.7-0.7,2.7-2,4.4c-0.7-2.5-0.3-4.7-0.5-6.7c-0.7-0.8-0.7-1.8-0.5-2.9
				c1-7.7,0.5-15.6,2.7-23c0.5-1.7,0.2-3.5,0.2-5.4c0.2-6.4-0.3-12.8,0.8-19.1c0.2-0.8,0.2-1.5-0.2-2.4c0.5-6,1.2-12.1,1.7-18.1
				c0.2-0.2,0.3-0.3,0.5-0.3C909.5,175.8,909.7,175.9,909.8,175.9z"/>
			<path id="XMLID_74_" class="st10" d="M907,194.1c0.8,0.8,0.7,2,0.5,2.9c-1.2,6.4-0.7,12.8-0.5,19.1c0.2,4.9-1.5,9.4-2,14.1
				c-0.5,5.5-0.7,11.1-1.2,16.6c-1,0.8-0.5,2-0.5,3.2c0.2,4.7-0.2,9.6-0.8,14.3c-0.7-0.7-0.2-1.7-0.5-2.5c0.5-11.9,0.7-24,2.7-35.8
				c1-6.2,1.2-12.4,1-18.8C905.5,202.8,906.5,198.4,907,194.1z"/>
			<path id="XMLID_73_" class="st11" d="M909.3,175.9c-0.2,0-0.3,0.2-0.7,0.2c-0.2-2-0.5-4-0.7-6.2c0-1.2-0.2-2.5,1.8-2.2
				c0,0.2,0,0.3,0,0.5C909,170.9,910.3,173.4,909.3,175.9z"/>
			<path id="XMLID_72_" class="st12" d="M909.8,276.4c0.5,9.6-0.8,19.1-0.7,28.7c-0.8,2.5-3.7,3.2-4.9,5.5c-0.3,0.7-1,0.2-1.2-0.5
				c-0.2-1.8-0.5-3.7-0.7-5.5c0.7-1.2,0.2-2.4,0.3-3.5c0-0.8,0-1.8,1-1.8c2.4,0,2-1.7,2-3.2c0-5,0-9.9,0.2-14.9c0-1.5,0.2-3,1-4.4
				C907.8,275.9,908.8,275.5,909.8,276.4z"/>
			<path id="XMLID_71_" class="st13" d="M907.5,276.9c-0.8,6.7-0.5,13.4-0.7,20.2c0,2.7,0,2.7-2.7,2.5c-0.8,0-0.8,0.7-1,1.2
				c-0.3,1.2,0.5,2.7-0.7,3.7c0.2-6.2-0.7-12.3,0.7-18.5c0.8-3.9,1.5-7.7,1.8-11.6c0.7-0.7,1.3-1.5,2.4-0.7
				C909.3,274.9,907.8,275.9,907.5,276.9z"/>
			<path id="XMLID_70_" class="st14" d="M907.5,276.9c-0.5-1,1-2,0-3c0.3-4.7,0-9.1-0.8-13.8c-0.7-3.7,1.2-7.6,1-11.4
				c0-0.5,0.3-0.8,1-0.8c0.5,0,0.5,0.5,0.7,0.8c0.3,1,0.7,1.8,0.5,2.9c-0.5,3.5,1,7.1-0.5,10.8c-1.2,2.9,0.2,6,0.5,9.1
				c0.2,1.7,0.2,3.4-0.2,4.9C909,276.2,908.2,276.5,907.5,276.9z"/>
			<path id="XMLID_69_" class="st3" d="M911,197.1c1.3-5.5-0.7-11.3,0.7-16.8c1.2,4.2,0.7,8.6,0.3,12.9
				C911.9,194.4,912.2,196.1,911,197.1z"/>
			<path id="XMLID_68_" class="st3" d="M909.8,213.9c0-3.4,0-6.7,0-9.9c0-1.2,0.3-2.4,1.2-3.2C910,205.2,911,209.7,909.8,213.9z"/>
			<path id="XMLID_67_" class="st15" d="M909.8,171.2c0.7-0.3,1.2-0.8,1.8-1.2c0.8,0.2,2.5-0.3,2.5,0.8c-0.2,1.2-0.3,2.7-1.3,3.7
				c-1.2,1-1.8-0.5-2.9-0.8C909.3,172.9,909.3,172.1,909.8,171.2z"/>
			<path id="XMLID_66_" class="st16" d="M909.8,171.2c0,0.8,0,1.7,0,2.5c0,0.7,0,1.5,0,2.2h-0.3h-0.3c0.2-2.5-0.7-5.2,0.5-7.7
				C909.8,169.4,909.8,170.2,909.8,171.2z"/>
		</g>
	</g>
</g>
<g id="sg1">
	<g id="图层_3_1_">
		<g id="XMLID_151_">
			<path id="XMLID_183_" class="st0" d="M1392.6,139.7c2.1-2.2,2.8-5.1,4-7.8c4.9-10.6,9.6-21.3,14.3-32c0.3-0.6,0.7-1.1,1-1.7
				c0.2,0.1,0.1,0.4,0.1,0.5c0.1,0.3,0.1,0.2,0.2,0c1.7-4,3.5-7.9,5.2-12c0.2-0.4,0.3-0.9,0.8-1.1c1.6,1.2-0.1,2.2,0,3.4
				c0.5-0.1,1.3-1.2,1.9,0.1c0.4,2.1-0.4,3.8-1.6,5.5c-1.9,2.6-3.5,5.5-5.4,8.1c-1.7,2.3-1.7,5.3-2.1,8c-1.4,3.3-3.2,6.3-5.1,9.3
				c-3.1,4.8-4.5,10.3-6.7,15.4c-0.7,1.5-1.2,3.1-1.2,5.1c2-0.7,3.9-1.1,5.5-2.5c1.2-1.7,2.6-3,4.7-3.6c1.2-0.3,2-1.2,2.8-2.2
				c0.5-0.7,1.1-1.6,2.2-0.9c-1.3,3.3-2.5,6.6-3.8,10c-1.3,1.7-2.1,3.7-2.7,5.7c-0.9,2.8-2.2,5.2-4.9,6.7c-2.5,1.2-5.1,1.6-7.8,1.3
				c-1-0.1-2-0.3-2.6-1.3c-1.4-2.8-0.7-5.8-0.8-8.8C1391.3,143.2,1392,141.5,1392.6,139.7z"/>
			<path id="XMLID_182_" class="st1" d="M1390.6,145c1.1,2.9,0.5,5.9,0.8,8.8c-2.1-1.1-1.7-3.3-2.2-5.1
				C1389.7,147.4,1390.1,146.2,1390.6,145z"/>
			<path id="XMLID_181_" class="st2" d="M1410.5,110.5c0.1-4.1,1.5-7.6,4-11c2.3-3.2,5.2-6.3,5.5-10.7c0.4-4.6,2.7-8.5,4.8-12.4
				c3.1-6,6.2-11.9,9.7-17.6c2.1-3.5,3.1-7.6,5.2-11.1c0.4-1.1,0.9-2.2,1.5-3.2c3.1-4.3,4.6-9.3,6.3-14.2c0.1-0.3,0.3-0.6,0.5-0.8
				c2.4-0.2,3.5,1.2,2.4,3.3c-3.5,6.6-5.4,13.8-8.2,20.7c-2.1,5.1-4,10.4-7.5,15c-1.7,2.2-1.9,5-2.6,7.6c-0.6,2-1.1,4-1.9,5.9
				c-0.3,0.2,0.4,0.5,0.1,0.2c0,0,0-0.1,0.2-0.2c0.4-0.4,0.7-0.9,1.4-0.7c-0.3,3.9-2.6,7-4.3,10.3c-2.2,3.1-2.5,6.9-3.9,10.3
				c-0.7,1.8-1.3,3.7-1.9,5.5c-0.1,0.4-0.2-0.1-0.1,0.2c0.1,0.4,0.2-0.3,0.4-0.1c-0.9,4.6-3,8.8-4.5,13.2c-1.3,3.6-2.8,7.1-4.1,10.7
				c-1,0-1.5,0.6-1.8,1.5c-0.3,1.1-1.3,1.7-2.2,1.9c-2.3,0.6-4.1,1.8-5.4,3.8c-0.6-3,1-5.5,2.2-7.9c2.7-5.5,4.6-11.2,7-16.8
				c1.4-2.4,2.1-5,2.8-7.6c0.7-2.7,1.6-5.2,3.2-7.7c1.6-2.4,1.8-5.4,2.7-8.2c-1.7,4-4.9,7.3-5.1,12c-0.1,3-1.7,5.5-3.2,8
				C1412.5,111.2,1411.5,110.9,1410.5,110.5z"/>
			<path id="XMLID_180_" class="st3" d="M1431.7,81.3c-1.4,0.5-0.8,3.7-2.8,2.7c-1.4-0.8,0.6-2.4,0.9-3.7c0.8-3.3,1.9-6.6,2.6-10
				c0.4-1.9,2-2.7,2.7-4.1c3-5.9,5.6-11.9,7.9-18.1c1.4-3.9,3.1-7.7,4.2-11.8c0.4-1.4,1.4-2.4,2.2-3.5c1.2-1.7,0.8-2.6-1.5-3.1
				c-0.2-0.7,0.1-1.1,0.8-1.2c2.2,0.1,2.7,2.5,4.4,3.2c-4.6,12.7-9.2,25.5-15.5,37.5C1435.6,73.2,1432.7,76.8,1431.7,81.3z"/>
			<path id="XMLID_179_" class="st4" d="M1453.2,31.7c-1,0.1-2,0.1-2.4-1.1c-0.3-0.9-1-1.5-1.9-1.7c-1.1-0.8-1.9-1.7-1.7-3.2
				c0.2-0.7,0.4-1.3,0.9-1.8c0.2-0.1,0.4-0.2,0.5-0.1c1,0.4,1.8,1.1,2.9,0c1.4-1.3-0.6-1.9-0.4-2.8c0.9-1.1,1.7-0.8,2.6,0.1
				c1.4,1,2.2,2.4,2.6,4c0.5,1.7,0.9,3.5,1,5.3C1455.9,30.7,1454.4,30.7,1453.2,31.7z"/>
			<path id="XMLID_178_" class="st5" d="M1401.8,153.7c4-3.3,4.1-8.9,7.7-12.4c-1.3,3.4-2.6,6.7-3.8,10.1
				C1404.9,153.2,1403.2,153.3,1401.8,153.7z"/>
			<path id="XMLID_177_" class="st6" d="M1421.9,107.5c-0.5,0.6-0.4,1.6-1.4,2.2c2.1-5.6,3.3-11.3,5.7-16.6c0.3-0.6,0.5-1.2,1.2-1.4
				C1425.6,96.9,1423.7,102.2,1421.9,107.5z"/>
			<path id="XMLID_176_" class="st7" d="M1453.7,21.1c-0.9-0.4-1.8-0.6-2.5,0.2c-0.6,0.7-1.3,1.3-2.2,0.3c-0.2-0.9,0.1-1.7,0.7-2.5
				c0.2-0.2,0.5-0.4,0.7-0.5c-0.1-0.1,0-0.2,0.1-0.3C1451.7,19.2,1453.1,19.6,1453.7,21.1z"/>
			<path id="XMLID_175_" class="st8" d="M1457.3,30.4c-0.8-1.7-1-3.5-1-5.3C1457.1,26.8,1458.4,28.4,1457.3,30.4z"/>
			<path id="XMLID_174_" class="st9" d="M1447.7,25.9c-0.1,1.2,0.9,2,1.2,3c-0.5,0.1-0.7,0.4-0.9,0.8c-0.1,0.2-0.1,0.4-0.2,0.5
				c-2,4.9-2.9,10.2-6.2,14.5c-0.4,1-0.8,2.1-1.2,3.1c-2.2,2.4-3,5.5-4.2,8.4c-0.4,0.9-0.5,2-1.3,2.7c-2.4,4.5-4.8,9-7.2,13.4
				c-2.5,4.6-5.1,9.2-6.6,14.2c-0.3,0.9-0.9,1.4-1.1,2.2c-1.8,0-1.5,2.1-3.2,3.2c0.2-2.5,1.3-4.2,1.9-6.1c-0.4-1,0-1.9,0.5-2.7
				c3.4-6.4,5.7-13.4,10.2-19.3c1-1.3,1.3-3.1,2-4.6c2.2-5.5,3.9-11.3,7.2-16.4c0.4-0.6,0.7-1.3,0.7-2.1c2.5-5.1,5-10.2,7.6-15.2
				c0.2-0.1,0.4-0.1,0.6-0.1C1447.4,25.6,1447.6,25.7,1447.7,25.9z"/>
			<path id="XMLID_173_" class="st10" d="M1439.1,40.8c0.4,1-0.1,1.9-0.6,2.7c-3.1,5.2-4.8,11-6.8,16.6c-1.5,4.3-4.5,7.7-6.5,11.7
				c-2.3,4.7-4.3,9.5-6.5,14.2c-1.1,0.5-1.2,1.6-1.5,2.5c-1.5,4.2-3.3,8.3-5.6,12.2c-0.3-0.9,0.4-1.6,0.4-2.4
				c4.5-10.3,8.6-20.8,14.3-30.5c3-5.1,5.2-10.5,7.2-16C1434.9,47.9,1437.2,44.4,1439.1,40.8z"/>
			<path id="XMLID_172_" class="st11" d="M1447.2,25.7c-0.2,0-0.4-0.1-0.5-0.1c0.5-1.9,0.9-3.8,1.5-5.6c0.3-1,0.8-2.3,2.3-1.3
				c-0.1,0.2-0.1,0.3-0.2,0.5C1448.7,21.1,1448.9,23.8,1447.2,25.7z"/>
			<path id="XMLID_158_" class="st12" d="M1414.1,113.6c-2.8,8.6-7.1,16.5-10.2,25c-1.6,1.9-4.3,1.6-6,3.2c-0.5,0.5-1-0.2-0.8-0.9
				c0.4-1.7,0.9-3.4,1.3-5.1c0.9-0.8,1-2,1.4-3c0.3-0.7,0.7-1.6,1.5-1.3c2.1,0.7,2.3-0.9,2.8-2.1c1.7-4.3,3.4-8.7,5.1-13
				c0.5-1.3,1.1-2.6,2.3-3.4C1412.5,112.6,1413.4,112.6,1414.1,113.6z"/>
			<path id="XMLID_157_" class="st13" d="M1411.8,113.4c-3,5.6-4.9,11.6-7.3,17.4c-0.9,2.3-0.9,2.3-3.2,1.3
				c-0.8-0.4-0.9,0.3-1.2,0.7c-0.6,1-0.5,2.4-1.8,3c2.2-5.3,3.6-11,6.7-15.9c2-3.1,3.9-6.2,5.4-9.6c0.8-0.4,1.7-0.8,2.3,0.3
				C1414.1,112.3,1412.4,112.6,1411.8,113.4z"/>
			<path id="XMLID_156_" class="st14" d="M1411.8,113.4c0-1,1.6-1.4,1-2.6c1.9-3.9,3-8,3.9-12.3c0.7-3.4,3.5-6.2,4.7-9.7
				c0.1-0.4,0.6-0.7,1.2-0.5c0.5,0.2,0.3,0.6,0.4,0.9c0,0.9,0,1.9-0.5,2.7c-1.6,3-1.5,6.5-4,9.3c-1.9,2.1-1.8,5.4-2.6,8.2
				c-0.4,1.5-1,2.9-1.7,4.3C1413.3,113.3,1412.5,113.3,1411.8,113.4z"/>
			<path id="XMLID_155_" class="st3" d="M1441.6,44.8c3-4.4,3.2-10,6.2-14.5c-0.4,4.1-2.3,7.7-4.1,11.4
				C1443.2,42.7,1443,44.2,1441.6,44.8z"/>
			<path id="XMLID_154_" class="st3" d="M1435,59c1.1-2.9,2.2-5.8,3.4-8.7c0.4-1,1.1-1.9,2.1-2.4C1438,51.3,1437.5,55.7,1435,59z"/>
			<path id="XMLID_153_" class="st15" d="M1449.3,21.7c0.7-0.1,1.3-0.3,2-0.4c0.8,0.4,2.3,0.6,1.9,1.5c-0.5,1-1.2,2.3-2.5,2.7
				c-1.3,0.4-1.5-1.1-2.2-1.7C1448.3,23,1448.6,22.3,1449.3,21.7z"/>
			<path id="XMLID_152_" class="st16" d="M1449.3,21.7c-0.3,0.7-0.6,1.5-0.8,2.2c-0.2,0.7-0.5,1.3-0.7,2l-0.3-0.1l-0.2-0.2
				c1.1-2.2,1.2-4.7,3-6.5C1449.9,20,1449.6,20.9,1449.3,21.7z"/>
		</g>
	</g>
</g>
<g id="sg3">
	<g id="图层_2_1_">
		<g id="XMLID_4_">
			<path id="XMLID_171_" class="st17" d="M941.2,389.4c-2.3,0.3-4.6,1-7,1.3c-6.6,0-13.3,2-19.9,3c-2,0.3-4.3,0.3-6.3,1
				c-3-0.3-5.6-0.3-8.6-0.7c-1.7,0-3.7-0.3-4.6,1.7c-0.7,0-1,0-1.7,0c-1.3-1.3-5.3,0-3.7-4c4.3-3,9.3-2.7,13.9-2.7
				c10,0,19.6-3,29.5-3.3c2.7,0,5.3-0.3,7.6-0.3c1.3,0,2.7,0.3,3,1.7C944.2,389.1,941.5,388.1,941.2,389.4z"/>
			<path id="XMLID_170_" class="st18" d="M1065,337.7c1.3,0,2.7,0,4,0c0.7,0.7,2,0.3,2,1.7c-0.7,4,0,7.6,4,10c0.3,1,0,1.7-0.7,2
				c-1,0.7-2,1.3-3.3,1.3c-2-1.3-4-3-4.6,1c0,0.7-0.7,1.3-1.7,1.3c-1.3,0-2-1-2.3-2c-0.7-2.7-0.3-5.3-0.3-8c0-1,0-1.7,0-2.7
				C1062.3,340.3,1062.3,338,1065,337.7z"/>
			<path id="XMLID_169_" class="st19" d="M1065,337.7c-2,1.3-1.7,3-1.7,5c-2.3-0.3-4.6,0-6.6,0.7c-3.7,1.3-7.3,0.7-11,0
				c-2-0.3-4.6,0.3-5.3-2.7c4.6-1.3,9.6-1.7,14.3-2.3c1,0,2.3,0.3,3-0.7C1060,337.7,1062.3,337.7,1065,337.7z"/>
			<path id="XMLID_168_" class="st20" d="M1074.9,349c-2.3,0.3-4.6-2.7-5-6.3c0-1.3,0.3-2.7,1-4c3.7-1,5,1.7,6.3,4.3
				c0.7,1,0.3,2.3,1,3.3c0,0.3,0,0.7,0,0.7C1077.2,348.3,1076.3,349.3,1074.9,349z"/>
			<path id="XMLID_165_" class="st21" d="M1074.9,349c1-1,1.7-2,3.3-1.7c0,0.7,0,1.7,0,2.3c-1.3,0.7-1.3,2.3-2,3.3
				c-2.3,0.7-3-0.3-2.3-2.3C1074.6,350.3,1074.9,349.6,1074.9,349z"/>
			<path id="XMLID_164_" class="st22" d="M1022.5,373.8c-9,2.3-18.3,4-27.2,5.6c-0.3-2,1-3.3,1.7-4.6c1.3-2.3,2.3-5,2.3-7.6
				c0.3-1.7,1.3-3,3.3-3c1.3,0,2.7-0.7,3.7-1.7c1.3-1,3-1.3,4.6-0.7c2.3,1.3,4.6,1,7,0.7c2.3-0.3,4-0.7,4.6-3c0.3-1.3,1.3-2,2.7-2.3
				c4.3-0.7,8.6-2,13.3-1c1.7,0.3,3,0,4.3-1c2.7-2,5.6-3.3,9-3c2.7,0.3,3.3-2.7,4.6-4c4.6-1.7,5.3-0.7,6.3,5.3
				c0.7,4.6,4.6,4.6,8.3,5.3c-4.3,4.3-10.3,6-15.9,7.6c-3,1-6,1.3-9,2C1038.1,369.2,1030.1,371.5,1022.5,373.8z"/>
			<path id="XMLID_163_" class="st23" d="M889.1,392.8c-1.3-0.7-2.7-2-3-3.3c4.3-4.3,9.3-6.3,15.3-5c1.7,0.3,2-1,2.7-2
				c2.3-4,4.3-4.3,7.6-1.3c2,2,4.6,1.3,6,0c2.7-3.7,4.3-1.3,6,0.3c4.6,1.7,9,0.3,12.9-2.3c0.3-0.3,1-0.7,1.7-1c3-0.7,6-0.7,9-1
				c7-0.7,13.3-2.3,19.9-4.3c1.7-0.7,3,0,4.3,0.3c3.7,0.7,7.3,1,10.3-2c0.7-0.7,1.3-1.3,2.3-1c4,1.3,5.6-1.3,7-4.3
				c0-0.3,0.7-0.7,1-0.7c0.7,0,1.3,0,2,0.3c1.7,3.7,0,6.6-2,9.3c-1,1.3-2,2.3-2.7,3.3c-3.7,2-7.6,2.7-11.6,3.3
				c-8.6,1.7-17.3,3.7-26.2,5c-1.3,0.3-3,0.3-3.7,2c-2,0.3-4.3,0.7-6.3,1c-1-2,2.3-0.3,1.7-2.3c-6-1.3-12.3-0.3-18.3,1
				c-9,2-17.9,1.7-26.9,2.7C894.7,391.1,891.7,391.4,889.1,392.8z"/>
			<path id="XMLID_162_" class="st24" d="M947.5,388.5c-1-1-2.7-2.7,0.3-3c9-0.7,17.6-3.3,26.5-4.6c4.6-0.7,9.6-2,14.3-3
				c2.3-1.3,3.7,0,5,1.7c-12.3,3-24.6,5-36.8,7.3C953.8,387.5,950.5,387.8,947.5,388.5z"/>
			<path id="XMLID_161_" class="st25" d="M993.6,379.5c-2,0-3-2.3-5-1.7c0-1,0-2,0.7-2.7c4-2.3,3.7-6,4.3-9.6c-0.7-1,0-2,0.7-2.7
				c0.3-0.3,0.7-0.3,1-0.3c0.7,0,1.3,0.7,2,1.3c0.7,1.3,1.7,2.3,3,3.3c0.7,5-2.7,8.3-5,12.3C994.6,379.5,994.3,379.5,993.6,379.5z"
				/>
			<path id="XMLID_160_" class="st20" d="M1070.9,358.9c-6,1.3-8,0.3-8.6-5c-0.7-2-0.3-4.3-0.7-6.3c-0.3-1,0-2.7,1.7-2.7
				c0,2.7,0,5,0,7.6c0,1,0.3,1.7,1.3,1.7c1.3,0,1-1,1-1.7s0.3-1.3,0.3-2c0.3-1,0.7-2.3,2-2c1,0,1.3,1,1.7,2s0.7,1.3,1.7,1.7
				c0.7,1.3-0.3,2.3-1,3.3c-2,2,0.3,2,1,2.7C1071.3,358.3,1071.3,358.6,1070.9,358.9z"/>
			<path id="XMLID_159_" class="st26" d="M1022.5,373.8c-0.3-0.3-1.3-0.7-1-0.7c8.3-1.7,15.9-6,24.6-4.6
				C1038.4,370.9,1030.5,372.5,1022.5,373.8z"/>
			<path id="XMLID_113_" class="st27" d="M908.3,394.8c5.3-3,11.6-2.7,17.3-3.7c2.7-0.7,6-2.3,9-0.3
				C925.6,392.4,917.3,394.8,908.3,394.8z"/>
			<path id="XMLID_112_" class="st28" d="M1071.6,358.3c-2.7,0.3-3.3-0.7-2-3c0.7-1,1-1.7,1.7-2.7c0.3-1,1.3-1.7,2.3-1.7
				c0,1.3,0.7,2.3,2.3,2.3c-0.3,0.7-0.7,1.3-1,1.7C1073.3,355.3,1072.6,356.9,1071.6,358.3L1071.6,358.3z"/>
			<path id="XMLID_111_" class="st29" d="M1071.6,358.3c0.7-1.7,0.3-4.3,3.7-3.3C1074.6,356.6,1072.9,357.3,1071.6,358.3z"/>
			<path id="XMLID_110_" class="st30" d="M994.3,362.9c-0.3,0.7-0.7,1.7-0.7,2.3c-0.7,0-1,0-1.7,0c-1-1-2.7-1-4-0.7
				c-5.3,1-11,1.3-15.9,4c-3,1.7-7,1.3-10.3,1.7c-8.6,0.7-16.3,3.7-24.2,6.6c-1.7,0.7,0.7,1,0.3,1.3c-0.3,0.3-0.7,0.7-1,0.7
				c-4.6,1.7-9.3,1.7-13.9,2.3c-1.7,0-2.3-1.3-2.7-2.7c-2.7,4.6-7,5-10.3,1c-0.3-0.7-1-2-1.7-1c-1.3,1.3-3.7,1.3-3.7,4
				c0,2-0.7,3.3-3,2c-1.3-1-2.7-2-4.3-2c-1,0-2.3,0.3-2.7-1c-0.7-1.3,0-2.7,1-3.7s2-1.3,3-2.3c-1-0.3-2.7,0.3-3-1.3
				c6.6-3.7,13.9-6.3,21.2-8.6c0.7,1,0.7,1-0.7,2.7c3.3-0.3,5.6-2.3,8.6-2.7c8.6,0.7,16.6-3,24.6-5.3c5-1.7,10.3-2.7,15.6-2.7
				c1.3,0,2.7,0,4-0.7c4.6-2.3,9.6-2.7,14.6-4.3c5-1.7,7.3,0,9,5C993,359.9,994.6,360.9,994.3,362.9z"/>
			<path id="XMLID_109_" class="st31" d="M994.3,362.9c-1.7-2-3.3-3.7-3.3-6.6c0-2.3-4.3-3.7-8-2c-5,2.3-10.3,2.7-15.3,4.3
				c-3.3,1.3-7.6,1-11.3,1.3c-5.3,0.7-9.6,3-14.6,4.3c-2,0.7-3.7,2.7-6,0.7l-0.7-0.3c-2.7,5.3-7,1-10.6,2c1.7-3,5.3-2.7,7.6-4
				c1.7-0.7,2.7-1.3,3-3.3c13.6-5.3,27.9-8.3,42.5-10c6-0.7,12.3-1.3,18.3-1.7c2,5,0.3,10-0.7,14.9
				C994.9,362.9,994.6,362.9,994.3,362.9z"/>
			<path id="XMLID_108_" class="st32" d="M995.3,362.9c-0.3-2-1.3-4,0.3-6c1-1.3,0.7-3.3,0-5c-0.7-1.3-0.3-2.7,0.3-4
				c14.9-1.7,29.5-4.6,44.1-7.3c1.3,1.7,3.3,1,5,1.7c-3,4.3-7.6,6.6-12.3,8c-5.3,1.7-10.6,3-15.9,2.7c-0.7,0-1.7-0.3-2,0.3
				c-3.7,5-8,3-12.6,1.7c-1,1.3-0.7,3-1.3,4.6c-1,1.7-1.3,4.3-4.3,4C996.3,363.6,995.6,363.2,995.3,362.9z"/>
			<path id="XMLID_107_" class="st33" d="M896.1,374.8c1.3,1.3,3,0,4.6,0.7c-0.7,2-2.3,2.3-4,3.3c-1,0.7-2,2-1.3,3
				c0.7,1.3,1.7,0.3,2.3,0c2.3,0,3.7,1,4,3.3c-4.3-0.3-9-1-12.3,3c-1,1.3-2.3-0.3-3.3,1c-1.7-1.3-0.7-3.3-1-5
				C887.4,379.5,891.4,376.8,896.1,374.8z"/>
			<path id="XMLID_106_" class="st34" d="M935.2,359.9c2.7,2,1,3.3-1,4c-3.3,0.7-6.3,2.7-9.6,3.3c-2.3,1-4.6,1.7-6.6,2.7
				c-1.3,0.7-2.7,1.3-3.3-0.3c-0.7-2,1.7-1.3,2.3-2c0.3-0.3,1-0.7,0.3-1C922.9,363.6,929.2,361.6,935.2,359.9z"/>
			<path id="XMLID_105_" class="st35" d="M1000.3,359.6c0.3-2,0-4.6,1-6c2.3-2.7,2.7,2.7,4.6,2c2.7-0.7,7,2.7,7.6-3
				c0-1.3,1.3-0.7,2.3-0.7c8,0.3,15.9-0.7,22.6-5.3c2-1.3,4.6-2,6.6-4c5,0,10,1,14.6-1.3c1.7-0.7,2.3,0.7,3.3,1.3c0,0.7,0,1.7,0,2.3
				c-1.7,3-0.3,6-1,9c-0.3-0.7-0.7-1.3-0.7-1.7c0-3.7-1.7-4.6-5-3c-6,3.3-12.9,2.3-19.6,3.7c-7.3,1.7-15.3,2-22.2,5
				C1010.2,359.6,1005.2,359.6,1000.3,359.6z"/>
			<path id="XMLID_104_" class="st36" d="M1000.3,359.6c1.7-0.7,3.3-1.3,5.3-1.3c3.7,0,7-1.3,10.6-2.3c9-3,18.3-4.6,27.9-5
				c4.3,0,8.3-2.3,12.9-2c-1,3.3-2.7,5.3-6.6,4.3c-3-0.7-5.3,2-7.6,3.3c-1.3,1-2.7,1-4.3,0.7c-4.6-1.3-9.3,0.3-13.9,1.3
				c0,0-0.3,0-0.3,0.3c0,5.3-4,4.6-7.6,5.3c-2,0.3-3.3,0.3-4.6-0.7c-2.3-1.7-4-1.3-5.6,0.7c-0.7,0.7-1.3,1.7-2.7,1
				c-2-1-2.7,0.7-3.3,2c-2.3,0.3-3.3-1-3.3-3.3C998.6,362.9,999.3,361.2,1000.3,359.6z"/>
			<path id="XMLID_103_" class="st25" d="M1004.6,373.5c0,1-0.7,1.3-1.3,1.7c-1.7,0-2.3-0.7-2.3-2.3c0-0.7,0-1.7,1-1.3
				C1003.2,371.5,1003.9,372.9,1004.6,373.5z"/>
			<path id="XMLID_102_" class="st37" d="M937.9,378.5c-0.7,0-1.7,0-2.3,0c-0.7,0-1.3-0.3-1.3-1c0-1,0.7-1,1.3-1.3
				c7.3-1,13.6-6,21.2-6.3c4.3-0.3,8.3-2,12.9-1.3c0.7,0,1.3,0,1.7,0c5.3-4.3,11.9-3.7,17.9-5.3c2-0.7,3.3-0.3,3,2
				c-1,0.7-1,1.7-1.3,2.7c-0.7,3.3-2,5-5.6,3c-0.7-0.3-1.7-0.7-2.3,0c-4,5-8.6,4-13.6,2c-0.3,0-1-0.3-1.3,0c-3.7,3.3-9,2.7-13.3,4
				C949.5,378.5,943.5,378.8,937.9,378.5z"/>
			<path id="XMLID_101_" class="st38" d="M922.9,381.8c4.3-2.7,9.3-2.7,13.9-2.3c0,1-0.3,2-1,2c-3.7,0.7-7,1.3-10.6,2
				C924.3,383.5,923.3,382.8,922.9,381.8z"/>
		</g>
	</g>
</g>
<g id="sg4">
	<g id="图层_2_2_">
		<g id="XMLID_124_">
			<path id="XMLID_150_" class="st17" d="M1422,245.6c-1.7,1.1-3.2,2.1-4.8,3.3c-5.1,2.3-9.7,5.7-14.3,8.7c-1.5,0.9-3.3,1.5-4.5,2.9
				c-2.3,0.8-4.5,1.5-6.8,2.3c-1.4,0.5-2.7,1.1-3.2,2.7c-0.5,0.2-0.9,0.3-1.2,0.6c-1.5-0.5-4.1,1.7-4.2-2c2.3-3.6,6.3-5,9.8-6.5
				c7.8-3.2,14.2-8.6,21.7-12.1c2-0.9,3.8-2,5.9-2.6c0.9-0.3,2.1-0.8,2.9,0.3C1424.1,244.6,1421.9,244.6,1422,245.6z"/>
			<path id="XMLID_149_" class="st18" d="M1500.5,165.8c1.1-0.5,2.1-0.9,3.2-1.4c0.8,0.3,1.7-0.3,2.1,0.6c0.9,3.3,2.6,5.7,6.2,6.5
				c0.6,0.6,0.5,1.2,0.2,1.8c-0.6,0.8-1.1,1.7-2.1,2.1c-1.8-0.3-3.9-1.2-3.2,2.3c0.2,0.6-0.2,1.4-0.9,1.7c-1.1,0.3-1.8-0.2-2.4-0.9
				c-1.4-1.8-2-4.1-2.9-6.2c-0.3-0.6-0.6-1.4-0.9-2C1499.3,168.7,1498.6,167,1500.5,165.8z"/>
			<path id="XMLID_148_" class="st19" d="M1500.5,165.8c-1.1,1.5-0.3,2.9,0.3,4.4c-1.8,0.6-3.6,1.4-5,2.7c-2.4,2.1-5.4,2.9-8.4,3.6
				c-1.7,0.3-3.3,1.8-5-0.2c3.2-2.6,6.8-4.4,10.3-6.5c0.8-0.5,1.8-0.5,2.1-1.5C1496.7,167.3,1498.5,166.6,1500.5,165.8z"/>
			<path id="XMLID_147_" class="st20" d="M1511.8,171.4c-1.8,1.1-4.5-0.6-5.9-3.2c-0.5-1.1-0.6-2.1-0.6-3.3c2.6-2,4.4-0.3,6.3,1.2
				c0.8,0.6,0.9,1.8,1.8,2.4c0.2,0.2,0.2,0.5,0.3,0.6C1513.3,170,1513.1,171.2,1511.8,171.4z"/>
			<path id="XMLID_144_" class="st21" d="M1511.8,171.4c0.5-1.1,0.8-2.1,2-2.3c0.3,0.6,0.6,1.2,0.8,2c-0.8,0.9-0.2,2.1-0.5,3.2
				c-1.7,1.2-2.3,0.6-2.4-1.2C1512.1,172.4,1511.9,172,1511.8,171.4z"/>
			<path id="XMLID_143_" class="st22" d="M1479.5,207.4c-6.2,4.7-12.7,8.9-19.3,13.1c-0.9-1.4-0.3-2.9-0.2-4.2
				c0.3-2.3,0.2-4.5-0.6-6.6c-0.2-1.5,0.2-2.7,1.7-3.5c1.1-0.5,1.8-1.4,2.4-2.4c0.8-1.4,2-2.1,3.3-1.8c2.3,0.3,3.9-0.8,5.7-1.7
				c1.7-0.9,2.9-1.7,2.4-3.9c-0.3-1.1,0.3-2,1.2-2.6c3.2-2.1,6-4.5,10-5.1c1.4-0.3,2.3-1.1,2.9-2.1c1.5-2.3,3.2-4.4,6-5.1
				c2.3-0.6,1.7-3,2.4-4.5c3-2.6,3.9-2.4,6.5,2.1c2.1,3.5,5.1,2.1,8,1.4c-2,4.8-5.9,7.8-9.8,11c-2,1.7-4.2,3-6.3,4.5
				C1489.9,198.8,1484.6,203.1,1479.5,207.4z"/>
			<path id="XMLID_142_" class="st23" d="M1382.8,264.9c-1.4-0.2-2.6-0.6-3.5-1.7c2-4.7,5-7.8,10.1-8.7c1.4-0.3,1.2-1.4,1.4-2.4
				c0.5-3.8,2-4.8,5.4-3.5c2.3,0.8,4.1-0.5,4.5-2c0.9-3.6,2.9-2.4,4.8-1.7c4.2-0.3,7.1-2.6,9.4-6c0.2-0.5,0.5-0.9,0.9-1.4
				c2-1.5,4.4-2.4,6.6-3.6c5.1-2.7,9.7-6,13.9-9.8c1.1-0.9,2.3-0.9,3.5-1.2c3-0.8,6-1.5,7.4-4.8c0.3-0.6,0.8-1.4,1.4-1.5
				c3.6-0.3,3.9-2.7,3.9-5.6c0-0.3,0.3-0.6,0.6-0.9c0.5-0.3,0.9-0.5,1.5-0.5c2.4,2.3,2.1,5,1.5,7.7c-0.3,1.2-0.8,2.3-1.1,3.5
				c-2.1,2.7-5.1,4.5-7.8,6.3c-6.2,4.1-12.2,8.3-18.4,12.4c-1.1,0.6-2.3,1.2-2.3,2.7c-1.5,0.9-3,2-4.5,2.9c-1.5-1.2,1.8-1.1,0.5-2.3
				c-5,1.1-9.7,3.8-13.7,6.6c-6.3,4.4-13.4,7.1-19.9,10.9C1386.6,262.1,1384.4,263.1,1382.8,264.9z"/>
			<path id="XMLID_141_" class="st24" d="M1426.4,242.7c-1.2-0.5-3-1.1-0.8-2.3c6.8-3.5,12.5-8.3,18.9-12.2c3.5-2.1,6.6-4.5,10-6.8
				c1.4-1.8,2.9-1.2,4.5-0.3c-8.3,6.3-17.3,11.6-26.1,17.5C1430.9,240,1428.6,241.4,1426.4,242.7z"/>
			<path id="XMLID_140_" class="st25" d="M1459.1,221c-1.5,0.6-3-0.8-4.5,0.3c-0.3-0.8-0.8-1.5-0.3-2.3c2.3-3,0.9-5.9,0.2-8.9
				c-0.8-0.6-0.6-1.4-0.3-2.3c0.2-0.3,0.5-0.5,0.8-0.6c0.6-0.2,1.2,0,1.8,0.3c0.9,0.9,2.1,1.2,3.3,1.7c2.1,3.6,0.6,7.2,0.2,11
				C1459.9,220.6,1459.4,220.9,1459.1,221z"/>
			<path id="XMLID_139_" class="st20" d="M1511.9,180.3c-4.2,3-6,2.7-8.1-1.1c-1.2-1.4-1.5-3.2-2.7-4.7c-0.6-0.8-0.9-2,0.5-2.6
				c0.9,2,1.7,3.9,2.6,5.9c0.3,0.6,0.9,1.2,1.5,0.9c0.9-0.3,0.5-1.1,0.3-1.7c-0.2-0.6-0.3-1.1-0.3-1.7c0-0.9-0.2-2,0.9-2.3
				c0.9-0.3,1.4,0.5,2,1.1c0.5,0.6,1.1,0.8,1.8,0.9c0.9,0.9,0.6,2,0.3,2.7c-0.8,2.1,0.8,1.4,1.7,1.7
				C1512.1,179.7,1512.1,180,1511.9,180.3z"/>
			<path id="XMLID_138_" class="st26" d="M1479.5,207.4c-0.5,0-1.2-0.2-1.1-0.2c5.7-3.9,10.4-9.7,17.5-11.3
				C1490.7,199.9,1485.2,203.8,1479.5,207.4z"/>
			<path id="XMLID_137_" class="st27" d="M1398.2,260.5c3.2-3.9,8-5.7,12.1-8.4c2-1.4,3.9-3.6,6.8-3.2
				C1411,253,1405.1,257.5,1398.2,260.5z"/>
			<path id="XMLID_136_" class="st28" d="M1512.2,179.5c-2.1,1.1-2.9,0.6-2.4-1.8c0.2-0.9,0.3-1.8,0.5-2.7c0-0.9,0.5-1.7,1.4-2.1
				c0.5,1.1,1.4,1.5,2.4,1.2c-0.2,0.6-0.2,1.2-0.3,1.8C1512.7,176.8,1512.5,178.2,1512.2,179.5L1512.2,179.5z"/>
			<path id="XMLID_135_" class="st29" d="M1512.2,179.5c0-1.5-1.1-3.5,1.7-3.6C1514,177.4,1513,178.3,1512.2,179.5z"/>
			<path id="XMLID_134_" class="st30" d="M1454.3,208.2c0,0.8,0.2,1.5,0.2,2.1c-0.5,0.2-0.9,0.3-1.2,0.5c-1.2-0.5-2.3,0-3.2,0.6
				c-3.9,2.6-8,4.5-11,8.3c-1.8,2.3-5,3.2-7.5,4.5c-6.3,3.3-11.5,8.1-16.4,13c-1.1,1.1,0.8,0.5,0.8,1.1c-0.2,0.3-0.3,0.6-0.5,0.9
				c-2.9,2.7-6.6,4.2-10,6.3c-1.4,0.6-2.1-0.3-3-1.1c-0.6,4.5-3.8,6.2-7.5,4.1c-0.6-0.3-1.4-1.1-1.7-0.3c-0.5,1.4-2.4,2.1-1.5,4.2
				c0.6,1.5,0.6,2.7-1.7,2.6c-1.4-0.5-2.6-0.8-3.9-0.2c-0.8,0.3-1.7,0.9-2.4,0c-0.9-0.9-0.8-2.1-0.3-3.2c0.3-0.9,1.1-1.8,1.7-2.7
				c-0.9,0-2,1.1-2.7-0.2c3.9-5.1,8.7-9.4,13.6-13.4c0.8,0.6,0.8,0.6,0.3,2.3c2.3-1.4,3.6-3.8,5.9-4.8c6.8-2.4,11.8-7.5,17.2-11.9
				c3.5-2.9,6.9-5.4,11-7.1c1.1-0.5,2.1-0.8,2.9-1.8c2.7-3.3,6.6-5.1,9.8-7.8c3.2-2.9,5.6-2.3,8.4,0.9
				C1452.2,206.1,1453.8,206.5,1454.3,208.2z"/>
			<path id="XMLID_133_" class="st31" d="M1454.3,208.2c-1.8-1.1-3.8-1.7-4.8-4.1c-0.8-1.8-4.5-1.4-6.8,1.2c-3,3.3-6.9,5.3-10.3,8.3
				c-2.1,2-5.4,3.2-8.3,4.7c-3.8,2.1-6.6,5.3-9.8,8c-1.4,1.1-2,3.3-4.4,2.4c-0.2,0-0.6,0-0.6,0.2c-0.5,4.8-5.1,3.2-7.5,5
				c0.3-2.9,3.2-3.8,4.7-5.6c0.9-1.2,1.7-2,1.2-3.5c8.7-8.6,18.7-15.4,29.4-21.3c4.5-2.4,9.1-4.8,13.6-7.2c3.3,3.3,3.5,7.5,4.2,11.8
				C1454.7,207.9,1454.4,208,1454.3,208.2z"/>
			<path id="XMLID_132_" class="st32" d="M1454.9,207.9c-1.1-1.4-2.3-2.6-1.7-4.8c0.5-1.4-0.5-2.9-1.5-3.9c-0.9-0.9-1.1-2-1.1-3
				c11-6,21.1-13.3,31.7-19.9c1.5,0.9,3-0.5,4.5-0.3c-0.9,4.4-3.8,7.5-6.9,10.1c-3.5,2.9-7.1,5.7-11.5,7.2c-0.6,0.2-1.2,0.3-1.4,0.9
				c-1.1,5-5.1,5-9.1,5.3c-0.3,1.4,0.5,2.6,0.5,3.9c-0.2,1.7,0.3,3.6-2,4.5C1456,207.9,1455.5,207.9,1454.9,207.9z"/>
			<path id="XMLID_131_" class="st33" d="M1382.3,248.9c1.5,0.6,2.4-0.9,3.8-1.1c0.3,1.8-1.2,2.7-1.8,3.9c-0.6,0.9-0.9,2,0,2.9
				c0.9,0.9,1.4-0.3,2-0.6c1.8-0.9,3-0.3,4.1,1.2c-3.5,1.2-7.2,2.1-8.4,6.3c-0.3,1.2-2,0.6-2.1,1.8c-1.7-0.6-1.7-2.3-2.3-3.5
				C1377.2,255.4,1379.5,252.1,1382.3,248.9z"/>
			<path id="XMLID_130_" class="st34" d="M1407.8,224.8c2.7,0.8,1.8,2.4,0.5,3.3c-2.4,1.7-3.9,4.2-6.3,5.7c-1.5,1.4-2.9,2.7-4.4,4.1
				c-0.8,0.8-1.7,2-2.7,0.9c-1.2-1.2,0.9-1.4,1.2-2.3c0.2-0.5,0.6-0.8-0.2-1.1C1399.5,231.6,1403.6,228.1,1407.8,224.8z"/>
			<path id="XMLID_129_" class="st35" d="M1457.6,203.7c-0.5-1.7-1.7-3.6-1.1-5c0.9-2.7,2.9,1.1,4.2,0c1.8-1.5,6.2-0.3,5-4.8
				c-0.3-0.9,0.9-1.1,1.7-1.4c6.3-2.4,12.1-5.6,15.7-11.5c1.2-1.8,3-3,3.9-5.1c3.8-1.5,7.8-2.6,10.9-5.9c0.9-1.1,2.1-0.3,3.2,0
				c0.3,0.6,0.5,1.2,0.8,2c-0.3,2.7,1.7,4.8,2.3,7.2c-0.5-0.5-0.9-0.8-1.2-1.2c-1.2-2.9-2.9-3-4.8-0.8c-3.6,4.5-9.4,6-13.9,9.1
				c-5.3,3.6-11,6.5-15.5,11C1465.3,200.3,1461.5,202.2,1457.6,203.7z"/>
			<path id="XMLID_128_" class="st36" d="M1457.6,203.7c1.1-1.1,2.3-2.1,3.8-2.9c2.7-1.2,5.1-3.3,7.4-5.3c6-5.1,12.5-9.7,19.8-12.8
				c3.3-1.5,5.7-4.5,9.2-5.6c0.5,3-0.3,4.8-3.8,5.4c-2.4,0.5-3.5,3.2-4.8,5.1c-0.8,1.2-1.5,1.7-3.2,1.8c-3.9,0.5-6.9,3.3-10.3,5.4
				c-0.2,0-0.2,0.2-0.2,0.3c1.8,4.2-1.7,4.8-4.1,6.5c-1.2,0.9-2.4,1.4-3.8,0.9c-2.3-0.6-3.5,0.2-4.2,2.3c-0.3,0.9-0.6,1.8-1.8,1.7
				c-2,0-1.7,1.5-1.8,2.7c-1.8,0.9-3,0.5-3.6-1.5C1457.6,206.8,1457.6,205.2,1457.6,203.7z"/>
			<path id="XMLID_127_" class="st25" d="M1465.6,213c0.5,0.8,0,1.4-0.5,1.5c-1.1,0.6-2,0.2-2.4-0.9c-0.3-0.5-0.5-1.2,0.3-1.4
				C1463.9,212,1464.7,212.7,1465.6,213z"/>
			<path id="XMLID_126_" class="st37" d="M1415.7,238.4c-0.6,0.3-1.2,0.5-2,0.8c-0.6,0.2-1.2,0.3-1.5-0.5c-0.3-0.6,0-1.1,0.6-1.4
				c5.3-3.2,8.6-9.1,14.3-11.6c3.3-1.5,5.9-4.2,9.5-5.1c0.5-0.2,1.1-0.3,1.2-0.6c2.6-5.1,8.1-6.6,12.2-9.8c1.4-1.1,2.4-1.2,3.2,0.6
				c-0.6,0.8-0.3,1.5-0.2,2.3c0.5,2.7,0,4.5-3.3,4.2c-0.6,0-1.5-0.2-1.8,0.8c-1.4,5.1-5.4,5.7-9.8,6c-0.3,0-0.8,0.2-0.9,0.3
				c-1.8,3.8-6,5-9.1,7.4C1424.7,234.7,1420.2,236.7,1415.7,238.4z"/>
			<path id="XMLID_125_" class="st38" d="M1405.4,245.8c2.4-3.5,6.2-5,10-6.3c0.3,0.6,0.5,1.5-0.2,2c-2.4,1.8-5,3.5-7.5,5
				C1406.8,246.7,1406,246.2,1405.4,245.8z"/>
		</g>
	</g>
</g>
<g id="yz1">
	<g id="图层_1_2_">
		<g id="XMLID_5_">
			<path id="XMLID_48_" class="st39" d="M1109.6-65.7c0.3-0.2,0.7-0.2,1-0.2c0.7,0.7,1.1,0.3,1.5-0.3c0.3,0,0.5,0,0.8,0
				c0.4,0.5,1.1,0.1,1.5,0.5c0.1,0.2,0,0.3-0.2,0.4c-0.6,0.2-1.2,0.2-1.3,1c-0.2,0.7-0.5,1.4-1.2,1.7c-0.3,0-0.5-0.1-0.8-0.3
				c-1.2-0.7-1.8-0.4-1.9,0.9c0,0.2,0,0.5,0,0.7c-0.2,0.3-0.7,0.4-0.9,0.8c-0.7,1-3.6,2.8-4.7,2.8c-0.3-1.2-0.7-1.3-2.3-1.1
				c-0.8,0.6-1.7,1.1-2.7,0.2c-0.4-0.4-0.8,0-1.2,0.2c-1.8,1.2-3.6,2.6-5.3,3.9c-0.1,0-0.2,0.1-0.2,0.1c-0.9,1.5-2.4,2.4-3.4,3.8
				c-0.8,1.1-1.9,1.5-3,2c-0.2,0-0.4-0.1-0.5-0.2c-0.3-0.5,0-1,0.4-1.3c0.3-0.4,0.7-0.8,0.9-1.3c4.4-4.3,8.9-8.3,14.3-11.3
				c1.2,0.5,2.2-0.3,3.4-0.4c1-0.1,1.9-0.5,2.7-1.1c0.6-0.5,1.2-0.5,1.9-0.4C1109.4-64.3,1109.8-64.7,1109.6-65.7z"/>
			<path id="XMLID_47_" class="st40" d="M1086-51.2c0.1,1.1-1.2,1.5-1.2,2.6c-1.1,2.3-2.2,4.6-3.5,6.8c-0.2,0.4-0.2,0.9-0.6,1.3
				c-1.4,1.3-2.8,2.4-3.9,4c-0.6,0.9-0.5,1.1,0.6,1.5c0.2,1.7-1,2.7-1.9,3.9c-0.3-0.2-0.5-0.5-0.8-0.7c0-0.8,0-1.5,0-2.3
				c0.7-1,1.1-2.2,1.5-3.4C1077.9-43.2,1081.4-47.6,1086-51.2z"/>
			<path id="XMLID_46_" class="st41" d="M1112.1-66.2c0,0.5-0.1,1-0.6,1.1s-0.9-0.2-0.9-0.8c0.2-0.1,0.4,0,0.5-0.3
				C1111.4-66.2,1111.8-66.2,1112.1-66.2z"/>
			<path id="XMLID_45_" class="st42" d="M1099.3-39.6c-6.4,2.2-12.3,5.5-18.4,8.1c-0.8,0.4-1.7,0.7-2.6,0.7c-0.8-0.3-0.9-1-0.6-1.6
				c0.3-0.7,0.9-0.5,1.5-0.3c1.5,0.5,3.1-0.4,3.4-1.9c0.2-0.7,0.2-0.7,1.2-0.1c0.1,0,0.2-0.2,0.2-0.3c-0.5-1.6,0.2-2.4,1.6-3.3
				c1.3-0.9,2.5-1.8,4.2-2.1c0.4-0.1,0.8-0.3,0.8-0.9c-0.8,0.5-1.8,0.4-2.5,0.9c-0.4,0.3-0.9,0-1.2-0.4c-0.2-0.4,0-0.7,0.3-1
				c0.2-0.2,0.4-0.4,0.6-0.5c1.5-0.3,2.3-1.7,3.7-2c0.9-0.2,1.5-1.1,2.5-1.3c-0.4-0.5-0.6-0.3-0.9-0.1c-1.1,0.7-2.4,1.1-3.3,2
				c-1.2,1.1-2.4,1-3.8,0.4c0.1-0.7,0.6-0.7,1.1-0.8c1.3-0.3,2.4-0.8,3.5-1.6c1.8-1.4,3.8-2.6,5.6-3.9c1.3-0.9,2.9-1.3,4.5-1.7
				c0.4-0.1,0.9-0.1,1.1-0.4c0.9-1.4,1.9-0.9,3-0.4c0.3,1.4-0.8,2.3-1.3,3.4c-0.2,0.5-0.7,0.9-1.1,1.3c-0.3,0.3-0.5,0.5-0.3,1
				c0.2,0.4,0.1,0.9-0.2,1.2c-1.2,0.9-1.6,2.1-1.9,3.5c-0.4,0.5-0.7,1-0.4,1.7C1099.7-40,1099.6-39.8,1099.3-39.6z"/>
			<path id="XMLID_44_" class="st43" d="M1121.4-58.7c0.6,2.7-0.2,5-1.6,7.3c-1.3,0.4-2.2,1.1-2.8,2.3c-0.2,0.4-0.4,0.7-0.7,1
				c-0.1,0.1-0.2,0.1-0.3,0.2c-1.5,1-2,0.9-2.6-0.6c0.7,1.3,0,2.1-1,2.7c-0.8,1.2-2.1,1.7-3.4,2.2c-1,0.4-2,0.6-2.9,1.1
				c-0.5,0.2-1,0.3-1.4-0.2c-0.4-0.5,0.1-0.9,0.4-1.3c1.2-1.9,3.2-3,5-4.2c-1,0.7-2.2,0.8-3.2,1.6c-0.3,0.3-0.8,0.4-1.2,0
				c-0.4-0.4-0.1-0.7,0.2-1c0.5-0.4,0.2-1,0.4-1.5c0.3-0.7,0.9-1.1,1.6-1.2c0.6,0.1,1-0.5,1.4-0.6c1.3-0.2,1.7-1,2.1-2.1
				c0.2-0.7,1-1.1,1.6-1.5c0.2,0,0.4,0.1,0.6,0c1-0.8,1-0.8,1.5,0.3c0.6-0.3,0.7-0.9,0.8-1.5c0.1-0.6,0.2-1.1,0.9-1.2
				c0.7-0.1,0.7,0.6,0.8,1s0.4,0.8,0.4,1.3c-0.4,0.9-0.1,1.9-0.1,2.7c0.8-0.6,1.5-1.4,1.6-2.6c0.2-0.9,0.5-1.8,0.5-2.8
				c0-0.5,0.1-1,0.7-1.2C1121-58.5,1121.2-58.6,1121.4-58.7z"/>
			<path id="XMLID_43_" class="st44" d="M1086-43.4c2.4,0.8,3.8-1.1,5.6-2c0.6-0.3,1.2-0.7,1.9-1c0.4-0.2,0.8-0.1,0.9,0.4
				c0.1,0.4-0.3,0.7-0.5,0.7c-1.3,0.1-2,1.7-3.5,1.4c-0.5,1.4-2.2,1.2-3.1,2.1c-0.2,0.2-0.7,0.4-0.3,0.8c0.3,0.3,0.8,0.6,1.1,0.1
				c0.6-1,1.9-0.1,2.4-1.2c0.1-0.3,0.5,0.1,0.5,0.5c-0.2,0.9-0.9,1.2-1.7,1.4c-1.2,0.2-2.3,0.6-3.1,1.6c-0.3,0.4-0.7,0.5-1.1,0.6
				c-1,0.4-1.3,1.1-1.1,2.1c0.1,0.5,0.6,1-0.1,1.4c-0.8,0.5-0.6-0.7-1.1-0.8c0.1,1.6-0.5,2.3-2.2,2.5c-0.7,0.1-1.4,0.6-2.1-0.2
				c-0.3-0.3-0.7,0.1-0.8,0.5c-0.1,0.6,0.2,0.9,0.5,1.4c-1,0.3-1.9,0.3-2.8-0.3c0.3-1.5,1.8-2.4,1.8-4c0.1-1.1,1-1.8,1.6-2.5
				c0.3-0.3,0.7-0.6,1-0.9c1.5-2,3.9-3,5.6-4.7C1085.6-43.4,1085.8-43.5,1086-43.4z"/>
			<path id="XMLID_42_" class="st45" d="M1106.6-49.1c-0.1,0.6,0.4,1.2-0.3,1.7c-0.2,0.1-0.6,0.4-0.2,0.7c0.2,0.2,0.6,0.2,0.8-0.1
				c0.9-1,2.4-1,3.4-1.8c0.2-0.2,0.5-0.4,0.7-0.1c0.2,0.3-0.1,0.5-0.4,0.7c-1.2,0.7-2.2,1.6-3.4,2.3c-1,0.6-1.2,1.9-2.2,2.4
				c-0.2,0.1-0.2,0.4,0,0.6c0.2,0.2,0.5,0.2,0.7,0.1c2.2-1.2,5-1.3,6.7-3.5c1.4-0.3,2.7-1,3.8-2l0,0c0.4-0.2,0.6-0.5,0.9-0.8
				c0.4-0.4,0.7-0.3,1.1,0.1c-1.7,2-3.4,3.9-6.1,4.7c-2.8,0.8-5.5,1.9-8.2,2.9c-0.7,0-0.7-0.4-0.8-0.9c0-0.4,0.3-0.7,0.6-1
				c0.7-0.4,0.6-1.2,0.8-1.9c0.6-1.3,1-2.7,1.7-3.9C1106.3-49,1106.4-49.1,1106.6-49.1C1106.5-49.2,1106.6-49.2,1106.6-49.1z"/>
			<path id="XMLID_41_" class="st46" d="M1114.1-65.5c0.1-0.1,0.2-0.2,0.3-0.3c0.6,0,1.2,0.1,1.8,0.5c0.1,0.7-0.2,1.3-0.7,1.8
				c-0.3,0.4-0.3,0.8-0.2,1.2c0.4,1.8-0.4,2.8-1.9,3.5c-0.1,0.1-0.3,0.2-0.4,0.3s-0.2,0.2-0.3,0.2c-0.9,0.7-1.5,1.6-2.1,2.6
				c-0.5,0.9-1,1.8-2,2.3c-0.1,0-0.2,0-0.3-0.1c0.4-1.6,1.2-3,2.1-4.3c0.3-0.3,0.5-0.8,0.9-1c1-0.6,1.1-1.3,0.4-2.2
				c0-0.6,0.3-1,0.9-1.3c0.3,0.1,0.7,0.4,0.9-0.2s-0.4-0.3-0.6-0.5c-0.2-0.5,0.2-0.9,0.4-1.3C1113.4-64.7,1113.7-65.2,1114.1-65.5z"
				/>
			<path id="XMLID_40_" class="st47" d="M1118.4-64c0.7,0.5,1.4,1.1,1.7,2c-0.3,0.6-0.4,1.2,0.1,1.8c0.3,0.4,0.7,1,0.4,1.6
				c-0.4,0.2-0.4,0.6-0.5,0.9c-0.1,0.4-0.4,0.6-0.8,0.6c-0.4,0-0.7-0.3-0.8-0.7c-0.1-0.8-0.3-1.3-1.4-1.2c-0.7,0.1-1.3-0.8-1.3-1.6
				c-0.1-0.7,0.5-1,1.2-0.9c0.5,0.1,0.9,0.5,1.5,0.3c-0.6-0.7-1.7,0.1-2.1-0.8c0.4-0.6,1.2-0.1,1.7-0.6c0-0.6-0.8-0.6-0.9-1.1
				C1117.4-64.1,1117.9-64.2,1118.4-64z"/>
			<path id="XMLID_39_" class="st48" d="M1103.3-42.4c0,0.4,0.1,0.8,0.5,1c-1.5,0.7-3,1.2-4.5,1.7c0.2-0.7-0.7-1.7,0.5-2.2
				c0.2-0.3,0.4-0.5,0.7-0.3c0.2,0.5,0.4,0.8,1,0.6C1102.2-41.8,1102.6-42.4,1103.3-42.4z"/>
			<path id="XMLID_38_" class="st49" d="M1118.1-48.9c-1-0.5-1.2,0.8-2,0.8c0.7-1.1,1.3-2.3,2.4-3.1c0.5-0.3,0.8-0.5,1.3-0.2
				C1119.5-50.5,1118.9-49.6,1118.1-48.9z"/>
			<path id="XMLID_37_" class="st50" d="M1120.7-58.7c-0.6-0.6-0.5-1.5-1.3-2c-0.3-0.2,0.3-0.9,0.7-1.2c0.8,0.9,1.2,2.1,1.3,3.3
				c-0.1,0.2-0.2,0.3-0.3,0.5C1121-58.4,1120.7-58.4,1120.7-58.7z"/>
			<path id="XMLID_36_" class="st51" d="M1118.4-64c-0.4,0.1-0.9,0.2-1.3,0.5c0.1,0.7-0.2,0.9-0.8,0.9c-0.4-0.1-0.6,0-0.8,0.3
				c-0.1,0.1-0.2,0.1-0.3,0.1c-0.4-0.4-0.1-0.8-0.2-1.2c0.3-0.3,0.8-0.4,1-0.9c0.4-0.8,1.1,0.1,1.6-0.3
				C1118-64.4,1118.2-64.3,1118.4-64z"/>
			<path id="XMLID_35_" class="st52" d="M1117.6-64.5c-0.1,0.1-0.1,0.3-0.2,0.4c-1-0.6-1.5,0.6-2.3,0.6c-0.1-0.1-0.1-0.1-0.1-0.2
				s0-0.1,0.1-0.1c0.8-0.2,0.6-1.1,1-1.6C1116.7-65.2,1117.2-64.9,1117.6-64.5z"/>
			<path id="XMLID_34_" class="st41" d="M1109.6-65.7c0.7,0.3,0.5,1,0.4,1.4c-0.1,0.5-0.7,0.2-1.1,0.1c-0.9-0.1-1.8-0.1-2.7,0.6
				c-0.8,0.6-1.9,0.8-2.9,1c-0.6,0.1-1.3,0.1-1.9,0.6c-0.6,0.5-0.8-0.2-1.1-0.6C1103.2-64.1,1106.2-65.3,1109.6-65.7z"/>
			<path id="XMLID_33_" class="st53" d="M1085.3-48.7c0.8-0.9,2.1-0.8,2.8-2.1c0.4-0.7,1.2-1.8,2.3-2.1c0.1,0,0.3-0.1,0.3-0.2
				c1.2-2.2,3.4-3.3,5.4-4.6c0.3-0.2,0.7-0.5,0.9-0.8c0.6-0.6,1.2-0.8,1.8-0.1c1,1.1,1.5-0.3,2.3-0.4c0.3-0.2,0.5-0.1,0.5,0.3
				c0,0.3,0.1,0.5,0.3,0.8c-0.5,1-1.3,0.7-2.1,0.5c-0.5-0.2-1.3-0.9-1.5,0.3c0,0.1-0.1,0.2-0.1,0.3c-0.6,0.7,0.1,1.3,0.3,2
				c0.2,1,1.2,0.1,1.7,0.6c-0.3,1.2-1.5,1.6-2.4,2.1c-0.4,0.2-0.8,0.3-1.1,0.5c-0.4,0.3-0.8,0.6-1.2,0.3c-0.6-0.4-0.2-0.9-0.2-1.5
				c-0.5,0.4-0.9,0.7-1.5,0.4c-0.7-0.4-1,0.1-1.1,0.7c-0.1,0.8-0.3,1.5-0.7,2.1c-1.3,1.6-3,2.7-4.6,3.7c-1.1,0.7-2.2,1.5-3.4,2.2
				c-0.5-0.8,0-1.4,0.4-1.9c0.7-0.8,1.4-1.4,0.7-2.6C1084.9-48.3,1085.1-48.5,1085.3-48.7z"/>
			<path id="XMLID_32_" class="st42" d="M1091.8-49.7c0.2-0.8,0.5-1.5,0.5-2.3c0-0.9,0.7-1.2,1.4-0.7c0.6,0.4,0.8,0.1,1.1-0.4
				c0.2-0.3,0.4-0.6,0.8-0.3c0.3,0.2,0.1,0.5-0.1,0.8s-0.6,0.6-0.2,1c0.4,0.3,0.7,0,1-0.3c0.8-0.8,2.1-0.7,2.9-1.6
				c0.2-0.3,0.6-0.4,0.8-0.8c0.3-0.7,0.9-1.2,0.9-2.1c0-0.6,0.6-1,1.3-0.8c0.5,0.1,0.8-0.1,1-0.5l0.1-0.1c1.5-1,3.5-1.3,4.5-3
				c0.9-0.4,1,0.2,0.9,0.8c-0.4,2-2.1,3.5-4.2,3.5c-0.6,0-0.7,0.5-1.1,0.7c-1.2,0.4-1.7,1.6-2.6,2.4c-0.4,0.3-0.6,0.7-0.9,1.1
				c-0.5,0.8-1.2,1.2-2.2,1.1c-0.6-0.1-1.2,0-1.6,0.5c-0.1,0.2-0.3,0.4-0.5,0.3C1094.3-50.5,1093.1-49.7,1091.8-49.7z"/>
			<path id="XMLID_31_" class="st54" d="M1111.9-61c1.1,1.1,1.1,1.1-0.2,2.1c-0.4,0.4-0.5,1-1.1,1.2c-0.4-0.4-0.1-1.3-0.9-1.5
				c-0.6-0.6-0.8-1.3-0.9-2.1c-0.5-0.9-0.2-1.8,0.5-2.3c1-0.7,1.5,0.4,2.2,0.8c0.3,0.7-0.3,1.2-0.4,1.8
				C1111.4-60.8,1111.6-61.1,1111.9-61z"/>
			<path id="XMLID_30_" class="st55" d="M1085.3-48.7c0,0.2-0.1,0.5,0,0.6c1.3,1.1,0.1,1.7-0.5,2.4c-0.5,0.6-0.9,1.2-0.8,2
				c-0.3,1.3-1.4,1.6-2.4,2.1c-0.2,0.1-0.7,0.2-0.7-0.4c0.5-1.3,1.4-2.4,1.9-3.7c0.3-0.7,0.6-1.3,0.9-2c0.2-0.4,0.3-1,0.9-1.1
				C1084.9-48.7,1085.1-48.7,1085.3-48.7z"/>
			<path id="XMLID_29_" class="st56" d="M1108.8-61.2c0.6,0.5,0.6,1.4,1,2c0,1.3-1.6,3.5-2.9,3.9c-0.8-0.3-1.6-0.3-2.4-0.2
				c-0.4,0-0.8,0.2-1.2-0.1c0.4-0.8,0.8-1.2,1.9-0.8c0.9,0.3,1.6-0.7,2.2-1.4c0.4-0.5,0.8-1.2,1.1-1.8c0.3-0.6,0.1-1-0.6-0.9
				C1108-61.2,1108.4-61.2,1108.8-61.2z"/>
			<path id="XMLID_28_" class="st57" d="M1107.3-61.4c0,0.6-1.7,2-2.5,1.9c-0.9-0.1-0.8-1.1-1.1-1.6c-0.1-0.2,0-0.4,0.2-0.4
				c0.9-0.2,1.8-0.6,2.8-0.5C1107-62.1,1107.3-61.8,1107.3-61.4z"/>
			<path id="XMLID_27_" class="st58" d="M1111.9-61c-0.1,0.1-0.3,0.3-0.4,0.4c-0.2,0.1-0.4,0.4-0.7,0.2c-0.2-0.2-0.1-0.5,0.1-0.7
				c0.4-0.5,0.5-1.1,0.8-1.7c0.5-0.5,0.9-1,1-1.8c0.4-0.3,0.6-0.1,0.7,0.2c-0.2,0.4-0.3,0.8-0.5,1.2c0,0.3,0,0.6-0.2,0.8
				C1112.3-61.8,1111.9-61.5,1111.9-61z"/>
			<path id="XMLID_26_" class="st42" d="M1101.8-57.9c-0.4,0-0.9,0-0.5-0.7c0.2-0.3,0-0.3-0.3-0.4c0.8-0.5,1.7-0.1,2.4,0
				c0.8,0.1-0.3,0.8-0.2,1.3l0,0C1102.8-57.7,1102.3-58,1101.8-57.9z"/>
			<path id="XMLID_25_" class="st54" d="M1113.4-64.2c-0.2-0.1-0.5-0.2-0.7-0.2c0-1.1,0.8-1,1.5-1
				C1114.1-64.9,1113.7-64.6,1113.4-64.2z"/>
			<path id="XMLID_24_" class="st59" d="M1081-41.9c1.2,0.3,1.7-0.8,2.5-1.3c0.2-0.1,0.3-0.3,0.5-0.5c0.7-1.2,1.9-1.7,3-2.4
				c1.5-0.8,2.9-2,4.2-3.3c0.1-0.1,0.3-0.2,0.5-0.4c1.1-0.4,2.1-1.3,3.4-0.8c0.1,0.1,0.4,0,0.5-0.1c0.7-1.1,1.7-0.9,2.8-0.8
				c0.7,0.1,1.1-0.6,1.4-1.1c0.3-0.4,0.3-1,1-1c0.9,0.4,1.8,0,2.6-0.3c1.2-0.4,1.6-0.2,1.8,1c-0.1,0.3-0.2,0.5-0.4,0.6
				c-0.4-0.1-0.8-0.2-1.2-0.2c-0.6,0-1.2-0.4-1.4,0.7c-0.1,0.5-0.8,0.5-1.3,0.6c-1.6,0.1-3.3,0.8-4.4,1.5c-1.4,0.9-2.9,1.8-4.2,2.9
				c-1.7,1.4-3.4,2.6-5.7,2.9c-0.2,0-0.4,0.3-0.6,0.4c-1.9,1.9-4.2,3.1-6,5c-0.4-0.5-0.1-0.9,0.2-1.3c0.2-0.3,0.5-0.5,0.3-1
				C1080.8-41,1080.6-41.5,1081-41.9z"/>
			<path id="XMLID_23_" class="st60" d="M1080.5-40.6c0.6,0,1,0.2,0.4,0.7c-0.5,0.4-0.9,0.8-0.9,1.5c-0.9,1.1-2.1,2-2.8,3.3
				c-0.3,0-0.6,0.7-0.9,0.3c-0.2-0.3-0.6-0.9-0.2-1.3c0.7-0.7,0.7-1.9,1.9-2.3c0.5-0.2,0.8-1,1.3-1.4
				C1079.6-40.1,1079.9-40.6,1080.5-40.6z"/>
			<path id="XMLID_22_" class="st61" d="M1104.8-52.2c0-0.2,0.1-0.4,0.3-0.5c0.7-0.9,1.4-1.8,2-2.8c1.2-1.1,2.1-2.3,2.8-3.8
				c1.6-0.2,0.6,1,0.8,1.5c-0.9,1.3-1.5,2.9-2.3,4.3c0.1,0.3-0.1,0.3-0.3,0.3c-0.5-0.6-0.7-0.3-1.1,0.2c-2.2,2.7-3.4,6-4.9,9.1
				c-0.3,0.7-0.5,1.6-1.5,1.8c-0.3,0.1-0.5,0.2-0.8,0.2c0.2-1.4,0.4-2.8,1.9-3.6c0.2-0.1,0.4-0.7,0.3-0.8c-0.8-0.8-0.1-1.2,0.4-1.7
				C1103.5-49.1,1104.2-50.6,1104.8-52.2z"/>
			<path id="XMLID_21_" class="st62" d="M1117.9-54.4c-0.2-0.5-0.4-1-0.5-1.5c-0.1-0.3,0-0.7-0.5-0.7c-0.4,0.1-0.5,0.4-0.5,0.8
				c0.1,0.7-0.2,1.3-0.7,1.8c-0.2,0.2-0.3,0.7-0.7,0.5c-0.4-0.1-0.4-0.5-0.3-0.8c0.1-0.3,0.1-0.5-0.2-0.6s-0.4,0.2-0.4,0.5
				s-0.1,0.6-0.4,0.7c-0.5,0.1-0.3-0.5-0.6-0.6c-0.4-0.1-0.7-0.3-1.1-0.5c-0.7-0.4-0.9-1-0.4-1.6s0.6-1.2,1-1.8l0,0
				c1-0.3,1.9-0.8,2.3-1.9c0.1-0.2,0.3-0.5,0.7-0.5c0.3,0.3,0.1,0.6,0,0.9c-0.4,1.4,0.1,2.1,1.6,2.2c0.5,0,1,0.3,0.9,0.8
				C1118-56.1,1118.9-55.1,1117.9-54.4z"/>
			<path id="XMLID_20_" class="st63" d="M1116.9-57.4c-0.9,0.2-2.1-1-1.8-1.9c0.1-0.5,0.4-0.9,0.5-1.4c-0.3-0.5-0.3-1-0.2-1.5
				c0-0.1,0-0.2,0-0.3c0.6-0.3,0.8,0.1,1,0.5c0.6,0.5,1.3,0.1,1.9,0.2c0.2,0,0.5,0,0.6,0.3s0,0.5-0.2,0.7c-0.2,0.3-0.5,0.4-0.8,0.2
				c-0.1-0.1-0.3-0.3-0.4-0.3c-0.5,0-0.9-0.7-1.5-0.1c-0.2,0.3-0.3,0.7,0.1,0.9c0.5,0.3,0.4,1.4,1.5,0.8c0.7-0.4,0.9,0.4,1,1
				c0,0.5,0,1,0.6,1c0.5,0,0.6-0.4,0.6-0.9s0.4-0.6,0.8-0.6c0.2,0.2,0.3,0.3,0.5,0.5c-0.6,0-0.8,0.3-0.8,0.8
				c0.1,1.1-0.2,2.1-0.5,3.2c-0.7,0.9-1.1,0.2-1.3-0.4c-0.3-0.8-0.5-1.6-0.5-2.4C1117.9-58.1,1117.8-58.1,1116.9-57.4z"/>
			<path id="XMLID_19_" class="st64" d="M1112.6-58.4c0,0.7,0.1,1.4-0.7,1.9c-0.6,0.4-0.5,1.1,0.3,1.3c0.5,0.1,0.9,0.2,0.9,0.8
				c0,0.4-0.3,0.6-0.6,0.8c-0.7,0.5-1.4,1.1-1.1,2.2c0.1,0.5-0.2,1-0.8,0.6c-0.7-0.5-1.1-0.1-1.3,0.3c-0.3,0.6-0.8,0.4-1.3,0.3
				c0.5-1,1.6-1.4,2.3-2.2c-0.5,0-0.7,0.2-1,0.4c-0.4,0.3-0.8,0.7-1.3,0.1c-0.4-0.4-0.1-0.9,0.2-1.2c0.1-0.1,0.2-0.3,0.3-0.4
				C1110.2-54.9,1110.7-57.2,1112.6-58.4z"/>
			<path id="XMLID_18_" class="st65" d="M1116.9-57.4c0.1-0.2,0.2-0.5,0.3-0.7c0.1-0.3,0.3-0.5,0.6-0.5c0.4,0.1,0.4,0.4,0.4,0.7
				c-0.2,1.1,0.4,2,0.6,3c0.1,0.5,0.3,1.2,1.2,0.7c0,1.5-1.2,2.2-2.2,3c0.5-1.1-0.6-2.2,0.2-3.2c0.4-0.9-0.1-1.8-0.1-2.7
				C1117.8-57.6,1117.2-57.4,1116.9-57.4z"/>
			<path id="XMLID_17_" class="st45" d="M1108.6-53.4c-0.1,0.2-0.1,0.4-0.2,0.6c-0.1,0.3-0.5,0.7-0.1,1c0.4,0.3,0.6-0.2,0.9-0.4
				c0.2-0.1,0.4-0.4,0.6-0.4c0.4-0.1,0.8-0.6,1.1-0.1c0.3,0.5-0.4,0.7-0.6,0.9c-0.8,0.5-1.4,1.3-2.3,1.7c-0.6,0.2-1,0.7-1.5,1l0,0
				c-0.2-1,0.6-1.6,0.7-2.5c0-0.3,0.2-0.7,0.3-1.1c0.1-0.2,0.2-0.5,0.5-0.5c0.1-0.1,0.2-0.2,0.3-0.2
				C1108.4-53.4,1108.5-53.4,1108.6-53.4z"/>
			<path id="XMLID_16_" class="st49" d="M1116.1-48.2c-0.9,1.3-2,2.2-3.8,2c0.7-0.5,1.7-0.9,0.8-2.1c-0.2-0.3,0.1-1,0.5-1
				c0.5,0,0.4,0.5,0.3,0.8c-0.1,0.4,0.2,0.6,0.4,0.8c0.3,0.2,0.6,0.1,0.9-0.1C1115.5-47.9,1115.8-48.2,1116.1-48.2z"/>
			<path id="XMLID_15_" class="st42" d="M1086.3-41.1c0.1,0.2,0.1,0.2,0.1,0.2c-0.1,0.9-0.8,1.2-1.5,1.5c-0.1,0.1-0.4-0.1-0.3-0.3
				C1085.1-40.2,1085.6-40.8,1086.3-41.1z"/>
			<path id="XMLID_14_" class="st66" d="M1108.1-53.2c-0.2,0.1-0.2,0.3-0.3,0.5c-0.5,1.2-0.9,2.4-1.5,3.5c-0.5,1.4-0.9,2.8-1.8,4
				c-0.3,0.6-0.3,1.4-0.8,2c-0.2,0.3-0.5,0.4-0.5,0.8c-0.5,1-1.5,1.1-2.4,1.3c-0.9,0.2-0.6-0.5-0.4-1c1.2-1.6,2-3.4,2.7-5.2
				c0.7-1.7,1.4-3.4,2.7-4.7c0.4-0.4,0.6-1,0.9-1.5c0.2-0.3,0.4-0.7,0.9-0.6C1108.3-54,1108-53.5,1108.1-53.2z"/>
			<path id="XMLID_13_" class="st61" d="M1106.3-49.1c0.3-1.3,0.8-2.4,1.5-3.5c-0.2,1.3-0.7,2.4-1.3,3.5
				C1106.5-49.2,1106.4-49.2,1106.3-49.1z"/>
			<path id="XMLID_12_" class="st67" d="M1103.8-43.1c0-0.8,0.2-1.4,0.8-2C1104.6-44.4,1104.8-43.5,1103.8-43.1z"/>
			<path id="XMLID_11_" class="st64" d="M1115.4-62.2c0.5,0.4,0.3,1,0.2,1.5c-0.4,0.2-0.7,0.6-0.9,1c-0.4,0.9-1.1,1.4-2.1,1.3
				c0.2-0.7,1-0.6,1.4-1c0.6-0.7,1.4-1.3,1-2.5c-0.2-0.5-0.3-1.2,0.2-1.8c0,0.1,0,0.2,0,0.3C1115.2-63,1115-62.6,1115.4-62.2z"/>
			<path id="XMLID_10_" class="st68" d="M1112.6-62.2c0-0.3-0.1-0.6,0.2-0.8c0.3,0,0.7-0.8,0.9-0.1c0.2,0.5,0,1.2-0.5,1.5
				C1112.8-61.3,1112.7-61.8,1112.6-62.2z"/>
			<path id="XMLID_9_" class="st69" d="M1116.4-62c-0.3-0.1-0.6-0.5-1-0.5c0-0.5,0.1-0.9,0.7-0.5c0.6,0.4,0.9,0,1.1-0.5
				c0.4,0,0.8,0.1,1.1,0.5c0.2,0.2,0.4,0.3,0.3,0.6c-0.1,0.3-0.4,0.4-0.7,0.4C1117.4-62,1116.9-62,1116.4-62z"/>
			<path id="XMLID_8_" class="st70" d="M1101.8-57.9c0.6-0.6,1.1-0.3,1.5,0.3c0,0.7,0.2,1.6-1.1,0.9c-0.6-0.3-1.2,0.3-1.1,0.8
				c0.4,1.2-0.5,1.4-1.1,1.9c-0.4,0.1-0.7,0.2-1.1,0.2c-0.2,0-0.5,0.1-0.6-0.1c-0.5-0.6-0.2-1.5-0.9-2.1c-0.2-0.1,0.2-0.7,0.6-0.8
				c0.5,0.3,0.5,0.3,1-0.1c-0.4-0.2-0.7,0.3-1,0.1c-0.1-1.3,0.4-1.5,1.8-0.8C1100.6-57.3,1101.2-57.3,1101.8-57.9z"/>
			<path id="XMLID_7_" class="st71" d="M1107.1-55.4c-0.1,1.3-0.9,2.1-2,2.8c0-0.9-0.5-1.2-1.3-0.9c-0.5,0.2-0.9,0.4-1.4,0.6
				c-0.6,0.2-1.2,0.3-1.6-0.4c0.8-0.8,1.1-2.2,2.5-2.3C1104.6-55.8,1105.9-56.5,1107.1-55.4z"/>
			<path id="XMLID_6_" class="st72" d="M1098.1-56.9c0.1-0.1,0.2-0.1,0.3-0.2c0.3-0.2,0.5-0.7,1-0.4c0.3,0.1,0.1,0.4,0,0.7
				c-0.2,0.4-0.4,0.9-0.9,0.9C1098-56.1,1098.1-56.6,1098.1-56.9L1098.1-56.9z"/>
		</g>
	</g>
</g>
<g id="yz2">
	<g id="图层_1_1_">
		<g id="XMLID_1_">
			<path id="XMLID_123_" class="st39" d="M740.3,24.5c-0.4-0.3-0.4-0.8-0.5-1.3c0.6-1,0.1-1.5-0.8-1.8c-0.1-0.3-0.1-0.6-0.2-0.9
				c0.5-0.6-0.1-1.4,0.2-2c0.2-0.2,0.4,0,0.5,0.1c0.4,0.7,0.6,1.5,1.6,1.4c0.9,0.1,1.9,0.2,2.5,1c0.1,0.4,0,0.7-0.2,1
				c-0.6,1.6-0.1,2.3,1.7,2.2c0.3,0,0.6-0.2,0.9-0.1c0.5,0.2,0.7,0.8,1.2,0.9c1.5,0.7,4.4,3.8,4.7,5.1c-1.4,0.7-1.5,1.2-0.7,3.1
				c1,0.9,1.8,1.8,1,3.3c-0.3,0.6,0.2,1,0.6,1.5c2,2,4.1,3.8,6.2,5.7c0.1,0.1,0.1,0.2,0.2,0.2c2.1,0.8,3.7,2.4,5.6,3.3
				c1.6,0.8,2.3,2,3.3,3.2c0,0.2,0,0.5-0.1,0.7c-0.6,0.5-1.2,0.2-1.8-0.1c-0.6-0.3-1.2-0.7-1.9-0.8c-6.5-4.3-12.6-9-17.7-15
				c0.3-1.6-1-2.7-1.4-4.1c-0.4-1.2-1.1-2.3-2.1-3.1c-0.7-0.6-1-1.4-1-2.3C742.1,24.3,741.5,23.9,740.3,24.5z"/>
			<path id="XMLID_122_" class="st40" d="M764.4,50.2c1.3-0.4,2.2,1.1,3.5,0.9c3.2,0.7,6.4,1.5,9.4,2.6c0.6,0.1,1.2,0,1.8,0.4
				c1.9,1.4,3.7,2.9,6,3.8c1.3,0.5,1.6,0.4,1.8-1.1c2-0.7,3.6,0.5,5.3,1.3c-0.2,0.4-0.5,0.7-0.7,1.1c-0.9,0.2-1.9,0.4-2.8,0.6
				c-1.5-0.6-3.1-0.8-4.6-1C776.6,58.1,770.1,55,764.4,50.2z"/>
			<path id="XMLID_121_" class="st41" d="M739,21.4c0.6-0.2,1.3-0.1,1.5,0.5s-0.1,1.1-0.7,1.3c-0.1-0.2-0.1-0.5-0.5-0.6
				C739.2,22.3,739.1,21.8,739,21.4z"/>
			<path id="XMLID_120_" class="st42" d="M775.5,30.6c4.4,7.4,10,13.9,14.9,20.9c0.7,1,1.3,1.9,1.5,3.1c-0.2,1.1-0.9,1.4-1.9,1.2
				s-0.9-1-0.8-1.8c0.2-2-1.3-3.7-3.3-3.8c-1,0-1,0-0.4-1.5c-0.1-0.2-0.3-0.2-0.4-0.1c-1.9,1-3.1,0.4-4.6-1.1
				c-1.4-1.4-2.9-2.7-3.7-4.6c-0.2-0.5-0.6-0.9-1.3-0.8c0.8,0.9,0.9,2.1,1.8,2.9c0.5,0.4,0.3,1.1-0.2,1.6c-0.4,0.4-0.9,0.1-1.3-0.1
				c-0.3-0.2-0.6-0.4-0.7-0.6c-0.7-1.7-2.7-2.4-3.5-4.1c-0.5-1-1.7-1.7-2.3-2.8c-0.5,0.6-0.2,0.9,0,1.1c1.1,1.2,2,2.6,3.3,3.6
				c1.7,1.2,1.9,2.8,1.5,4.6c-0.8,0.1-1.1-0.6-1.3-1.2c-0.7-1.5-1.6-2.8-2.9-3.9c-2.2-1.9-4.2-4-6.3-6c-1.4-1.3-2.4-3.3-3.3-5.2
				c-0.2-0.5-0.3-1.1-0.8-1.3c-2-0.7-1.6-2.2-1.3-3.7c1.7-0.7,3.1,0.4,4.6,0.8c0.7,0.2,1.4,0.6,2,1c0.4,0.3,0.8,0.5,1.3,0.1
				s1.1-0.4,1.5-0.1c1.4,1.3,3.1,1.4,4.8,1.5c0.7,0.3,1.4,0.5,2.2,0.1C775,30.1,775.3,30.3,775.5,30.6z"/>
			<path id="XMLID_119_" class="st43" d="M746,7.9c3.2-1.4,6.3-1.1,9.5,0.1c0.8,1.5,1.9,2.5,3.6,2.9c0.5,0.1,1,0.3,1.4,0.7
				c0.1,0.1,0.2,0.2,0.3,0.3c1.7,1.7,1.7,2.3-0.1,3.4c1.5-1.2,2.6-0.5,3.6,0.6c1.7,0.7,2.7,2.2,3.7,3.6c0.7,1.1,1.3,2.3,2.1,3.4
				c0.4,0.5,0.7,1.2,0.2,1.7c-0.6,0.6-1.1,0.1-1.7-0.1c-2.7-1-4.5-3.2-6.6-5.1c1.1,1.1,1.6,2.5,2.8,3.5c0.4,0.4,0.7,0.9,0.3,1.4
				c-0.3,0.5-0.9,0.3-1.3,0.1c-0.7-0.5-1.3,0-2-0.1c-0.9-0.3-1.5-0.8-1.9-1.7c-0.1-0.7-0.9-1.1-1.1-1.6c-0.5-1.6-1.7-1.8-3.1-2
				c-0.9-0.1-1.6-1-2.3-1.7c-0.1-0.2,0.1-0.5-0.2-0.7c-1.3-1.1-1.3-1.1,0-2c-0.6-0.6-1.3-0.7-2-0.6c-0.7,0.1-1.5,0.1-1.7-0.8
				c-0.2-0.9,0.5-1,1.1-1.3c0.5-0.3,0.9-0.7,1.5-0.8c1.2,0.2,2.3-0.3,3.4-0.6c-0.9-0.9-2.2-1.5-3.7-1.3c-1.2,0-2.4-0.1-3.6,0.2
				c-0.6,0.1-1.3,0.1-1.7-0.5C746.3,8.4,746.1,8.1,746,7.9z"/>
			<path id="XMLID_118_" class="st44" d="M774.2,48.1c0.4-3.2-2.4-4.5-3.9-6.5c-0.6-0.7-1.2-1.4-1.7-2.1c-0.3-0.4-0.3-1,0.2-1.2
				c0.4-0.2,1,0.1,1,0.5c0.4,1.7,2.6,2.1,2.7,4c1.9,0.3,2,2.4,3.4,3.4c0.3,0.2,0.7,0.7,1.1,0.2c0.3-0.4,0.5-1.2-0.1-1.4
				c-1.3-0.5-0.6-2.4-2.1-2.7c-0.4-0.1,0-0.7,0.5-0.7c1.2,0,1.8,0.8,2.2,1.8c0.6,1.5,1.3,2.7,2.8,3.4c0.5,0.2,0.8,0.7,1.1,1.2
				c0.7,1.1,1.7,1.4,2.9,0.8c0.6-0.3,1.1-1,1.8-0.2c0.8,0.9-0.7,1-0.7,1.6c2-0.5,3,0.1,3.8,2.1c0.3,0.9,1.1,1.6,0.3,2.7
				c-0.3,0.4,0.3,0.8,0.9,0.8c0.7,0,1.1-0.5,1.6-1c0.7,1.1,0.9,2.3,0.3,3.5c-1.9,0-3.4-1.7-5.4-1.2c-1.4,0.2-2.4-0.8-3.5-1.4
				c-0.5-0.3-0.9-0.7-1.4-1c-2.9-1.4-4.8-4-7.4-5.8C774.3,48.7,774.2,48.4,774.2,48.1z"/>
			<path id="XMLID_117_" class="st45" d="M761.7,23.9c0.7-0.1,1.4-0.9,2.2,0c0.2,0.2,0.6,0.6,0.9,0.1c0.2-0.3,0-0.8-0.3-1
				c-1.5-0.9-1.8-2.7-3.1-3.7c-0.3-0.2-0.7-0.6-0.3-0.9c0.3-0.3,0.7,0,0.9,0.3c1.2,1.3,2.6,2.4,3.7,3.6c1,1.1,2.7,0.9,3.6,2.1
				c0.1,0.2,0.5,0.1,0.7-0.1c0.2-0.3,0.2-0.7,0-0.9c-2-2.5-2.9-5.9-6.1-7.5c-0.8-1.7-1.9-3.1-3.5-4.2l0,0c-0.4-0.4-0.8-0.7-1.3-1
				c-0.6-0.4-0.6-0.8-0.2-1.3c3,1.6,5.7,3.2,7.4,6.4c1.7,3.3,3.8,6.3,5.7,9.5c0.2,0.8-0.4,1-1,1.2c-0.5,0.1-1-0.1-1.4-0.4
				c-0.7-0.8-1.7-0.4-2.5-0.5c-1.8-0.5-3.6-0.6-5.3-1.2c-0.1-0.1-0.2-0.2-0.3-0.3C761.7,24,761.7,24,761.7,23.9z"/>
			<path id="XMLID_116_" class="st46" d="M739.4,18.7c-0.1-0.1-0.3-0.2-0.4-0.3c-0.2-0.8-0.1-1.6,0.1-2.3c0.9-0.3,1.7-0.1,2.4,0.5
				c0.5,0.3,1.1,0.2,1.5-0.1c2.1-1,3.6-0.2,4.9,1.4c0.1,0.2,0.3,0.3,0.5,0.4c0.1,0.1,0.2,0.2,0.4,0.3c1.1,0.9,2.4,1.5,3.8,2
				c1.2,0.4,2.5,0.8,3.4,1.9c0,0.2,0,0.3-0.1,0.4c-2.1-0.1-4-0.7-5.9-1.6c-0.5-0.3-1.1-0.5-1.5-0.9c-1.1-1.1-2-1-2.9,0.1
				c-0.7,0.1-1.4-0.1-1.8-0.7c0-0.4,0.3-1-0.4-1c-0.7-0.1-0.3,0.6-0.5,0.9c-0.6,0.4-1.1,0-1.7-0.1C740.6,19.4,739.9,19.2,739.4,18.7
				z"/>
			<path id="XMLID_115_" class="st47" d="M740.2,13c0.5-1,1-2,2.1-2.6c0.8,0.2,1.6,0.2,2.2-0.6c0.4-0.5,1-1.1,1.9-0.9
				c0.3,0.5,0.8,0.4,1.3,0.4s0.9,0.3,1,0.9c0.1,0.5-0.1,1-0.6,1.2c-0.9,0.4-1.5,0.7-1.2,2c0.3,0.9-0.7,1.8-1.6,2.1s-1.4-0.3-1.4-1.2
				c0-0.6,0.4-1.2,0-1.9c-0.7,0.9,0.6,2.1-0.5,2.8c-0.9-0.3-0.5-1.5-1.2-1.9c-0.8,0.2-0.5,1.2-1.1,1.4C740.3,14.3,740,13.7,740.2,13
				z"/>
			<path id="XMLID_114_" class="st48" d="M771,26.2c0.5-0.1,1-0.3,1.1-0.9c1.3,1.6,2.3,3.4,3.3,5.2c-1-0.1-2,1.3-2.9-0.1
				c-0.4-0.2-0.7-0.3-0.6-0.8c0.6-0.3,0.8-0.7,0.5-1.5C772.1,27.4,771.2,27.1,771,26.2z"/>
			<path id="XMLID_100_" class="st49" d="M759.1,9.5c-0.4,1.3,1.3,1.3,1.5,2.3c-1.6-0.6-3.2-1-4.5-2.2c-0.5-0.5-0.8-0.9-0.5-1.6
				C756.8,8.2,758,8.7,759.1,9.5z"/>
			<path id="XMLID_99_" class="st50" d="M746.2,8.8c-0.5,0.9-1.8,1-2.2,2.1c-0.1,0.4-1.2-0.2-1.7-0.6c0.9-1.3,2.3-2,3.7-2.5
				c0.2,0.1,0.5,0.1,0.7,0.2C746.5,8.3,746.6,8.7,746.2,8.8z"/>
			<path id="XMLID_98_" class="st51" d="M740.2,13c0.3,0.5,0.5,1.1,1,1.5c0.8-0.3,1.2,0,1.3,0.8c0,0.5,0.1,0.8,0.6,0.9
				c0.1,0.1,0.2,0.2,0.2,0.4c-0.3,0.5-1,0.4-1.4,0.5c-0.5-0.3-0.7-0.9-1.3-1c-1.1-0.3-0.2-1.4-0.8-2C739.7,13.7,739.9,13.3,740.2,13
				z"/>
			<path id="XMLID_97_" class="st52" d="M739.7,14.1c0.2,0,0.4,0.1,0.6,0.1c-0.5,1.4,1.2,1.7,1.4,2.8c0,0.1-0.1,0.2-0.2,0.1
				c-0.1,0-0.1,0-0.1-0.1c-0.5-0.9-1.5-0.5-2.2-0.9C739.1,15.4,739.3,14.7,739.7,14.1z"/>
			<path id="XMLID_96_" class="st41" d="M740.3,24.5c0.3-0.9,1.1-0.8,1.7-0.8c0.7,0,0.4,0.8,0.4,1.3c0.1,1.2,0.4,2.3,1.5,3.2
				c1,0.8,1.5,2.1,2,3.3c0.3,0.8,0.5,1.6,1.2,2.2c0.8,0.7,0,1.1-0.4,1.5C744,32,741.6,28.5,740.3,24.5z"/>
			<path id="XMLID_95_" class="st53" d="M767.9,50.4c-1.3-0.7-1.6-2.4-3.4-2.9c-0.9-0.3-2.6-1-3.2-2.3c-0.1-0.1-0.2-0.3-0.3-0.4
				c-3.1-0.9-5-3.3-7.1-5.5c-0.4-0.4-0.8-0.7-1.3-1c-0.9-0.6-1.3-1.3-0.6-2.2c1.1-1.5-0.8-1.8-1-2.8c-0.3-0.3-0.3-0.6,0.2-0.7
				c0.4-0.1,0.6-0.3,0.9-0.5c1.4,0.3,1.3,1.4,1.2,2.5c-0.1,0.7-0.7,1.8,0.8,1.8c0.1,0,0.3,0,0.4,0.1c1.1,0.6,1.6-0.5,2.4-0.9
				c1.2-0.5-0.1-1.5,0.3-2.3c1.6,0.1,2.3,1.4,3.2,2.5c0.3,0.4,0.5,0.9,0.9,1.3c0.5,0.4,0.9,0.8,0.7,1.5c-0.3,0.9-1,0.5-1.8,0.6
				c0.6,0.5,1.2,0.9,0.9,1.7c-0.3,1,0.3,1.2,1.1,1.2c1-0.1,1.9,0,2.8,0.3c2.3,1.2,4.2,3,5.9,4.8c1.2,1.3,2.5,2.4,3.6,3.6
				c-0.8,0.8-1.7,0.4-2.5,0c-1.1-0.6-2.2-1.4-3.4-0.2C768.4,50.7,768.1,50.6,767.9,50.4z"/>
			<path id="XMLID_94_" class="st42" d="M764.9,42.5c-1,0-1.9-0.3-3-0.1c-1.1,0.2-1.6-0.6-1.2-1.6c0.3-0.8-0.1-1.1-0.7-1.3
				c-0.4-0.1-0.8-0.4-0.6-0.9c0.2-0.4,0.6-0.2,1-0.1s0.9,0.6,1.2,0c0.3-0.6-0.2-0.9-0.6-1.1c-1.2-0.9-1.5-2.4-2.7-3.3
				c-0.4-0.2-0.7-0.7-1.1-0.8c-0.9-0.2-1.7-0.8-2.8-0.6c-0.8,0.2-1.4-0.5-1.4-1.4c0-0.7-0.3-1-0.9-1.1c-0.1,0-0.1-0.1-0.2-0.1
				c-1.7-1.6-2.5-4-4.9-4.9c-0.7-1-0.1-1.4,0.8-1.4c2.5,0,4.9,1.8,5.5,4.3c0.2,0.7,0.8,0.8,1.2,1.2c0.8,1.4,2.5,1.7,3.6,2.6
				c0.5,0.4,1,0.6,1.5,0.8c1.1,0.5,1.8,1.2,1.9,2.5c0,0.8,0.3,1.4,1,1.9c0.2,0.1,0.5,0.3,0.5,0.6C763.2,39.6,764.6,40.9,764.9,42.5z
				"/>
			<path id="XMLID_93_" class="st54" d="M745.6,20.4c1-1.6,1-1.6,2.7-0.3c0.5,0.4,1.3,0.4,1.7,1.1c-0.4,0.6-1.6,0.4-1.6,1.5
				c-0.6,0.9-1.4,1.4-2.3,1.6c-1,0.8-2.2,0.7-3-0.1c-1.1-1.1,0.1-2,0.4-3c0.8-0.5,1.6,0,2.4,0.1C746,20.9,745.5,20.7,745.6,20.4z"/>
			<path id="XMLID_92_" class="st55" d="M767.9,50.4c0.3-0.1,0.7-0.1,0.7-0.2c1-2,2.1-0.6,3.1-0.1c0.9,0.5,1.7,0.8,2.7,0.5
				c1.7,0,2.3,1.4,3.3,2.4c0.2,0.3,0.4,0.8-0.3,0.9c-1.8-0.2-3.4-1.1-5.1-1.5c-0.9-0.2-1.8-0.5-2.7-0.7c-0.6-0.1-1.3-0.1-1.6-0.8
				C767.9,50.8,767.9,50.6,767.9,50.4z"/>
			<path id="XMLID_91_" class="st56" d="M746.1,24.2c0.5-0.9,1.6-1.1,2.2-1.8c1.7-0.3,4.8,1.1,5.5,2.6c-0.1,1.1,0.1,2.1,0.4,3.1
				c0.1,0.5,0.5,1,0.2,1.5c-1.1-0.3-1.7-0.7-1.5-2.1c0.1-1.2-1.3-1.8-2.3-2.4c-0.8-0.4-1.7-0.6-2.6-0.9c-0.8-0.2-1.2,0.1-1,1
				C746.4,25.2,746.2,24.7,746.1,24.2z"/>
			<path id="XMLID_90_" class="st57" d="M746.2,26.2c0.8-0.2,2.9,1.6,3,2.6c0.1,1.2-1.1,1.3-1.8,1.8c-0.2,0.2-0.5,0.1-0.6-0.1
				c-0.5-1.1-1.2-2.1-1.3-3.3C745.5,26.7,745.7,26.2,746.2,26.2z"/>
			<path id="XMLID_89_" class="st58" d="M745.6,20.4c0.2,0.1,0.5,0.3,0.7,0.4c0.2,0.2,0.6,0.4,0.4,0.8s-0.6,0.3-0.8,0.1
				c-0.7-0.4-1.6-0.3-2.3-0.6c-0.8-0.4-1.5-0.9-2.4-0.8c-0.4-0.4-0.3-0.7,0.1-1c0.6,0.1,1.1,0.2,1.7,0.3c0.4-0.1,0.7-0.2,1,0.1
				C744.4,20.1,745,20.4,745.6,20.4z"/>
			<path id="XMLID_88_" class="st42" d="M752,32.1c0.1,0.5,0.3,1.2-0.7,0.8c-0.4-0.2-0.4,0.1-0.4,0.4c-0.9-0.8-0.6-2.1-0.7-3
				c-0.1-1,1.1,0.2,1.6-0.1l0,0C752,30.8,751.8,31.5,752,32.1z"/>
			<path id="XMLID_87_" class="st54" d="M741.2,19.4c0,0.3-0.1,0.7-0.1,1c-1.3,0.3-1.5-0.7-1.6-1.6C740.1,18.7,740.6,19,741.2,19.4z
				"/>
			<path id="XMLID_86_" class="st59" d="M777.4,54c0.1-1.6-1.4-1.9-2.2-2.8c-0.2-0.2-0.5-0.3-0.8-0.5c-1.7-0.6-2.6-1.9-3.7-3.2
				c-1.4-1.7-3.3-3.1-5.2-4.4c-0.2-0.1-0.4-0.3-0.6-0.5c-0.8-1.3-2.2-2.2-1.8-4c0-0.2-0.1-0.5-0.2-0.6c-1.5-0.6-1.6-1.9-1.7-3.2
				c-0.1-0.8-1-1.2-1.7-1.5c-0.6-0.2-1.3-0.2-1.5-1c0.3-1.3-0.5-2.2-1.1-3.2c-0.8-1.4-0.6-2,0.7-2.5c0.3,0,0.6,0.1,0.9,0.4
				c0,0.5,0,1.1,0,1.6c0.1,0.7-0.2,1.6,1.2,1.5c0.7,0,0.9,0.8,1,1.4c0.6,2,1.8,3.9,3.1,5.1c1.5,1.5,3,3.1,4.8,4.5
				c2.1,1.7,4.2,3.6,5.1,6.3c0.1,0.3,0.4,0.4,0.7,0.7c2.8,1.8,4.9,4.5,7.8,6.2c-0.5,0.6-1.1,0.4-1.7,0.1c-0.4-0.2-0.8-0.5-1.3-0.1
				C778.6,54,777.9,54.4,777.4,54z"/>
			<path id="XMLID_85_" class="st60" d="M779.1,54.3c-0.2-0.8,0-1.3,0.8-0.6c0.7,0.5,1.3,0.9,2.1,0.7c1.6,0.9,3,2.1,4.8,2.6
				c0.1,0.4,1,0.5,0.5,1.1c-0.3,0.4-0.9,0.9-1.5,0.6c-1.1-0.6-2.5-0.3-3.3-1.8c-0.3-0.6-1.4-0.8-2.1-1.3
				C779.9,55.2,779.3,55,779.1,54.3z"/>
			<path id="XMLID_65_" class="st61" d="M758.4,26.9c-0.3,0-0.5,0-0.7-0.2c-1.3-0.7-2.6-1.3-4-1.8c-1.6-1.2-3.4-2.1-5.4-2.5
				c-0.7-2,1.1-1,1.7-1.3c1.9,0.8,4,1.1,5.9,1.7c0.3-0.1,0.4,0,0.4,0.3c-0.7,0.8-0.1,1,0.5,1.3c3.9,2.1,8.3,2.6,12.6,3.8
				c0.9,0.3,2.2,0.1,2.6,1.4c0.2,0.3,0.3,0.6,0.5,0.9c-1.8,0.1-3.6,0.3-4.9-1.4c-0.2-0.2-0.9-0.3-1-0.2c-0.8,1.2-1.4,0.4-2.2-0.1
				C762.6,27.8,760.5,27.2,758.4,26.9z"/>
			<path id="XMLID_64_" class="st62" d="M752.2,11.2c-0.6,0.3-1.2,0.7-1.8,1c-0.4,0.2-0.9,0.2-0.7,0.8c0.2,0.5,0.6,0.6,1.1,0.4
				c0.9-0.3,1.7-0.1,2.4,0.4c0.3,0.2,0.9,0.2,0.8,0.8c-0.1,0.5-0.5,0.6-1,0.6c-0.3-0.1-0.7,0-0.7,0.4s0.4,0.4,0.7,0.4
				c0.4,0,0.8-0.1,1,0.3c0.3,0.6-0.6,0.5-0.6,0.9c0,0.5-0.2,1-0.4,1.5c-0.3,1-1,1.4-1.9,0.9c-0.8-0.4-1.7-0.5-2.5-0.7l0,0
				c-0.7-1.2-1.5-2.1-2.9-2.4c-0.3-0.1-0.7-0.3-0.7-0.7c0.3-0.5,0.7-0.3,1.1-0.2c1.9,0.2,2.6-0.7,2.3-2.6c-0.1-0.7,0.2-1.3,0.8-1.3
				C750.2,11.4,751.1,10.1,752.2,11.2z"/>
			<path id="XMLID_63_" class="st63" d="M748.7,13.2c0.5,1.1-0.7,2.8-1.9,2.7c-0.6,0-1.2-0.2-1.8-0.3c-0.5,0.5-1.2,0.6-1.8,0.7
				c-0.1,0-0.2,0-0.3,0.1c-0.5-0.6-0.1-1,0.4-1.4c0.5-0.9-0.1-1.6-0.2-2.5c0-0.3-0.1-0.7,0.2-0.9c0.3-0.2,0.6-0.1,0.9,0.1
				c0.4,0.2,0.6,0.5,0.4,0.9c-0.1,0.2-0.2,0.4-0.2,0.6c0.1,0.6-0.6,1.4,0.3,1.8c0.4,0.2,0.9,0.2,1.1-0.3c0.2-0.7,1.7-0.8,0.6-2
				c-0.7-0.8,0.2-1.3,1-1.5c0.6-0.2,1.3-0.2,1.1-1c-0.1-0.7-0.7-0.7-1.3-0.6c-0.7,0.1-0.8-0.3-0.9-0.8c0.2-0.3,0.3-0.5,0.5-0.8
				c0.1,0.8,0.6,1,1.2,0.7c1.3-0.4,2.7-0.2,4.1-0.2c1.3,0.7,0.5,1.3-0.1,1.8c-0.9,0.6-1.9,1-2.9,1.3
				C747.7,12.1,747.7,12.2,748.7,13.2z"/>
			<path id="XMLID_62_" class="st64" d="M748.6,18.8c0.9-0.2,1.7-0.5,2.6,0.4c0.6,0.6,1.4,0.3,1.5-0.7c0.1-0.6,0-1.2,0.8-1.3
				c0.5-0.1,0.8,0.2,1.2,0.6c0.8,0.7,1.7,1.4,3,0.8c0.6-0.3,1.3,0,1,0.8c-0.4,1,0.1,1.3,0.8,1.5c0.9,0.3,0.7,0.9,0.7,1.5
				c-1.4-0.4-2.1-1.6-3.4-2.3c0.1,0.6,0.5,0.8,0.8,1.1c0.5,0.4,1.1,0.9,0.5,1.6c-0.4,0.6-1,0.4-1.6,0.1c-0.2-0.1-0.4-0.2-0.6-0.3
				C753.6,21,750.6,20.8,748.6,18.8z"/>
			<path id="XMLID_61_" class="st65" d="M748.7,13.2c-0.3-0.1-0.6-0.1-0.9-0.2c-0.4-0.1-0.7-0.2-0.8-0.6c0-0.5,0.4-0.6,0.8-0.6
				c1.4-0.1,2.5-1,3.6-1.5c0.6-0.3,1.5-0.7,0.6-1.7c1.9-0.4,3,1,4.3,2c-1.5-0.3-2.6,1.3-4.1,0.5c-1.2-0.2-2.2,0.6-3.3,0.8
				C748.3,12.1,748.7,12.8,748.7,13.2z"/>
			<path id="XMLID_60_" class="st45" d="M755.9,22.5c0.3,0,0.5,0,0.8,0.1c0.4,0,1,0.4,1.3-0.2c0.3-0.6-0.4-0.8-0.7-1
				c-0.2-0.2-0.6-0.4-0.7-0.6c-0.2-0.4-0.9-0.9-0.4-1.4c0.6-0.5,0.9,0.3,1.3,0.6c0.8,0.9,2,1.3,2.7,2.4c0.4,0.7,1.1,1.1,1.7,1.6l0,0
				c-1.1,0.5-2.2-0.3-3.3-0.2c-0.4,0-0.9-0.1-1.4-0.1c-0.3-0.1-0.7-0.1-0.7-0.5c-0.1-0.1-0.2-0.2-0.4-0.3
				C755.9,22.7,755.9,22.6,755.9,22.5z"/>
			<path id="XMLID_59_" class="st49" d="M760.5,11.8c1.9,0.8,3.3,2,3.5,4.2c-0.8-0.7-1.6-1.8-2.8-0.5c-0.3,0.3-1.2,0.1-1.3-0.4
				c-0.2-0.7,0.5-0.6,1-0.6c0.6,0.1,0.7-0.3,0.9-0.7c0.2-0.5,0-0.8-0.4-1.1C761,12.5,760.6,12.2,760.5,11.8z"/>
			<path id="XMLID_58_" class="st42" d="M777,47.2c0.2-0.2,0.2-0.2,0.2-0.2c1.1-0.1,1.7,0.7,2.2,1.5c0.1,0.2-0.1,0.5-0.2,0.4
				C778.4,48.4,777.5,48,777,47.2z"/>
			<path id="XMLID_57_" class="st66" d="M756.3,23.1c0.2,0.2,0.4,0.2,0.7,0.2c1.6,0.4,3.2,0.5,4.8,1c1.8,0.3,3.7,0.4,5.5,1.2
				c0.9,0.2,1.8,0,2.7,0.4c0.4,0.1,0.6,0.6,1.1,0.4c1.3,0.4,1.8,1.6,2.2,2.7c0.4,1.1-0.5,0.8-1.2,0.7c-2.3-1.1-4.7-1.6-7.2-2.1
				c-2.3-0.4-4.6-0.9-6.6-2.2c-0.6-0.4-1.4-0.5-2.1-0.7c-0.4-0.2-1-0.4-1-0.9C755.2,23.1,755.9,23.2,756.3,23.1z"/>
			<path id="XMLID_56_" class="st61" d="M761.8,24.2c-1.7,0-3.2-0.3-4.8-1c1.6-0.1,3.2,0.2,4.7,0.7C761.7,24,761.8,24.1,761.8,24.2z
				"/>
			<path id="XMLID_55_" class="st67" d="M769.9,25.8c-1,0.3-1.9,0.1-2.7-0.4C768.2,25.2,769.2,24.8,769.9,25.8z"/>
			<path id="XMLID_54_" class="st64" d="M743.2,16.3c0.4-0.7,1.2-0.6,1.8-0.7c0.4,0.5,0.9,0.7,1.5,0.8c1.3,0.3,2.1,1,2.1,2.3
				c-0.9-0.1-1-1-1.6-1.4c-1-0.6-2-1.4-3.3-0.6c-0.6,0.4-1.5,0.7-2.3,0.2c0.1,0,0.2-0.1,0.3-0.1C742.2,16.8,742.9,16.9,743.2,16.3z"
				/>
			<path id="XMLID_53_" class="st68" d="M743.9,19.8c-0.3,0.1-0.7,0.2-1-0.1c-0.1-0.4-1.2-0.6-0.4-1.1c0.6-0.4,1.5-0.3,2,0.3
				C744.9,19.3,744.3,19.6,743.9,19.8z"/>
			<path id="XMLID_52_" class="st69" d="M743.2,15c-0.1,0.5-0.5,0.8-0.4,1.4c-0.6,0.2-1.1,0.1-0.8-0.7c0.3-0.9-0.2-1.1-0.9-1.2
				c-0.2-0.5-0.1-1,0.3-1.5c0.2-0.2,0.3-0.6,0.7-0.6c0.4,0,0.6,0.4,0.7,0.7C743,13.8,743.1,14.4,743.2,15z"/>
			<path id="XMLID_51_" class="st70" d="M752,32.1c-0.9-0.6-0.6-1.3-0.1-1.9c0.9-0.1,2-0.6,1.4,1.2c-0.3,0.8,0.7,1.5,1.2,1.1
				c1.4-0.8,1.9,0.2,2.6,0.9c0.2,0.4,0.4,0.9,0.6,1.3c0.1,0.2,0.2,0.6,0.1,0.8c-0.6,0.8-1.8,0.7-2.4,1.7c-0.1,0.2-0.9-0.1-1.2-0.5
				c0.3-0.8,0.3-0.8-0.3-1.2c-0.2,0.5,0.5,0.8,0.3,1.2c-1.5,0.5-2-0.1-1.5-2C753.1,33.5,752.9,32.8,752,32.1z"/>
			<path id="XMLID_50_" class="st71" d="M753.8,24.9c1.7-0.2,2.9,0.6,4,1.8c-1.2,0.2-1.3,0.9-0.7,1.8c0.3,0.5,0.7,1,1,1.6
				c0.5,0.7,0.7,1.5-0.1,2.1c-1.2-0.8-3-0.8-3.5-2.6C753.9,28.1,752.8,26.7,753.8,24.9z"/>
			<path id="XMLID_49_" class="st72" d="M754.2,36.6c-0.1-0.1-0.2-0.2-0.3-0.3c-0.4-0.3-1-0.5-0.8-1.2c0.1-0.4,0.5-0.3,0.8-0.2
				c0.5,0.2,1.2,0.2,1.3,0.9C755.3,36.4,754.7,36.5,754.2,36.6L754.2,36.6z"/>
		</g>
	</g>
</g>
<g id="yz3">
	<g id="XMLID_187_">
		<path id="XMLID_188_" class="st73" d="M1477.3-17.4c0,0,23.2-51.4,57.3-51.4s38.7,42.6-21,63C1453.8,14.6,1461.9,7.6,1477.3-17.4z
			"/>
	</g>
</g>
<g id="yz4">
	<g id="XMLID_184_">
		<path id="XMLID_186_" class="st74" d="M845.9,257c-4.3,0.9-2-6.3-2-6.3c4.4-9.3-1.5-17.5-1.5-17.5c-3.9-16.1,6.6-24.4,14.9-24.6
			c0,0,15.5,0.9,11.8,25.3"/>
		<path id="XMLID_185_" class="st75" d="M868.8,234.2c0,0-3.7,1.5-3.8-11.3c0,0-2.2-8.6-3.9,1.9c-1.7,10.5-4.8,13.5-7.3,11.9
			s-5.1-1.5-4,11.5l-4.1,9.2C845.6,257.4,857.2,263.3,868.8,234.2z"/>
	</g>
</g>
<g id="yz5">
	<g id="XMLID_146_">
		<path id="XMLID_167_" class="st74" d="M588.6,225.4c7.1,0.5,0.2,10.8,0.2,10.8c-11.2,12.6-5.9,28.2-5.9,28.2
			c-1.5,27.1-21.8,35.1-35,31.7c0,0-24-8.7-6.6-45.3"/>
		<path id="XMLID_166_" class="st75" d="M541.8,250.5c0,0,6.6-0.5,0.7,19.5c0,0-0.7,14.6,7.1-1.1s13.8-19,17.1-15.3
			c3.1,3.8,7.4,4.8,11.7-16.3l10.8-12.5C589.1,224.9,573.8,210.1,541.8,250.5z"/>
	</g>
</g>
<g id="yz6">
	<g id="yz3_2_">
		<g id="XMLID_190_">
			<path id="XMLID_191_" class="st73" d="M664.2-22c0,0,21.4-47.5,52.9-47.5c31.5,0,35.8,39.4-19.4,58.2
				C642.5,7.5,649.9,1.1,664.2-22z"/>
		</g>
	</g>
</g>
<g id="yz7">
	<g id="yz3_1_">
		<g id="XMLID_145_">
			<path id="XMLID_189_" class="st73" d="M981.9,283.9c0,0,15-33.3,37.1-33.3s25.1,27.6-13.6,40.8
				C966.7,304.6,971.9,300.1,981.9,283.9z"/>
		</g>
	</g>
</g>
<g id="yz8">
	<g id="yz5_1_">
		<g id="XMLID_192_">
			<path id="XMLID_194_" class="st74" d="M503.4,103.7c-2,8.1-12.8-2-12.8-2c-12.6-15.6-31.9-12.6-31.9-12.6
				c-31.4-7.1-36.7-32.6-30.1-47.2c0,0,15-26.3,54.4,1.3"/>
			<path id="XMLID_193_" class="st75" d="M483.3,43.8c0,0-0.7,7.8-22.9-3.2c0,0-17-3.7,0,8.5c17,12.1,19.6,19.9,14.5,23.1
				c-5,2.8-7,7.6,16.6,17l12.3,15.1C503.8,104.3,524.2,89.4,483.3,43.8z"/>
		</g>
	</g>
</g>
<g id="yz9">
	<g id="XMLID_199_">
		<path id="XMLID_202_" class="st76" d="M563.5,529.1c0,0-3.9-28.2,34.4-25.1c28.6,2.3,36,5.4,49.5,23.4c4.4,6,9.9,13.7,16.8,23.6
			c0,0,6,9.9,4.4,30.4c0,0,1.7,4.4,3.9,10.8c2.3,6.4,7.5,17.6,1.2,24.2c0,0,1,16.1-17.2-4.3c0,0-13.9-15.7-35.2-26.3
			c0,0-3.3-2.3-15.9-12.4C592.9,563.4,565.8,559.9,563.5,529.1z"/>
		<path id="XMLID_201_" class="st77" d="M576.1,552.7c0,0,5.6,7.2,12.6,3.3c7.2-3.9,8.9,12.4,8.9,12.4l20.9,15.3c0,0,7-7-6-16.2
			c0,0-7.9-19.5,4.6-10.6l19.7,15.9c0,0,13.5,10.6,19.1,21.7c0,0,7,2.7,0.4-8.5c-6.6-11.2-7.2-18.6-16.4-20.9
			c-9.3-2.3-17.8-13.5-21.3-22c-3.5-8.5-35.8-14.7-39.5-21.5c-3.7-6.8-11,19.5-7.7,24.4C574.5,550.6,570.7,553.3,576.1,552.7z"/>
		<path id="XMLID_200_" class="st78" d="M612.8,510.6c-24.4-2.7-29.2-3.3-35.6,0.2c-6.2,3.5-13.7,11.8-11.6,18.2
			c2.1,6.4,1.4,12.6,5.4,17c4.1,4.4,11.6-18.4,7.7-24.4c0,0,18.2-24.2,74.1,13.5C653.1,535.1,630.4,512.5,612.8,510.6z"/>
	</g>
</g>
<g id="yz10">
	<path id="XMLID_195_" class="st76" d="M1377.7,528c0,0-4.2-27.8,33.6-25.2c28.4,1.9,35.5,4.8,49.2,22.5c4.6,5.9,9.7,13.3,16.8,23.1
		c0,0,5.9,9.7,4.8,29.7c0,0,1.7,4.4,4,10.7c2.3,6.3,7.6,17.2,1.3,23.8c0,0,1.1,15.8-17.2-4c0,0-14.1-15.3-35.1-25.6
		c0,0-3.4-2.3-15.6-12C1407.3,561.3,1380.6,558.1,1377.7,528z"/>
	<path id="XMLID_197_" class="st77" d="M1390.5,551c0,0,5.5,7.1,12.6,3.2c7.1-3.8,8.8,12,8.8,12l20.8,14.9c0,0,6.7-6.9-6.1-15.8
		c0,0-8-19.1,4.6-10.5l19.6,15.4c0,0,13.5,10.3,19.1,21.2c0,0,6.9,2.5,0.4-8.4s-7.4-18.1-16.4-20.4c-9-2.1-17.7-13.2-21.2-21.4
		c-3.4-8.2-35.5-14.1-39.3-20.6c-3.8-6.7-10.7,19.5-7.2,24C1389,549.1,1385.2,551.6,1390.5,551z"/>
	<path id="XMLID_196_" class="st78" d="M1426.2,508.9c-24-2.5-29-2.9-35.1,0.6c-6.1,3.4-13.3,11.8-11.1,18.1
		c2.3,6.1,1.5,12.4,5.7,16.8c4,4.4,11.3-18.3,7.2-24c0,0,17.7-24,73.2,12.4C1466.2,532.7,1443.7,510.6,1426.2,508.9z"/>
</g>
<g id="sg5">
	<g id="XMLID_204_">
		<path id="XMLID_203_" class="st79" d="M1659.4,384.9c-0.8,11.2-1.7,18.1-1.9,27.2c-1.5,4-1.7,10-7.1,10.4
			c-3.7,0.2-8.1-1.5-8.5-6.7c-0.4-34.5,1.7-68.7,7.3-102.8c1.3-8.3,0.4-17.1,0.6-25.6c0-4.2-0.2-8.3,2.1-12.1c3.5-1,5.8,0.6,7.1,3.7
			c2.9,11,2.5,22,0.8,33.1C1655.9,336,1658.6,354.5,1659.4,384.9z"/>
		<path id="XMLID_198_" class="st80" d="M1659.2,278.6c-2.3-1.2-4.8-2.5-7.1-3.7c0.4-3.5-2.7-8.3,2.3-9.8c2.9-1,5.8,1.7,7.7,4.4
			C1665,274,1662.9,276.5,1659.2,278.6z"/>
	</g>
</g>
</svg>
